<?xml version="1.0" encoding="utf-8"?>
<!-- Generator: Adobe Illustrator 26.3.1, SVG Export Plug-In . SVG Version: 6.00 Build 0)  -->
<svg version="1.1" id="Layer_1" xmlns="http://www.w3.org/2000/svg" xmlns:xlink="http://www.w3.org/1999/xlink" x="0px" y="0px"
	 viewBox="0 0 150.89 42.8" style="enable-background:new 0 0 150.89 42.8;" xml:space="preserve">
<style type="text/css">
	.st0{clip-path:url(#SVGID_00000176003408181024204380000016492091685690540973_);}
	.st1{clip-path:url(#SVGID_00000134948820495432790320000004413530657309973412_);fill:#FFFFFF;}
	.st2{clip-path:url(#SVGID_00000093154210965618029710000011049571950196823716_);}
	.st3{clip-path:url(#SVGID_00000177480350144263140380000000214206952404481684_);fill:#FFFFFF;}
	.st4{clip-path:url(#SVGID_00000070839082991044117920000002113111493136874141_);}
	.st5{clip-path:url(#SVGID_00000054237573542201313060000001100445905269939351_);fill:#FFFFFF;}
	.st6{fill:#FFFFFF;}
</style>
<g>
	<g>
		<defs>
			<rect id="SVGID_1_" x="0.89" y="0.89" width="56.68" height="41.04"/>
		</defs>
		<defs>
			<path id="SVGID_00000001652175265122888250000003435836640798704830_" d="M44.6,13.79h-0.27c0,1.51-2.72,3.56-2.72,5.07v1.78
				h2.99c3.75,0,6.12,3.76,6.12,7.54c0,3.79-3.04,6.86-6.8,6.86c-3.75,0-6.8-3.07-6.8-6.86l-6.8,1.37c0,7.57,6.09,12.34,13.6,12.34
				s13.6-6.14,13.6-13.72C57.52,20.62,52.11,13.79,44.6,13.79"/>
		</defs>
		<clipPath id="SVGID_00000074414190614183554070000003571505801252952467_">
			<use xlink:href="#SVGID_1_"  style="overflow:visible;"/>
		</clipPath>
		
			<clipPath id="SVGID_00000124857014820579754420000008325030174993160618_" style="clip-path:url(#SVGID_00000074414190614183554070000003571505801252952467_);">
			<use xlink:href="#SVGID_00000001652175265122888250000003435836640798704830_"  style="overflow:visible;"/>
		</clipPath>
		
			<rect x="29.43" y="12.9" style="clip-path:url(#SVGID_00000124857014820579754420000008325030174993160618_);fill:#FFFFFF;" width="28.97" height="29.89"/>
	</g>
	<g>
		<defs>
			<rect id="SVGID_00000085217981599214090350000013953905154623207583_" x="0.89" y="0.89" width="56.68" height="41.04"/>
		</defs>
		<defs>
			<path id="SVGID_00000089556894691907296850000006245896928176354732_" d="M15.82,34.95H14.6c-3.79,0-6.86-3.07-6.86-6.86v-4.42
				c0.11-0.1,0.22-0.21,0.33-0.31c3.28-2.97,8.35-2.71,11.32,0.57c1.33,1.47,2.07,3.39,2.07,5.37
				C21.46,32.43,18.94,34.95,15.82,34.95 M14.6,14.66c-2.5,0-4.84,0.66-6.86,1.82V0.89H5.96c-1.52,0-3.56,2.66-5.07,2.66v24.74
				c0,7.52,6.14,13.62,13.72,13.62c7.57,0,13.72-6.1,13.72-13.62C28.32,20.76,22.18,14.66,14.6,14.66"/>
		</defs>
		<clipPath id="SVGID_00000103963105550145508700000001435087778866376876_">
			<use xlink:href="#SVGID_00000085217981599214090350000013953905154623207583_"  style="overflow:visible;"/>
		</clipPath>
		
			<clipPath id="SVGID_00000174600447528633583460000004723246591685692811_" style="clip-path:url(#SVGID_00000103963105550145508700000001435087778866376876_);">
			<use xlink:href="#SVGID_00000089556894691907296850000006245896928176354732_"  style="overflow:visible;"/>
		</clipPath>
		
			<rect style="clip-path:url(#SVGID_00000174600447528633583460000004723246591685692811_);fill:#FFFFFF;" width="29.21" height="42.8"/>
	</g>
	<g>
		<defs>
			<rect id="SVGID_00000035513445769588618770000013181450689110458006_" x="0.89" y="0.89" width="56.68" height="41.04"/>
		</defs>
		<defs>
			<path id="SVGID_00000064316237630416086380000015734860844697896581_" d="M43.84,7.88h0.27c0-1.49,2.74-3.58,2.74-5.07V1.04h-3
				c-7.53,0-13.63,4.76-13.63,12.31l6.82,1.37C37.02,10.94,40.07,7.88,43.84,7.88"/>
		</defs>
		<clipPath id="SVGID_00000103964585830119689720000006272199404537135261_">
			<use xlink:href="#SVGID_00000035513445769588618770000013181450689110458006_"  style="overflow:visible;"/>
		</clipPath>
		
			<clipPath id="SVGID_00000011024028054786347450000016358167894349840310_" style="clip-path:url(#SVGID_00000103964585830119689720000006272199404537135261_);">
			<use xlink:href="#SVGID_00000064316237630416086380000015734860844697896581_"  style="overflow:visible;"/>
		</clipPath>
		
			<rect x="29.32" y="0.15" style="clip-path:url(#SVGID_00000011024028054786347450000016358167894349840310_);fill:#FFFFFF;" width="18.41" height="15.46"/>
	</g>
	<path class="st6" d="M76.95,34.72l-2.26-0.68c-0.37,1.39-1.27,2.08-2.7,2.08c-0.99,0-1.77-0.35-2.31-1.05
		c-0.54-0.7-0.82-1.69-0.82-2.98c0-1.29,0.28-2.29,0.84-2.98c0.56-0.7,1.34-1.05,2.34-1.05c0.69,0,1.23,0.15,1.63,0.46
		c0.4,0.31,0.7,0.81,0.89,1.51l2.22-0.94c-0.32-1.01-0.9-1.76-1.75-2.27c-0.85-0.51-1.88-0.76-3.1-0.76c-1.14,0-2.13,0.24-2.98,0.73
		c-0.85,0.49-1.5,1.18-1.95,2.09c-0.46,0.91-0.68,1.98-0.68,3.22c0,1.24,0.23,2.32,0.68,3.22c0.46,0.91,1.11,1.6,1.96,2.09
		c0.85,0.49,1.85,0.73,3,0.73c1.22,0,2.27-0.29,3.14-0.86C76,36.69,76.61,35.84,76.95,34.72L76.95,34.72L76.95,34.72z M82.37,28.89
		c-1.43,0-2.55,0.41-3.35,1.23c-0.8,0.82-1.2,1.95-1.2,3.39c0,1.45,0.4,2.58,1.2,3.39s1.92,1.23,3.35,1.23
		c1.43,0,2.55-0.41,3.35-1.23c0.8-0.82,1.2-1.95,1.2-3.39c0-1.44-0.4-2.58-1.2-3.39C84.92,29.3,83.8,28.89,82.37,28.89L82.37,28.89
		L82.37,28.89z M82.37,30.7c0.69,0,1.21,0.23,1.57,0.7c0.36,0.47,0.54,1.17,0.54,2.11c0,0.94-0.18,1.64-0.54,2.11
		c-0.36,0.47-0.89,0.7-1.57,0.7c-0.69,0-1.21-0.23-1.57-0.7c-0.36-0.47-0.54-1.17-0.54-2.11c0-0.94,0.18-1.64,0.54-2.11
		C81.16,30.94,81.68,30.7,82.37,30.7L82.37,30.7L82.37,30.7z M94.66,25.18v5.35c-0.26-0.51-0.63-0.91-1.1-1.2
		c-0.47-0.29-1.03-0.44-1.67-0.44c-1.18,0-2.11,0.41-2.79,1.23c-0.68,0.82-1.01,1.95-1.01,3.41c0,1.45,0.34,2.57,1.01,3.38
		c0.68,0.81,1.6,1.22,2.79,1.22c0.66,0,1.25-0.17,1.77-0.5c0.52-0.33,0.9-0.78,1.16-1.33l0.11,1.65h2.17V25.18H94.66L94.66,25.18z
		 M92.6,36.26c-0.65,0-1.16-0.24-1.53-0.71c-0.37-0.47-0.55-1.15-0.55-2.04s0.18-1.57,0.55-2.04c0.37-0.47,0.88-0.71,1.53-0.71
		c0.64,0,1.14,0.23,1.51,0.7c0.37,0.47,0.55,1.12,0.55,1.96v0.18c0,0.85-0.18,1.51-0.55,1.97C93.74,36.03,93.24,36.26,92.6,36.26
		L92.6,36.26L92.6,36.26z M107.45,33.47c0-1.47-0.37-2.6-1.11-3.39c-0.74-0.79-1.8-1.19-3.17-1.19c-1.42,0-2.52,0.41-3.3,1.22
		c-0.78,0.81-1.17,1.95-1.17,3.4c0,1.46,0.4,2.59,1.21,3.4c0.81,0.81,1.94,1.22,3.41,1.22c1.01,0,1.84-0.19,2.51-0.56
		c0.67-0.37,1.15-0.92,1.43-1.63l-1.99-0.73c-0.13,0.36-0.36,0.63-0.69,0.82c-0.33,0.19-0.75,0.28-1.26,0.28
		c-1.23,0-1.97-0.63-2.22-1.88h6.29C107.43,34.12,107.45,33.8,107.45,33.47L107.45,33.47L107.45,33.47z M103.16,30.68
		c0.57,0,1.03,0.17,1.39,0.52c0.36,0.35,0.58,0.86,0.68,1.52h-4.14c0.09-0.68,0.32-1.18,0.67-1.53
		C102.09,30.86,102.56,30.68,103.16,30.68L103.16,30.68L103.16,30.68z M116.6,37.95h2.75l-3.09-4.76c0.77-0.25,1.36-0.66,1.78-1.23
		c0.41-0.57,0.62-1.27,0.62-2.11c0-1.15-0.38-2.04-1.13-2.67c-0.75-0.63-1.8-0.95-3.14-0.95h-5.17v11.73h2.42v-4.5h2.2L116.6,37.95
		L116.6,37.95z M111.65,28.18h2.43c0.71,0,1.23,0.14,1.57,0.42c0.34,0.28,0.51,0.71,0.51,1.29c0,0.58-0.17,1.01-0.51,1.29
		c-0.34,0.28-0.86,0.42-1.57,0.42h-2.43V28.18L111.65,28.18z M121.77,27.79c1.01,0,1.51-0.43,1.51-1.3c0-0.88-0.5-1.31-1.51-1.31
		c-1.01,0-1.51,0.44-1.51,1.31C120.26,27.36,120.77,27.79,121.77,27.79L121.77,27.79L121.77,27.79z M122.98,29.07h-2.43v8.88h2.43
		V29.07L122.98,29.07z M130.44,36.28h-3c-0.32,0-0.57-0.06-0.75-0.19c-0.18-0.12-0.27-0.3-0.27-0.54c0-0.41,0.23-0.68,0.69-0.8
		c0.49,0.11,1.02,0.16,1.6,0.16c1.27,0,2.27-0.27,2.99-0.81c0.73-0.54,1.09-1.27,1.09-2.19c0-0.52-0.12-0.98-0.35-1.39
		c-0.23-0.4-0.57-0.73-1-0.99c0.12-0.26,0.32-0.47,0.61-0.62c0.29-0.15,0.65-0.23,1.09-0.23c0.17,0,0.29,0.01,0.37,0.02l-0.32-1.74
		c-0.76-0.05-1.36,0.13-1.8,0.52c-0.44,0.4-0.74,0.94-0.9,1.64c-0.56-0.15-1.15-0.23-1.79-0.23c-1.26,0-2.25,0.27-2.98,0.81
		c-0.73,0.54-1.09,1.28-1.09,2.21c0,0.53,0.12,1,0.36,1.41c0.24,0.41,0.58,0.74,1.03,1c-0.44,0.15-0.78,0.39-1.03,0.69
		c-0.25,0.31-0.37,0.68-0.37,1.1c0,0.41,0.12,0.77,0.36,1.07c0.24,0.3,0.56,0.54,0.96,0.7c-0.53,0.13-0.94,0.34-1.21,0.64
		c-0.27,0.3-0.41,0.65-0.41,1.05c0,0.68,0.36,1.21,1.07,1.6c0.72,0.39,1.82,0.59,3.3,0.59c1.43,0,2.59-0.27,3.46-0.8
		c0.88-0.53,1.31-1.27,1.31-2.22c0-0.79-0.26-1.4-0.79-1.83C132.17,36.49,131.42,36.28,130.44,36.28L130.44,36.28L130.44,36.28z
		 M128.72,30.42c0.49,0,0.88,0.14,1.18,0.41c0.3,0.27,0.45,0.63,0.45,1.07c0,0.45-0.15,0.81-0.45,1.08c-0.3,0.27-0.7,0.41-1.18,0.41
		c-0.47,0-0.86-0.14-1.16-0.41c-0.3-0.27-0.45-0.63-0.45-1.08c0-0.44,0.15-0.79,0.45-1.07C127.86,30.55,128.25,30.42,128.72,30.42
		L128.72,30.42L128.72,30.42z M128.9,40.1c-0.88,0-1.53-0.09-1.97-0.28c-0.44-0.18-0.66-0.44-0.66-0.77c0-0.53,0.49-0.8,1.47-0.8
		h2.42c0.47,0,0.81,0.06,1.02,0.19c0.21,0.12,0.31,0.31,0.31,0.56c0,0.32-0.23,0.58-0.68,0.79C130.37,40,129.73,40.1,128.9,40.1
		L128.9,40.1L128.9,40.1z M139.77,28.89c-0.65,0-1.22,0.14-1.71,0.42c-0.49,0.28-0.87,0.7-1.15,1.27v-5.4h-2.43v12.77h2.43v-4.69
		c0-0.83,0.2-1.44,0.6-1.85c0.4-0.4,0.88-0.6,1.45-0.6c1.05,0,1.58,0.68,1.58,2.03v5.12h2.43v-5.83c0-1.04-0.29-1.84-0.88-2.4
		C141.5,29.17,140.73,28.89,139.77,28.89L139.77,28.89L139.77,28.89z"/>
	<path class="st6" d="M150.52,35.78c-0.39,0.33-0.85,0.5-1.37,0.5c-0.82,0-1.23-0.41-1.23-1.23v-4.18h2.88v-1.81h-2.88v-2.72
		l-2.43,0.68v2.04h-1.62v1.81h1.62v4.57c0,1.79,0.99,2.68,2.97,2.68c0.47,0,0.93-0.07,1.36-0.2c0.43-0.13,0.79-0.31,1.07-0.53
		L150.52,35.78L150.52,35.78z"/>
</g>
</svg>
