<?xml version="1.0" encoding="UTF-8"?><svg id="Layer_1" xmlns="http://www.w3.org/2000/svg" viewBox="0 0 28.88 25.06"><defs><style>.cls-1{fill:#de838a;}</style></defs><path class="cls-1" d="M7.61,5.56c.05-.07-.01-.19,.16-.14,.53,.21,.74,.75,1.25,1.01l.11-.08c.33,.31,.67,.62,.99,1,.67,.58,1.39,1.09,2.05,1.7,.02-.05,.04-.09,.11-.04,.29,.24,.62,.64,.99,1.03l.18,.15c.06,.02,.11,0,.13,0,.17,.18,.31,.34,.44,.49,1,.88,1.96,1.83,2.99,2.77,.98,.99,1.96,2.04,3,3.12,.49,.42,.93,.89,1.33,1.35,.56,.71,1.15,1.71,1.65,2.43,.15-.19,.58,.13,1,.42,.4,.3,.78,.57,.85,.26,.31,.5,.78,1.26,.91,1.23,.4-.1,1.03,.04,2.08,1.25,.38,.49,.76,1.38,.94,1.52,.29,.22-.2-.82,.09-.6-2.36-3.98-4.92-7.63-7.84-11.32-.3-.28-.89-1.04-1.75-2-.43-.48-.92-1.01-1.43-1.57-.51-.57-1.04-1.17-1.64-1.74-2.22-2.41-5.08-4.51-6.27-5.36l-.24-.13c-1.36-.86-3.2-1.74-4.7-1.87-.32-.05-.68-.03-1.03-.01-.35,.03-.68,.01-1.03,.09,.32,.06,.59,.2,.82,.3-.65-.14-1.35-.07-1.59,0-1.4,.37-.52,.49-.02,.74,.36,.13-.09,.35,.44,.48-.38-.02-.57,0-.95,.06-.01,.07,.27,0,.53-.03,.26,0,.5,0,.37,.1-.36-.07-.75,.09-1.12,.13,.08,.08,.4,.05,.69,.03,.29,0,.56,.02,.54,.11-.1,.03-.35-.05-.59-.06-.24,0-.47,.01-.48,.12,0,.04,.35,0,.52-.02-.54,.09-.93,.26-1.06,.39-.13,.12,0,.21,.48,.21-.16,.04-.34,.05-.56,.09-.12,.03-.23,.05-.33,.08-.14,.04-.45,.1-.64,.12H0c.11,0,.24-.02,.38-.04,.1-.02,.21-.04,.32-.06,.13-.03,.26-.05,.35-.08-.25,.06-.31,.13-.94,.22,.08,.02,.18,.04,.28,.05,.14-.02,.27-.05,.4-.07,.08-.02,.17-.04,.25-.06l-.49,.14c.18,0,.17,.03,.26,.03l.22,.04c.27,0,.47,.04,.66,.06,.19,.05,.34,.08,.45,.07,1.73-.06,3.66,.72,5.46,1.89Z"/><path class="cls-1" d="M7.53,15.84c-.06-.06-.18-.03-.11-.17,.23-.43,.74-.5,1.02-.9l-.07-.12c.32-.22,.63-.46,.98-.68,.56-.5,1.12-1,1.7-1.51-.05-.03-.08-.06-.03-.11,.24-.21,.63-.43,1.01-.68l.15-.13c.03-.05,.01-.1,0-.13,.17-.12,.33-.21,.48-.3,.85-.76,1.8-1.43,2.73-2.19,.96-.73,1.98-1.41,3.04-2.15,.42-.37,.86-.7,1.31-.98,.68-.38,1.62-.73,2.31-1.04-.31-.38,1.3-1.36,.77-1.62,.47-.19,1.19-.47,1.17-.61-.05-.41,.14-.97,1.31-1.72,.47-.26,1.29-.43,1.44-.57,.23-.23-.74,.01-.52-.22-3.74,1.41-7.22,3.07-10.78,5.03-.57,.4-2.88,1.76-5.2,3.4-.58,.42-1.17,.82-1.72,1.26-.55,.45-1.08,.89-1.57,1.3-.5,.39-.9,.85-1.28,1.19-.37,.36-.69,.64-.9,.89l-.15,.18c-.95,1.02-1.93,2.53-2.27,3.78-.12,.59-.21,1.18-.2,1.79,.12-.26,.27-.47,.41-.64-.22,.53-.28,1.13-.26,1.36,.09,1.26,.38,.53,.73,.16,.19-.28,.32,.14,.55-.28-.08,.32-.08,.48-.12,.81,.06,.02,.07-.23,.08-.45,.03-.23,.08-.42,.16-.29-.13,.29-.05,.65-.09,.96,.09-.05,.13-.32,.17-.57,.04-.25,.12-.47,.2-.43-.02,.16-.35,.84-.14,.91,.04,.01,.08-.29,.09-.44-.02,.95,.27,1.41,.47,.6,0,.14-.03,.29-.04,.49,0,.1,0,.2,0,.3,0,.14,0,.41-.02,.58h0c0-.1,.02-.21,.04-.34,0-.09,0-.19,.01-.29,0-.12,0-.23,0-.31,0,.21,.04,.29,0,.85,.04-.07,.07-.14,.11-.23,0-.13,.02-.25,.03-.36,0-.07,0-.15,0-.22l.02,.45c.03-.15,.06-.16,.09-.23l.09-.18c.11-.43,.34-.72,.37-.9,.26-1.44,1.2-2.92,2.41-4.28Z"/></svg>