<?xml version="1.0" encoding="UTF-8"?><svg id="Layer_1" xmlns="http://www.w3.org/2000/svg" viewBox="0 0 740 680"><defs><style>.cls-1,.cls-2{isolation:isolate;}.cls-1,.cls-2,.cls-3{opacity:.5;}.cls-1,.cls-2,.cls-4,.cls-5,.cls-6,.cls-7,.cls-8{fill-rule:evenodd;}.cls-1,.cls-7{fill:#c1dee2;}.cls-2,.cls-6{fill:#d97179;}.cls-4{fill:#58838c;}.cls-5{fill:#d9b8b8;}.cls-8{fill:#fff;}</style></defs><g id="Scene_Whiteboard"><path id="Background-Shape" class="cls-8" d="M53.8,519.9c16.3-84,181.3-36.1,289.5-62.1,108.2-26,236.1-146.9,320.8-87.6s-5.4,202.4-199.7,234.7c-194.2,32.2-426.9-1.1-410.6-85Z"/><g id="Cells" class="cls-3"><path id="Fill-5" class="cls-4" d="M96.9,127.7c-1.6,1.6-1,7.2-1,9.2-.1,3.2,.1,6.4,.4,9.6,.2,2.1,1.2,22.6,4,21,1.6-.9,.6-6.8,.6-8.7,0-4.2-.2-8.3-.5-12.5-.3-3.9-.4-7.7-.3-11.5,.2-.9,1-11.4-3.2-7.1"/><path id="Fill-7" class="cls-4" d="M165.4,125.1c-13.5,.1-27,.8-40.5,1.2-6.5,.2-13,.4-19.5,.8-2.2,.1-7-.6-8.8,.6-4.1,2.6,2.5,3.3,4.3,3.2,26.7-1,53.5-2.2,80.2-2.3,13.1,0,26.2,.3,39.4,.3,5,0,10.6-2.2,11.8,3.6,1.4,6.6-.2,13.9-.7,20.5-.3,4.4-.2,8.7,0,13.2,.1,2.8-.2,6,.3,8.8,.5,2.7,2.4,4.3,4.2,1.3,1.1-1.8,.5-6.2,.6-8.3,.1-2.8,0-5.6,0-8.4,0-6.8,1-13.6,.8-20.4-.1-4.4-.3-12.4-5.9-13.4-6.1-1.2-13.6,0-19.9-.1-15.4-.2-30.8-.7-46.3-.6"/><path id="Fill-9" class="cls-4" d="M128.2,167.8c-5.1,0-10.2,0-15.3,.1-4.4,.1-11.3-.8-15.3,.7-2.8,1.1-3.5,4.2,0,5,3.8,.9,9.6-.6,13.7-.6,20.2-.4,40.5-.8,60.7,.5,18.9,1.2,38.1,2.4,57,1.1,1.6-.1,9.7-.4,6-3.5-2.2-1.8-10.9-.6-13.7-.7-9.9-.3-19.8-.4-29.7-.7-9.8-.4-19.5-1.5-29.2-1.7-11.5-.4-22.9-.2-34.2-.2"/><path id="face" class="cls-4" d="M123.1,138.8c7.9,.3,15.8,11.9,7.8,17.4-7.5,5.2-21.7-.5-17.5-10.6-.6,1.5,.8-1.6,.8-1.6,.8-.9,2.2-2,3.2-2.7,1.1-.8,2.3-1.8,3.7-2.2,.8-.3,.7,.7,2-.3m-3.9-4.2c-3.7,1.5-5.4,3.1-8,6.1-1.8,2.1-4,3.1-4,5.9,0,.6,.8,1.3,.9,1.9,.2,.8,0,1.9,.1,2.7,1.5,8.9,12.2,12,20,10.3,6.8-1.5,11.9-8,10.3-15.1-1.4-7.2-12.1-14.6-19.3-11.8"/><path id="Fill-13" class="cls-4" d="M115.9,147.1c0,3.2,5.1,3.2,5.1,0s-5.1-3.3-5.1,0"/><path id="Fill-15" class="cls-4" d="M122.3,146.5c0,2.6,4,2.6,4,0s-4-2.6-4,0"/><path id="Fill-17" class="cls-4" d="M123.5,151.8c-1.3,.5-2.9-.5-4,.1-1.9,1.2,0,2.3,1,2.8,4.6,2.2,5.4-3.8,3-2.9"/><path id="Fill-19" class="cls-4" d="M192.8,144.6c-.1,.1-.6,.3,0,0m-19.7-2.9c-3.4,.8-6.3,3.9-10,3.5-2.8-.3-4.7-3.1-7.5-3.5-3.6-.5-13.3,7.6-8.2,9,3,.8,4.6-4.6,7.3-4.9,2.1-.2,4.9,2.3,7.1,2.7,4,.7,6.8-1.5,10.3-3,3.8-1.6,6-.2,9.4,1.6,2.6,1.4,5.1,2.3,8.1,1.7,2.8-.5,6.4-3.4,9.2-3.1,2.8,.3,4.8,3.2,7.7,3.5,1.2,.1,2.9,.5,2.7-1.3-.2-1.5-1.8-1.2-2.8-1.7-2.6-1.4-5.1-3.8-8.3-3.6-2.4,.2-4.6,1.8-6.8,2.6-7.1,2.7-11.1-5.1-18.2-3.5"/><path id="Fill-21" class="cls-4" d="M179.1,188.1c-13.9,.1-27.8,.3-41.7,1.4-3.3,.3-36.8,3.5-36.7,3.7,.1,.4,4.4,1.1,4.4,1.2-.3-.7-1-1-2-.9,31.8,0,63.5-2.8,95.3-2.3,8,.1,16,.1,24,.3,2,.1,6.9,1.5,8.5,.6,4.1-2.4-3.4-2.6-4.6-2.7-15.6-1.3-31.5-1.4-47.2-1.3"/><path id="Fill-23" class="cls-4" d="M96.6,194.9c-2.1,2.1-.2,9.6-.1,12.4,.1,4.1,0,8.2,.4,12.2,.4,4.6,1,9.6,2.3,14.1,.7,2.5,3,6.4,4,1.9,.7-3.2-.3-7.5-.7-10.8-.6-4.4-.7-8.7-.7-13.1,0-3.8-.1-7.7-.4-11.5-.2-2-1.2-8.9-4.8-5.2"/><path id="Fill-25" class="cls-4" d="M148.8,233c-9.9,.2-19.7,.4-29.6,1-4,.3-8.1,.6-12.1,1.1-.8,.1-9.9,.5-5.8,3.8,1.8,1.5,9.4-.6,11.8-.8,4.2-.4,8.4-.6,12.6-.8,9.7-.4,19.5-.8,29.2-.6,17.8,.3,35.4,.4,53.2,0,2.5-.1,22.3,.5,23-2.2,.5-2.1-6.5-1.1-7.8-1.1-4.7,.1-9.5,.1-14.2,.1-20.1,0-40.3-.8-60.3-.5"/><path id="Fill-27" class="cls-4" d="M227.7,191.3c.3,8.8,1.8,17.5,2.3,26.3,.2,4,.5,8,.7,12.1,.1,1.3-.5,4.4,1.1,5.2,2.1,1,2.4-1,2.8-2.4,1.1-4,.4-9.3,.3-13.4-.1-4-.1-8-.4-12-.3-4.1-1.1-8.1-1.5-12.2-.2-1.7,.4-4.6-1.4-5.7-1.7-.9-3.9,.2-3.9,2.1"/><path id="face-2" class="cls-4" d="M130.8,205.9l.1,.1s0,0-.1-.1m-8.3-2.6c3.1,.9,5.7,.6,8.7,2.8,2.5,1.9,5,4.6,5.8,7.7,1.9,7-4.5,10.9-10.6,11-6.2,.1-15.3-1.4-15-9.3,.3-6,4.7-11.9,11.1-12.2m.2-3.9c-8.1,.4-14.6,9.5-14.6,17.2,.1,9.3,10.6,11.7,18.1,11.7,8.4,.1,16.8-5.7,14.6-15.2-1.8-7.7-10.3-14.1-18.1-13.7"/><path id="Fill-31" class="cls-4" d="M114.5,211.8c0,2.6,4.1,2.6,4.1,0s-4.1-2.6-4.1,0"/><path id="Fill-33" class="cls-4" d="M123.1,210.7c0,2.6,4.1,2.6,4.1,0s-4.1-2.7-4.1,0"/><path id="Fill-35" class="cls-4" d="M118.4,216.6c-2.7,2.7,6.7,7.3,8.9,3.6,1.8-3-2.1-2-3.5-2.2-1.6-.2-4.2-2.6-5.4-1.4"/><path id="Fill-37" class="cls-4" d="M193.1,210.7q-.2,.1,0,0m-35.1-4.3c-2.7,.5-11.5,3.5-11.7,6.7-.2,5.8,8.4-.1,10.3-.9,5.1-2.1,7.8,2.2,12.9,2.4,4.5,.2,8.6-3.6,12.8-3.2,4.4,.5,6.5,5.2,11.6,2.7,2.7-1.3,2.6-3.3-.4-3.5-1.8-.1-3.1,.6-5-.1-3-1.2-4.2-3.2-7.7-2.9-2.7,.2-5.1,1.8-7.7,2.3-6,1.3-9.3-4.6-15.1-3.5"/><path id="point" class="cls-4" d="M213.8,213.3q-.2,0,0,0m.7-2.5c0,.1,.2,.3,0,0m-3.1-1.8q-.1,.1,0,0m.1,0c.6,.4,5.4,3.7,1.9,4.4-1.8,.4-3.3-3.2-1.9-4.4m-1.6-3.7c-7.7,3.5,.6,16.1,6.6,11,2.5-2.2,2.9-6.5,.4-8.7-1.5-1.4-5-3.2-7-2.3"/><path id="Fill-41" class="cls-4" d="M137.5,254.9c-9.6,0-19.3-.2-28.9,.4-1.6,.1-7.8-.2-8.6,1.5-1.5,3.1,4.8,1.6,5.7,1.5,19.1-1.9,39.1-.8,58.3-.3,15.7,.4,31.3,.7,47,1.5,4.1,.2,8.2,.4,12.4,.7,1.3,.1,4.7,1,5-1.2,.3-2-4-1.5-5-1.6-8.4-.4-16.7-.9-25.1-1.4-20.2-1.1-40.6-1.1-60.8-1.1"/><path id="Fill-43" class="cls-4" d="M99.6,258.4c-1.8,1.8-1,8.6-1,10.9-.1,3.9-.3,7.9-.4,11.8-.1,4.1,0,8.3,.3,12.4,.1,1.7,1.5,10.1,3.8,5.3,1-2.1,0-8.1,0-10.5,0-4.4,.3-8.8,.5-13.2,.2-3.8,.2-7.6,.4-11.3,0-1.3,.1-9.2-3.6-5.4"/><path id="Fill-45" class="cls-4" d="M230,293.6c-9.4,1-18.9,.5-28.3,1.2-8.1,.6-16.2,.9-24.3,1-18.4,.4-36.8,.8-55.2,2.3-4.2,.3-8.4,.7-12.5,.9-2.1,.1-10.9-.9-11.5,1.3-1.1,3.8,8.3,2.3,10.3,2.2,4.5-.1,8.9-.5,13.4-.8,18.7-1.4,37.5-1.9,56.2-2.4,10.2-.3,20.3-1.1,30.5-1.7,5.1-.3,10.2-.3,15.2-.7,1.3-.1,6,.1,7-1,.5-.7,.7-2.4-.8-2.3"/><path id="Fill-47" class="cls-4" d="M226.8,259c.3,9,.8,18,1.1,26.9,.1,2.7-.7,7.5,.8,9.9,2.4,3.8,4.3-.2,4.7-2.6,1.4-7.5-.1-15.9-.5-23.4-.1-2.9,.7-9.3-.6-11.9-1.3-2.5-5.6-2.2-5.5,1.1"/><path id="hola-:_" class="cls-4" d="M211.1,271.8c3.6,1,4.1,8.8,.1,9.4-6.1,.8-3.4-7.8-.1-9.4m-1-3.1c-1.1,0-3.6-.3-4.3,.6-.6,.7,0,2.3-.1,3-.2,2.5-2.3,4-1.4,7,.6,2,2.3,3.9,4.3,4.7,10.9,3.7,10.7-17.2,1.5-15.3"/><path id="Fill-51" class="cls-4" d="M112.7,270.1l-.1,.1s.1-.1,.1-.1m8.5-4.5c0-.4-.1-.7-.1-1.1,5.8,2.8,10.5,7.9,8.6,14.8-1.5,5.3-6.8,7.1-11.8,5.8-5.5-1.4-8.2-6-6.7-11.6,.7-2.6,2.8-6,5.5-6.9,1.2-.3,4,.7,4.5-1m-3.4-2.2c-1.5,.1-2.9,.7-4.1,1.6,1.1-1,2.6-1.6,4.1-1.6m0-3.4c-3.7,.1-6,2.3-8.2,5-.7,.8-3,3-2.7,4.2,.2,.9,.8,2.2,2.1,1.2-6.5,12.9,10.3,24,20.5,15,9.5-8.5,.1-25.8-11.7-25.4"/><path id="Fill-53" class="cls-4" d="M114.5,272c0,1.7,2.7,1.7,2.7,0s-2.7-1.7-2.7,0"/><path id="Fill-55" class="cls-4" d="M119,272.3c0,1.8,2.7,1.8,2.7,0,.1-1.7-2.7-1.7-2.7,0"/><path id="Fill-57" class="cls-4" d="M121.1,278.5c-1.3,.1-5.9-.3-6.7,.8-1.4,1.9,.8,1.9,1.9,2.1,1,.2,5.2,.1,5.7-.8,.5-.7,.4-2.2-.9-2.1"/><path id="Fill-59" class="cls-4" d="M177.2,273.7q-.2,0,0,0m-17.6-1.3c-2.9,.2-5.3,1.9-8,2.5-2.9,.7-4.2-.6-6.9-1.4-2.8-.9-4.7-.5-7,1.4-1.3,1.1-4,3.5-3.2,5.4,1.8,4.4,5.9-2.7,7.8-3.1,3-.5,5.7,2.1,9.1,1.4,3.1-.7,5.9-2.8,9.2-2.9,2.7,0,5.3,1.5,8,1.8,4.1,.6,6.8-.9,10.6-2,3.3-.9,5.6,.3,8.7,1.3,1.4,.5,6.2,2.2,5.3-.9-.2-.9-6.5-2.5-7.5-2.8-3.4-1.1-5.6-.7-8.8,.6-2.7,1-5,1.5-7.9,1-3.1-.6-6-2.6-9.4-2.3"/></g><g id="Big-Cards" class="cls-3"><path id="Fill-67" class="cls-6" d="M291.6,128c.4-9.9,1.1-19.9,1.4-29.8,.2-4.9,.3-9.9,.4-14.8,0-1.1,.1-2.2,.1-3.3,.1-3.7-.4-4,3.4-4.4,16.8-1.5,33.6-2,50.4-3.3,20.2-1.6,40.6-2.7,60.9-3.2,9-.2,18.1-.7,27.1-.4,2,.1,5.9-.5,6.7,1.1,.3,.7-.4,3-.5,3.8-.3,2.4-.5,4.8-.7,7.3-1,14.3-.4,29.1,2.4,43.2-6.5-3.7-14.8-6.8-22.3-6.2-7.7,.6-13.5,5.1-19.7,9.2-3.5,2.3-4.7,2.9-8.2,.7-3-1.9-5.9-4.2-8.7-6.4-4.4-3.4-8.5-7-12.8-10.6-7.8-6.5-18.6-15.7-29.4-13-7.7,1.9-14.9,6.2-21.6,10.3-9.9,6.2-19,13.7-28.9,19.8m134.2-63.7c-38.5,0-76.7,3.7-115,5.7-4,.2-8,.5-12,.9-2.7,.3-9.2-.8-10.9,1.5-1.2,1.5-.2,1.7,0,3.2,.2,1.8,.1,4,0,5.9-.1,4.6-.3,9.3-.4,13.9-.4,17.5-.6,35,.1,52.5,.2,3.8,1.5,9.1,.8,12.8-.6,2.7-2.4,4.3,1.9,4.8,4.2,.5,9.3-.8,13.5-1.2,4.2-.4,8.4-.8,12.6-1.2,18.3-1.5,36.8-1.3,55.2-1.8,18.5-.5,37.1-.5,55.6-.5,7.8,0,16.6,.4,24.2-1.7,2.7-.8,3.1-1.1,2.4-3.8-.1-.5-.9-.7-1.2-1.6-.3-1.2-.2-2.7-.2-4-.2-4.2-.3-8.4-.5-12.6-.3-7-1.5-13.8-2.4-20.7-1-8-1-16.1-1-24.2,0-4.5,.1-8.9,.5-13.4,.2-2.9,1.6-7.1,.9-9.8-.4-1.3-.9-2.4-2.3-3-.9-.4-1.6-.1-2.5-.2-1-.1-1.7-.3-2.9-.5-5.4-1.1-11-1-16.4-1"/><path id="Fill-69" class="cls-4" d="M404.5,83.4c0,2.8-.4,6.9,.8,9.5,1.6,3.3,3.7,2.3,4.2-.8,.3-1.8,.3-7.1-.3-8.7-.7-2.3-4.7-3.8-4.7,0"/><path id="Fill-71" class="cls-4" d="M409.2,84.4c-2.6,.1-10.2-.5-12,1.6-3,3.6,2.3,4.2,4.5,4,2.6-.2,10.7,.3,12.5-1.8,2.9-3.5-3-3.8-5-3.8"/><path id="Fill-73" class="cls-5" d="M307.6,177.6c11.5,2,7.9,19.5-3,15.5-3.8-1.4-9.4-5.5-7.3-10.3,1.6-3.7,6.7-5.6,10.3-5.2m-4.8-5.5c-7.5,1.3-12.6,9.4-10,16.4,2.5,6.8,11.9,11.8,18.8,9.4,6.6-2.3,9.9-11.1,7.7-17.6-2.4-6.7-10-9.3-16.5-8.2"/><path id="Fill-75" class="cls-5" d="M372.8,179.6c-2.9,.2-5.3,2.2-8.2,2.6-2.7,.3-4.9-.6-7.5-1.3-3.1-.9-5.8-1.3-9-.5-2.4,.6-4.7,2.2-7.2,2.4-4.9,.4-10.5-5.2-14.3,1.1-1.8,3,.8,5,3.6,3.5s1.4-2,5-1.1c2.9,.7,5.3,1.1,8.3,.1,2.7-.9,5-2.6,7.9-2.8,2.8-.2,5.3,1.1,8,1.7,3.3,.7,6.3,.2,9.5-.9,3-1,4.2-1.5,7.2-.7,1.9,.6,6.1,2.3,8,.9,3.2-2.5-1.1-2.9-2.8-3.2-2.8-.4-5.6-2-8.5-1.8"/><path id="Fill-77" class="cls-5" d="M438.4,178h0m-2.8-.6c4.2,.3,8.7,7.9,3.2,8.2-4,.1-8.3-6.6-3.2-8.2m-.6-6.3c-13.2,3.7-7.2,22.3,5.6,20.2,5.8-1,7.8-7.7,5.8-12.7-.8-2.1-2.4-3.9-4.3-5.2-1.5-.8-5.5-2.7-7.1-2.3"/><path id="Image-Border" class="cls-4" d="M292.8,290.3c-.4-1.7-.2-4.4-.2-5-.1-2.9-.1-5.8-.2-8.6-.3-6.8-.4-13.7-1-20.6-.5-6.5-1.8-12.9-1.8-19.4,0-4.5-1.3-15.7,2.6-18.7,6.7-3.9,4,9.9,3.9,12.3-.3,7.2,.1,14.1,.8,21.2,.7,6.5-.1,13.1-.4,19.6-.1,3.5-.2,6.9-.5,10.4-.1,1.1,0,6-.5,8.6,1.5-.1,2.8,0,3.6,0,5.4-.2,10.9-.3,16.3-.5,20.9-.8,41.8-.4,62.6-1.4,19.7-.9,39.5-1.1,59.3-1.4,1.7,.2,2.5,2,1.4,3.4s-6.1,1.1-7.7,1.2c-5.6,.4-11.1,.6-16.7,.7-11.8,.1-23.5,.6-35.2,1.3-20.8,1.2-41.7,1.1-62.6,1.9-5.1,.2-10.1,.4-15.2,.5-2.7,.1-9.7,1.7-11-1.5-.7-2.5,.6-3.5,2.5-4Zm115.4-81.1c6.3-.1,12.6,.1,18.9,.4,2.8,.2,5.6,.3,8.4,.4,1.6,.1,5.3-.5,6.7,.3,5.6,2.9-5.8,3.3-7.2,3.2-5.8-.1-11.6-.5-17.3-.7-21.3-.5-42.7,.8-64,1.6-10.2,.4-20.4,.5-30.7,1.1-5.6,.3-11.2,.7-16.8,1-2.6,.1-5.2,.3-7.7,.3-1.6,0-4.8,.7-6.3,.1-1.3-.5-2.3-1.2-1.6-2.7,.7-1.6,4-.9,5.3-1,4.9-.1,9.8-.4,14.8-.7,11.2-.7,22.3-1.5,33.5-1.7,21.4-.3,42.7-1.4,64-1.6Zm29.3,7.2c0-2.9,3.5-3.5,5.1-1.5,1.5,1.9,.5,7.7,.6,9.9,.1,7.5,.8,14.9,1.5,22.4,.7,7.4,1.1,14.8,1.7,22.2,.2,3.4,2.9,17.1-1,19.1-4.9,2.5-4-10.4-4.1-12.8-.4-7.6-1-15.2-1.7-22.8-1.1-12.2-2.1-24.2-2.1-36.5Z"/><path id="Image-X" class="cls-4" d="M373,251.6c6.7,2.4,13.4,4.9,20,7.4,3.5,1.4,7.1,2.8,10.6,4.2,1.8,.7,9.1,2.4,9.6,4.2,.6,2.5-7.3-.6-8.5-1-3.5-1.1-7-2.4-10.5-3.6-7.8-2.8-15.6-5.7-23.4-8.4-.7-.3-1.5-.5-2.2-.8-8.3,3.7-16.6,7.5-24.9,11.3-4.4,2.1-8.8,4.2-13.2,6.3-3.3,1.6-9.2,6.1-12.8,6-1.4,0-2.3-.3-2.4-2-.2-2.1,3.2-3,4.6-3.7,4.7-2.4,9.4-4.6,14.2-6.9,9.4-4.5,18.9-8.8,28.5-13q.1,0,.2-.1c-5.3-1.8-10.6-3.5-15.9-5.3-3-1-24.3-6.2-23.6-9.1,.9-3.2,19.7,4.3,22.6,5.2,7.1,2.3,14.3,4.6,21.4,7.1,17-7.6,34.2-15.8,52-21.4,1.1-.3,1.8,.8,1.6,1.8-.3,1.3-4.3,2.3-5.4,2.8-4.4,2-8.8,3.9-13.1,5.8-9.5,4.3-19.1,8.5-28.6,12.7-.4,.3-.6,.4-.8,.5Z"/><path id="Fill-117" class="cls-4" d="M310.1,305.1c4.4,.8,7.4,4.9,6.9,9.3-.6,5.9-6.5,8.6-12,7.8-6.2-.9-7.5-6.1-4.5-11.1,.7-1.1,1.4-2.4,2.6-3,.8-.4,1.9,0,2.5-.4,2.5-1.1,1.1-2.9,4.5-2.6m-2-3.8c-5.3,.7-15.1,6.8-14.6,13,.4,.7,1.1,1,1.9,.9-.2,1.3-.1,2.6,.2,4,.5,1.7,1.5,3.1,2.9,4.2,2.8,2.3,6.6,2.8,10,2.4,6.5-.7,11.5-5.2,11.9-11.9,.4-6.6-5.3-13.5-12.3-12.6"/><path id="Fill-119" class="cls-4" d="M333.8,309.3c-2.4,1.3-6.2,3.2-7.5,5.6-1.5,2.5,.1,5.3,3.2,4.1,2.5-1,4-4,6.7-4.9,2.3-.9,3.3-.4,5.7,.4,2.5,.9,4.7,1.7,7.5,1.5,3.4-.3,6.4-2.3,9.8-2.7,2.8-.4,5.2,.7,7.9,1.2,3.1,.5,5.2-.7,8.2-1.3,2-.4,5.5,1.3,7,.7,3.3-1.4-.2-3.2-2-3.8-3.1-1-5-.1-7.9,.7-3.2,.9-4.5,.2-7.6-.6-6.1-1.6-10.8,2.3-16.7,1.6-5.4-.8-8.6-5.5-14.3-2.5"/><path id="Fill-121" class="cls-4" d="M433.9,306.3c5.9,5.5-.7,13.4-7.2,9-2.3-1.6-2.3-4-.5-6.3,1.6-2,5.2-2.8,7.7-2.7Zm-2.1-4.4c-5.5,1.1-10.7,3.6-11.2,9.9-.5,6.2,5.9,9.1,11.2,8.7,12-.9,11.1-20.8,0-18.6Z"/></g><path id="Fill-79" class="cls-2" d="M562.1,96c-4.4,.1-15.3,1.7-16.9,6.9-1.2,4,2.4,3.1,4.4,1.6,2.6-1.9,5-3.1,8.2-3.7,12.5-2.3,24.5,5.8,36.8,6.9,4.7,.4,10.3,.6,14.8-.9,3.2-1.1,3.6-3.4,0-3.8-3.1-.3-6.5,.7-9.7,.6-13,0-24.7-7.8-37.6-7.6"/><g id="Cards" class="cls-3"><path id="Fill-173" class="cls-5" d="M99.5,343.4c-8.4,.1-16.8,.4-25.3,.9-7.9,.5-16.6,.1-24.5,1.7-2.2,.4-5.2,2.4-2.3,4.7,2.1,1.6,9.7-.2,12.2-.4,9.2-.6,18.4-1.2,27.6-1.6,8.7-.3,17.4-.4,26.1-.5,1.3,0,3.5-.4,4.9-.1,1.9,.6,1.5,.7,1.6,3.1,.3,4.4,.2,8.8,.1,13.1-.1,4.2-.2,8.5-.2,12.7,0,3-1,9,.6,11.7,2.2,3.8,4.4-.3,4.6-2.8,.3-4.8,.2-9.7,.2-14.5,0-4.5,0-9-.1-13.5-.1-3.3,.4-9-1.4-11.9-1.8-3-6.1-2.4-9.2-2.5-5.1-.2-10-.2-14.9-.1"/><path id="Fill-171" class="cls-5" d="M45.9,348.8c0,8.5-1,16.9-1.2,25.4-.1,3.9-.4,8.2,.6,12,1,3.9,4.2,4.7,4.5,.4,.7-8.7,.5-17.8,1.1-26.6,.2-3.1,1.5-8.8,.3-11.7-1.1-2.6-5.3-3.1-5.3,.5"/><path id="Fill-175" class="cls-5" d="M124.9,386.2c-14.6,1.9-29.9,1.2-44.7,1.5-7,.2-14.1,.2-21.2,.3-2.5,0-8.7-.9-10.9,.5-3.4,2.2,.3,3.9,2.5,4,14,.3,28.1-.3,42-.8,6.3-.2,12.6-.3,18.8-.8,3.8-.3,8.1-.6,11.8-1.7,.8-.2,2.5-.2,2.7-1.3,.2-.7,0-1.8-1-1.7"/><path id="Fill-177" class="cls-5" d="M64.1,398.5c-4.1,0-16.3-1.9-18,2.1-2.2,5.3,6.5,4.1,8.9,4,5.3-.1,10.7-.2,16-.1,5.3,0,10.5,0,15.7-.2,1.5,0,5.1,.6,5.9-1.2,.7-1.4,.1-2.5-1.1-3.2-3-1.8-10.6-.7-14.1-.9-4.4-.2-8.9-.5-13.3-.5"/><path id="Fill-179" class="cls-5" d="M113.5,399.5c-2.3,.1-7-.8-9.1,.2-2.4,1.2-1.5,3.1,.5,3.9,1.4,.6,7.2,.3,8.6-.4,1.5-.6,3.1-3.9,0-3.7"/><path id="Fill-181" class="cls-6" d="M139,349.6c-2.5,.7-1.7,14.8-1.8,17-.2,6.1-.9,13.8,1.2,19.7,1.3,3.8,3.8,3.2,3.4-.7-.4-3.5-1-6.9-1.3-10.4-.7-7.9-1.5-16.3-.9-24.2,.3,.5,2.6,4.7,3.2,4.4-.2,.1-2.8-6-3.8-5.8"/><path id="Fill-183" class="cls-6" d="M166.9,344.5c-5,.1-10,.2-15.1,.3-4,.1-10.3-.5-13.9,1.1-4.4,2-2.3,6.5,1.8,6.5,3.6,.1,7.5-.7,11.1-.9,9.9-.3,19.8-.4,29.6-.5,8.9-.1,18.2,.9,27.1-.5,1.3,11.7-2.2,23.4-1,35.2,.2,1.8,.1,4.4,2.4,4.8,2.9,.5,3.1-2.4,3.2-4.5,.3-6,.1-11.9,.6-17.9,.4-5.5,1.2-11.2,.5-16.7-.8-6.8-4.1-6.3-9.9-6.6-12-.4-24.2-.5-36.4-.3"/><path id="Fill-185" class="cls-6" d="M150.1,385.9c-2.6,.1-6.8-.7-8.4,1.7-1.7,2.6,.3,4.8,2.8,5.3,2.9,.6,6.8-.2,9.8-.2h9.5c13.6,.1,27.3,.3,40.9-.3,1.9-.1,7.3,.6,8.6-1.3,1.2-1.6,.4-3.1-1.2-3.9-2.5-1.4-7.7-.8-10.5-.9-3.5-.1-6.9-.2-10.4-.2-13.7-.2-27.4-.6-41.1-.2"/><path id="Fill-187" class="cls-6" d="M161.6,397.7c-5.1,.1-10.5-.1-15.6,.6-4.4,.7-5,5-.2,5.5,4.4,.5,9.7-.4,14.1-.7,1.6-.1,3.4,0,4.1-1.7,.9-1.8-.6-3.5-2.4-3.7"/><path id="Fill-189" class="cls-6" d="M200.1,398.1c-2.7,.1-10.7-1.1-12,2-2.2,5.2,8.5,3.2,10.6,3.1,2.6-.1,12.7,1.4,12.7-2.7,0-4-8.8-2.4-11.3-2.4"/><path id="Fill-191" class="cls-5" d="M45.5,423.8c0,9.4-.6,18.9,.3,28.3,.4,3.9,.3,11.3,2.5,14.6,1.6,2.3,3.8,2.2,4.7-.6,.6-1.9-.3-5.6-.5-7.6-.1-1.9-.2-3.8-.3-5.8-.2-5-.2-9.9-.1-14.9,.1-4.3,1.1-9.9,.1-14-.9-3.8-6.7-4.7-6.7,0"/><path id="Fill-193" class="cls-5" d="M140,415.5c-16.3,.4-32.7,0-49,.9-8,.4-16,1.3-24,2.1-3.9,.4-7.9,.9-11.8,1.4-1.2,.1-11,.5-7.3,4.3,1.6,1.6,6.8-.1,8.8-.3,3.9-.5,7.9-.9,11.8-1.3,7.5-.8,15-1.5,22.6-2,17.7-1,35.6-.7,53.3-1.3,4.8-.2,9.6-.3,14.4-.1,1.3,0,10.5,.5,6.5-2.9-1.9-1.6-9.1-.8-11.5-.8-4.6-.2-9.2-.1-13.8,0"/><path id="Wireframy-Stuff" class="cls-5" d="M165.4,465.1h0c-.9,1.3-4.2,1-5.6,1.1-4.4,.3-8.7,.8-13,1.4-8.6,1.3-17.2,2.1-26,2.3-17.3,.4-34.6,0-51.9,1.2-3.8,.3-7.6,.7-11.3,1.4-2.7,.5-7.9,2.3-8.2-2.2-.4-5.3,13-5.3,16.9-5.7,16.5-1.5,33.2-1.2,49.7-1,8,.1,16,.4,23.9-.1,8-.5,16.2-.4,24.1-1.2-1-4-.9-8.9-1.2-12.9-.7-10.4-.5-20.8-1-31.1-.2-4.6,6-5.3,7.9-1.6,1.9,3.7,.7,11.2,.8,15.3,.3,9.6,2.1,20.3,.2,29.8-.7,3.4-3.5,5.1-5.3,3.3Z"/><path id="Fill-199" class="cls-5" d="M175.4,421.7c-2.2,.3-4,2.2-3.1,4.6,1.2,3,4.9,1.8,7.4,1.6,7.8-.6,15.8,.6,23.5-.3,2.1-.3,5.1-1.4,3.2-4.2-1.4-2.1-6.6-1.7-8.7-1.9-7.4-.7-14.8-.5-22.3,.2"/><path id="Fill-201" class="cls-5" d="M188.5,434.8c-3,.2-10,0-11.3,3.5-2.3,6.1,6.6,4,9.3,3.6,3.1-.4,10.6,.7,12.2-2.4,3.1-5.4-7.6-4.8-10.2-4.7"/><path id="Fill-203" class="cls-5" d="M180.8,448.3c-1.4,1.4-1.4,4,0,5.4,1.7,1.7,5.6,1.4,7.9,1.5,3.2,.2,12.4,1.9,14-1.9,2.1-5.1-6.2-5-8.9-5.3-3.3-.3-10.4-2.3-13,.3"/><path id="Fill-205" class="cls-5" d="M68.4,361.2c0,5.5,8.5,5.5,8.5,0,.1-5.5-8.5-5.6-8.5,0"/><path id="Fill-207" class="cls-5" d="M84.7,361.2c0,6.3,9.7,6.2,9.7,0s-9.7-6.3-9.7,0"/><path id="Fill-209" class="cls-5" d="M74.8,369.5c-4.7,1.3-.4,5.3,1.8,6.2,3.5,1.5,8.3,2.5,11.8,.3,1.4-.9,2.5-2,1.5-3.7-1.1-1.8-2.6-1-4.2-.8-2.1,.2-3.8,.2-5.8-.5-1.5-.4-3.4-1.9-5.1-1.5"/><path id="Fill-211" class="cls-5" d="M160.7,361.5c0,3.7,5.7,3.7,5.7,0s-5.7-3.7-5.7,0"/><path id="Fill-213" class="cls-5" d="M173.4,362.1c0,4.1,6.4,4.1,6.4,0s-6.4-4.2-6.4,0"/><path id="Fill-215" class="cls-5" d="M172.9,371c-3.4,.4-13.1,1.4-13.6,5.6-.8,6.4,9.8,1.2,12.2,.7,3.1-.6,5.8-.5,8.9-.3,1.7,.1,3.9,.3,3.8-2.2-.2-4.4-8.3-4.2-11.3-3.8"/><path id="Fill-217" class="cls-5" d="M88.6,429.8c-2.4,.6-5.6,4.9-3.9,7.4,2.7,4.2,4-2.3,5.1-2.9,2.1-1.1,3.8,3,6,.8,3.4-3.3-5-5.9-7.2-5.3"/><path id="eye" class="cls-5" d="M116.5,426.7c-2.9,0-9,4.1-9.4,7.1-.3,1.8,.9,3.5,2.9,3.5,2.6,0,3.5-3.4,5.7-4.1,2.5-.8,2.1,1,4.2,1.9,1.6,.7,3.5,.4,4-1.5,1-3.5-4.5-7-7.4-6.9"/><path id="Fill-221" class="cls-5" d="M94.4,444c-4.6,2.7,3,8.5,5.6,9.2,4,1.1,12-.9,12.9-5.8,.4-1.9-.8-3.7-3-3.3-1.8,.3-2.9,2.5-4.5,3.3-2.2,1.1-4.1,1-6-.6-1.5-1.4-2.3-4.4-5-2.8"/><path id="Fill-223" class="cls-5" d="M97.7,483.9c-4.1,.9-8.3,.3-12.4,1.1-4.2,.8-6.7,2.4-10.7,.8-.2-.1-.4-.2-.6-.2-3-1.3-6.2-1.7-9.4,.4-1.9,1.2-7.6,5.5-6.9,8.1,1.5,5.6,7.9-3.2,9.6-4.1,3.1-1.6,5.3,.5,8.5,1,3.9,.7,7-1.3,10.6-2.1,4.2-.9,9-1.3,13.3-1.8,1.7-.2,8.2,1.1,8.7-1,1.1-3.6-9.1-2.6-10.7-2.2"/><path id="Fill-225" class="cls-5" d="M127.4,495.2c.3,.3,.1,.1,0,0m11.6-11.5c3.5-.4,14.8-2.9,17.1,.8,1.5,2.4-.9,11.1-3.2,12.3-1.8,.9-6.1-.1-8.1-.2-3.7-.1-7.5-.2-11.2-.4-1.2-.1-5.3,.2-6.2-1-1.2-1.3-1.1-8.3-1.4-10,3.3,1,9.6-1.2,13-1.5m7.5-3.6c-4.5,.2-9,.5-13.5,1.1-2.5,.3-5,1.2-7.3,1.7-.7,.1-2-.2-2.9,.2-2.7,1.3-.3,10,.3,12.3,1,3.6,3.5,4.2,7,4.5,4.6,.4,9.3,.3,13.9,.2,4.4-.1,10.4,.9,12.9-3.5,1.6-2.9,3.3-9.6,2-12.8-1.9-4.2-8.7-3.9-12.4-3.7"/><path id="quare" class="cls-6" d="M197.1,497.6q-.2,.4,0,0m1-1.1c-.1,.1-.4,.4,0,0m-10.8-.4c2-.4,4-.7,6-1.1-1.9,2.6-3.9,1.6-7.1,1.3,.4,0,.8-.1,1.1-.2m-9.5-.9c.5-.2,1-.3,1.5-.5,0,.4,.1,.7,.2,1.1-.9-.1-1.7-.2-2.6-.3,.4-.1,.7-.2,.9-.3m-4.4-3.3c0-.7,1-.2,1.6-.3-1.1,1.1-1.7,1.2-1.6,.3m15.8-7.8c.2-.2,.4-.2,.6,0-.3,.1-1.4,.5-.6,0m10.2-1.2s.6,.7,0,0m-.3-.3q.1,.1,0,0m-1.3-.1c2.1,.3,1.9,2.8,0,0m-24.5-.2c-.4,.4-.3,0,0,0m8-5.2c-3.5,.2-10.1,0-13,1.9-3.9,2.5-1.8,11-1.5,14.7,.5,5.5,3.1,7.1,8.3,7.6,6.2,.7,12.5,.8,18.7,.7,5.6-.1,8.8-2.1,9.8-8,.3-1.8,1.1-4.6,1.1-6.3,0-1.2-.6-1.7-.8-2.8-1.3-5.8-3.4-6.5-9.4-6.7-4.4-.2-8.9-1.3-13.2-1.1"/></g><g id="Profile" class="cls-3"><path id="face-3" class="cls-4" d="M369,343.9c9,.2,19.2,5.2,17.8,15.7-1,7.7-7.7,14-15.5,14.6-8.3,.6-17.1-5.8-18.3-14.3-1.2-9.5,7.2-16.2,16-16m-4.4-4.3c-3.6,.6-7.1,2.5-10.3,4.2-1.2,.7-7.5,4.7-2.6,5.7-11.8,18.9,15.9,36.5,31.5,24.2,7-5.5,10.7-16,6.2-24.3-4.8-8.4-15.8-11.1-24.8-9.8"/><path id="Fill-231" class="cls-4" d="M362.5,355.8c0,3.5,5.5,3.5,5.5,0s-5.5-3.6-5.5,0"/><path id="Fill-233" class="cls-4" d="M372.7,356.3c0,3.8,6,3.8,6,0s-6-3.8-6,0"/><path id="Fill-235" class="cls-4" d="M365.8,363.9c-.8,2.9,8.3,4.4,8.7,1,.1-1.5-8.2-3-8.7-1"/><path id="Fill-237" class="cls-4" d="M392.6,362.1c10.5-1.3,21.4-.7,32-.4,2.6,.1,5.3,.2,7.9,.2,1.7,0,5.3,.8,6.8,0,6-3.2-5.8-4.8-7.5-4.9-10.5-.9-26.8-1.2-37.3-.8-3.1,.2-3.8,6.2-1.9,5.9"/><path id="Hola-:_" class="cls-7" d="M440,414.5c.1-11,.5-22.1,1.3-33.1,.3-4.5,.8-9,1.1-13.4,.2-2.1,.9-5.1-.3-6.9-1.3-1.9-4.1-2.3-5.8-.6-2,2.6-1.4,7-1.7,10.2-.4,4.9-.9,9.7-1.1,14.6-.4,9.5-.6,19.1,.2,28.5,.4,4.5,1.1,8.8,2.2,13.1,.5,2,4.2,10.8,3.4,12-1.2,1.9-10.2,1.2-12.2,1.2-5,.1-10,.2-15.1,.3-4.3,.1-8.6,.1-12.9,.2-1.7,0-11.7-.3-9.5,2.2-24.9,1.7-50.3-1.2-75-2.2-1.3-.1-3.3-.4-5.2-.5-.2-.9-.4-1.7-.5-2.3-.3-4-.4-8-.8-11.9-.6-7.3-1.9-14.5-2.6-21.7-.7-7.3-.7-14.5-1.1-21.8-.1-1.2-.2-11.5-2.8-13.9,1.2,.5,3.2,.5,4.3,.4,9.2-.7,18.3-2.3,27.4-3.7,2.7-.5,8.6-.2,10.7-1.5,1.9-1.1,2.6-5.1-.6-4.8-9.1,1-18.1,2.5-27.1,4-2.4,.4-4.8,.8-7.2,1.3-1.6,.3-5.8,.3-7.1,1.2-1.5,1.2-1.7,2-1.2,2.5-.7-.2-1.6,.1-2.6,1.1-1.9,2.5-.1,8.7,.1,11.7,.3,3.5,.4,7.1,.6,10.7,.3,6.9,1,13.7,2.1,20.5,1.2,7.6,2.3,15.3,3.5,22.9,.3,2,.7,3.9,1.3,5.8-3.3,1.7-1.1,4.4,1.6,4.9h.1c.8,2,2,3.9,2.9,1.2,.1-.2,.1-.5,.1-.8,6.9,.8,14.4,.3,21.2,.6,14.6,.6,29.3,1.5,44,1,5.8-.2,11.6-.7,17.4-1.5,3.4-.5,6.7-1,10.1-1.7,.2-.1,.6-.1,1-.2h.2c5.1-.1,10.1-.2,15.2-.4,4.3-.2,8.5-.3,12.8-.7,2.6-.2,8.2-.2,9.8-2.9,1.5-2.4-1-8.6-1.3-11.3-.7-4.7-1-9.5-.9-14.3"/><path id="Fill-241" class="cls-4" d="M388.6,382.6c-4.1,.3-7.8,2.3-11.9,2.3-3.4,0-6.8-1-10.3-.9-4.1,.2-6.3,2.8-9.8,3.7-2.8,.7-4.6-1.5-7.1-2.4-3.1-1.2-5.5-.6-8.1,1.2-2,1.3-6.6,4.4-6.5,7.1,.1,8.2,9.7-3.1,11.6-3.3,2.6-.2,5.4,2.7,8.2,2.9,3.6,.2,5.9-2.1,9.3-3,3.4-.9,7,.2,10.4,.5,3.9,.4,7.2-.5,10.9-1.4,3.6-.9,6.7-.8,10.4-.1,2.5,.5,8.6,3.4,9.7-.3,1.4-5.1-14-6.5-16.8-6.3"/><path id="Fill-243" class="cls-4" d="M389.8,398.3c-8.3,.8-16.7,1.5-25,1.7-3.6,.1-17.5-1.5-16.3,3.1,1.1,3.9,20,1.5,23.8,1.2,4.3-.3,8.5-.7,12.7-1.3,1.5-.2,5.1,0,6.2-1.3,1-1.1,.5-3.6-1.4-3.4"/><path id="have-a-nice-day-:_" class="cls-4" d="M332.5,419.2q-.2,.1,0,0m1.7,0c2.1-.1,1.6-1.2,3.7-.6,1,.3,1.1-.1,1.8,.8,1.4,1.8,.1,5.6-1.3,7.1-5.3,5.3-11.6-7.1-4.2-7.3m0-5.2c-14.4,.5-8.4,22.7,4.2,18.2,5.2-1.9,8.4-10.3,5.4-15.1-1.5-2.3-3.4-2.7-5.9-2.9-.6,0-1.3,.8-1.7,.8-.8-.1-.7-1.1-2-1"/><path id="espero" class="cls-4" d="M368.7,420c-.3-.1,4.5,1.3,4,.8,1.1,1.2-.4,3.9-1.7,4.4-3,1.1-4.8-3.7-2.3-5.2m2.1-6c-4.5,.6-8,2.5-8.6,7.5-.6,4.6,2.6,9.3,7.5,9.4,10.7,.2,11.1-18.3,1.1-16.9"/><path id="hola" class="cls-4" d="M419.9,420.2c.6,8.2-7.9,.7,0,0m-3.7-8.8c-.7,1.3-.1,2.6,1,3.4-10.1,2.1-7.8,17.3,2.5,15,5.2-1.1,6.2-6.6,5.4-11.1-.4-2.2-5.7-12.7-8.9-7.3"/></g><path id="Fill-251" class="cls-1" d="M440,419.3c-3,.5-10.1,3.8-10,7.4,.1,5.5,6.1-.5,7.5-1.3,7.2-4.4,16.5,1.3,24,2.5,3.4,.6,10.2,1.6,13.2-.7,5.4-4.1-7.1-3.1-8.7-3.2-8.7-1-17.3-6.3-26-4.7"/><g id="List" class="cls-3"><path id="Fill-253" class="cls-6" d="M581.6,380.3c0,5.7-.3,11.5,.8,17.1,.3,1.7,.6,5,2.4,5.8,1.8,.9,3.5-.1,4-2,.5-2.1-.6-5.4-.7-7.6-.2-3.1-.2-6.2-.2-9.2,0-2.2,.7-5.8-1.9-7-2.1-.8-4.4,.8-4.4,2.9"/><path id="Fill-255" class="cls-6" d="M671.4,371.3c-18.9,1.9-37.9,2.3-56.8,3.3-8.8,.4-19.3-.2-27.5,3.2-1.5,.6-7,4.1-2.6,5.5,1.4,.4,2.8-1,3.9-1.5,1.9-.8,4.1-1.1,6.1-1.4,17.2-2.8,35.2-2.3,52.5-3.6,4.4-.3,8.9-.7,13.3-1.1,3.2-.3,9.8-2.6,12.7-1.4,5,2,4.9,15,5,19.4,.1,2.3-2.2,10.6,2.3,9.7,3.6-.7,2.3-9.3,2-11.6-.8-6.1-2-21.4-10.9-20.5"/><path id="Fill-257" class="cls-6" d="M678.3,403.1c-16.3,1.5-33.1,0-49.5,.6-8.6,.3-17.2,.8-25.8,1.1-3.7,.1-7.4,.1-11.2,.2-1.7,0-9.8,1.1-4.8,4.6,2.2,1.6,9.3,.3,11.8,.3,3.8,0,7.6-.2,11.5-.4,8.9-.3,17.7-.8,26.6-1.1,8.5-.2,16.9-.3,25.4-.5,4.2-.1,8.5-.2,12.7-.9,.9-.1,4-.2,4.7-1.3,.5-.9,.1-2.7-1.4-2.6"/><path id="Fill-259" class="cls-6" d="M598,390.9q-.1,.2,0,0m7.1-2.2q.2,.1,0,0m-.4,0c3.8,3.9-2.1,8.5-5.6,4.7-3.8-4,3.2-4.7,5.6-4.7m-4-5.9c-13.1,2.3-8.5,19.8,3.8,17.3,5.4-1.1,8.5-6.5,6.6-11.7-.7-2-2.3-4.3-4.5-4.9-1.1-.3-2.1,.2-3.1,.1-1-.2-1.6-1-2.8-.8"/><path id="Fill-261" class="cls-6" d="M651,387.7c-7.9,0-15.8,.4-23.8,.5-2.4,0-8.7-1-8.7,2.8,0,4.1,6.9,2.6,9.3,2.5,7.9-.2,15.7-.5,23.6-1.3,2-.2,8.8,.1,8.8-2.6-.1-2.7-7.7-1.9-9.2-1.9"/><path id="Fill-263" class="cls-5" d="M669.9,414.4c-19.6,.5-39.2,.7-58.7,1.7-7.3,.4-14.6,.7-22,.7-1.4,0-4.3-.5-5.6,.3-3.6,2.4,.5,4.5,2.9,4.6,16.1,.9,32.4-1.3,48.5-1.8,9.4-.3,18.8-.4,28.2-.9,2.6-.1,5.1-.3,7.7-.5,1.5-.1,5.4,.2,6.6-.7,5.1-3.7-5.9-3.4-7.6-3.4"/><path id="Fill-265" class="cls-5" d="M580,424c-.2,5.1-.2,10.1,.5,15.1,.3,2,.4,4.2,2.7,4.7,2.1,.5,3.2-1.1,3.6-2.9,1.1-4.3,.1-10.6,.1-15.1,0-2.2,0-4.7-2.8-5.2-2.1-.3-4,1.2-4.1,3.4"/><path id="Fill-267" class="cls-5" d="M690.6,436.2c-31.7,1.7-63.4,3.1-95.1,4.5-2.5,.1-21.7-.1-15,6.6,2.1,2.1,7.5,.7,10.1,.6,4-.2,8.1-.3,12.1-.6,16-.8,32-1,48-1.9,8.8-.5,17.6-1.3,26.3-2.3,4.2-.5,9.3-.4,13.2-2.1,2.1-.9,4.3-5,.4-4.8"/><path id="Fill-269" class="cls-5" d="M672.4,410.5c-2.4,2.4-1.2,7.1-1,10.1,.2,4.1,.6,8.2,1.1,12.2,.3,2.6,.2,6.7,1.6,9,1.6,2.7,5.3,2.4,6.8-.2,1.3-2.3,.7-7.1,.6-9.6,0-3.5-.3-7-.5-10.5-.2-2.9,.5-7.6-1.1-10.1-1.7-2.5-5.2-3.2-7.5-.9"/><path id="Fill-271" class="cls-5" d="M599.9,429.1q-.3,.2,0,0m5.6-.7c5.3,1.1-3.2,7.2-5.9,3-.4-.7-.6-1.5,0-2s1,.4,1.6,.2c1-.5,3.3-1.2,4.3-1.2m-.7-5c-3.6,.3-8.5,.5-10.3,4.1-2.4,4.8,1.7,9.6,6.4,10.3,4.5,.7,11.3-1.8,11.7-7.1,.3-4.3-3.7-7.7-7.8-7.3"/><path id="Fill-273" class="cls-5" d="M634.8,425.9c-3.7,.1-11-1-14.3,.8-3.2,1.8-1.8,5,1.1,5.7,1.9,.5,5.1-.3,7.1-.4,2.6-.1,5.3-.1,7.9-.2,4.5-.1,8.9,0,13.3,0s9.2,.1,13.7-.2c5.7-.4,5.6-4.7,0-5.3-9.4-.8-19.2-.5-28.8-.4"/><path id="Fill-275" class="cls-6" d="M625.3,474.1c0,2,1.8,0,1.8,0,0,0-1.8-2.1-1.8,0"/><path id="Fill-277" class="cls-6" d="M584.3,457.6c.1,5.9,.2,11.9,.4,17.8,.1,1.9-.5,5.5,1.8,6.5,2.5,1.1,3.3-1.6,3.6-3.4,.9-5.7,0-12.2-.1-18,0-1.9,.4-4.6-1.8-5.6-1.7-.7-3.9,.8-3.9,2.7"/><path id="Fill-279" class="cls-6" d="M681.9,457.7q.2,.4,0,0m.2,0c.2,0,.7,.2,0,0m-47.9-4.8c-9.1,.1-18.2,.3-27.3,.6-3.9,.2-7.8,.3-11.7,.7-2.7,.3-9.6,.4-11.3,2.6-3.7,4.6,4.1,3.4,5.8,3,3.1-.7,6.2-.9,9.3-1.1,6.8-.4,13.5-.5,20.3-.7,18.4-.4,36.8-.3,55.1-.4,1.8,0,5-.7,6.6,0s1.6,2.5,1.7,4.6c.2,2.7-1.6,8-.2,10.3,2.1,3.6,5.2,.5,5.7-2.1,.7-3.6-.4-7.9-1.4-11.4-1.4-4.9-3.4-5-8.1-5.4-5.5-.4-11-.7-16.5-.8-9.3-.1-18.7-.1-28,.1"/><path id="Fill-281" class="cls-6" d="M670.2,477.4c-19.8,2.3-40.1,.9-60,1-4.8,0-9.7,.1-14.5,.3-2.6,.1-8.6-.6-10.3,1.4-3.7,4.1,3,4.8,5.4,4.6,4.9-.3,9.8-.5,14.7-.5,17.3-.1,34.7,.7,52-.2,7.2-.4,14.3-1.6,21.4-3,1.6-.3,12.3-2.4,6.2-4.8-3.6-1.5-11.1,.8-14.9,1.2"/><path id="Fill-284" class="cls-6" d="M612.5,469.8q-.1,.2,0,0m-.1,0c-.1,.1-.2,.4,0,0m-1.3-1.6c.1,0,.2,.2,0,0m0,0c.5,.6,.8,1.2,1,1.9-4.2,1.1-5.7-2.2-1-1.9m-.3-.2s.6,.3,0,0m-6.7-4.9c-2.7,3.3-4.8,7.1-1.5,10.9,3,3.4,8.9,3.8,12.7,1.6,3.9-2.3,3.5-7.2,.8-10.4-1.7-2.1-3.1-2-5.7-2.3-1.7-.3-4.8-1.6-6.3,.2"/><path id="Fill-286" class="cls-6" d="M631.5,469.2c0,4.4,19,2.5,22.4,2.5,2.8,0,19.9,1.6,18.7-3-1-3.7-17.9-1.9-21.4-1.9-3.2,0-19.7-2.1-19.7,2.4"/></g><g id="Checkmark_" class="cls-3"><path id="Fill-292" class="cls-4" d="M383.7,510.4c9.5,1.4,19.4,5.9,19.3,16.9-.1,9.3-7.9,19.2-17.9,18.6-9-.5-17.5-10.4-18.6-18.8-.6-4.3,.5-9.1,3.1-12.7,3.3-4.7,8.7-4.7,14.1-4m-4.5-6c-6.9,0-11.9,2.5-16.2,7.7-1.5,1.9-3.3,3.9-4.5,6-1.1,2-.9,7.1,2.8,4.7-.9,9.8,4.8,19.3,13.1,24.3,9,5.5,19.1,4.4,26.5-3.3,6.8-7,9.2-18.8,4.2-27.5-4.9-8.5-16.4-12-25.9-11.9"/><path id="Fill-294" class="cls-4" d="M399.8,501.7c-4.4,3.3-8.4,7.5-11.7,11.8-3.3,4.2-5.4,9.5-9.3,13.1-2-2.2-4.3-8-8.2-5.7-3.3,1.9-1.2,5.2,.4,7.4,4.1,5.6,8.7,7.8,14,2.3,4.8-5,7.5-11.7,12-17,2-2.3,5-4.6,6.6-7.2,1.3-2.3-.5-7.1-3.8-4.7"/></g><g id="Whiteboard-Stuff" class="cls-3"><path id="Wireframy-Stuff-2" class="cls-6" d="M520.8,181h.4c3.7-.2,7.4-.1,11.1-.2,7.5-.2,15.4,.2,22.8-.6,1.5-.2,2.1,1.8,1.4,2.8-.8,1.1-3.2,1.1-4.4,1.2-3.3,.5-6.7,.7-10,.8-3.5,.2-7,.3-10.6,.4-3.1,.1-9.8,1.4-12.6,.1-2.2-1-2.1-2.1-1.3-3-.5-1.2-.5-3.2-.6-4.1-.5-3.9-.8-7.8-.8-11.8,0-7.8,0-15.9,2.2-23.4-.9-.4-1.4-.9-1.4-1.7,0-4.8,17.5-3.6,21-3.7,4.4-.1,8.7-.1,13.1-.1,2.9,0,6.8-.6,9.6,.1,5.6,1.3,5.2,10.9,5.3,15.5,.2,8.3,.1,17-.6,25.3-.2,2.9-2.3,6.5-4.7,2.5-1.3-2.2-.7-7.3-.7-9.8,0-8.6,1.3-17.5,.1-26.1-.4-2.8-.3-3-3.2-2.9-2.3,0-4.5,.1-6.8,.2-4.5-.1-9.1,0-13.8,.1-1.8,.1-8.1,1.2-13,1.2v.1c.1,3.3-1.6,7.4-1.8,10.9-.5,8.4,.1,17-.7,25.4,.1,.3,0,.5,0,.8Z"/><path id="Wireframy-Stuff-3" class="cls-6" d="M587.1,183.5c-.6-.6-1.1-1.4-1.4-2.5-1.2-3.8-1.3-8-1.4-12-.2-8.5-.1-17.1-.1-25.6-.8-1-.3-2.2,.7-3.1,2.6-2.2,10.1-1.7,13.4-1.8,4.8-.3,9.5-.3,14.3-.3s10.1,.1,15.1,.2c1.9,.1,14.9,.4,9.1,3.5-.3,.2-.7,.3-1.1,.5,.2,1.4,.3,2.9,.2,3.6-.2,4.5-.4,9.1-.6,13.6-.2,5.1-.4,10.1-.6,15.2-.1,2.7,.8,8.9-1.3,10.8-1.4,1.3-2.4,1-3.1,.2-5.1,1.5-16.8,.5-18.9,.5-3.8,0-24.6,2.5-24.6-2,0-.3,.1-.6,.3-.8Zm3.4-1.6c5.8-1.2,16.6-.4,18.9-.4,4.2,0,8.5,0,12.7,.2,1.3,.1,4.5-.2,7.1,.1v-.6c-.2-4.6,0-9.2,.2-13.7,.1-4.6,.4-9.2,.6-13.8,.1-2.4-.5-7.3,.1-10.7-3.1-.1-6.3-.4-8.4-.4-4.9,0-9.7-.1-14.6,0-5.3,.1-10.6,.2-15.8,.9-.3,0-.6,.1-1,.2,.8,3.3-.2,8.7-.2,11.7,0,8.6,.3,17.2,.5,25.8-.1,.2-.1,.5-.1,.7Z"/><path id="Fill-135" class="cls-7" d="M538.3,185.1c-3.1,1.8-1.4,9.1-.4,11.7,1.8,4.2,5.4,7.4,9.3,9.6,7.9,4.4,19.2,3.2,25.2,10.8,.1,.1,2.1,2.1,2.6-.5,.4-2.2-3.5-5.5-5-6.6-4.2-3.1-9.7-4.1-14.6-5.6-5.2-1.6-11-4.7-13.2-10.1-.6-2,.8-12.1-3.9-9.3"/><path id="Fill-137" class="cls-7" d="M609.8,188.6c-2.9,.8-1,4.7-1,6.7,0,2.5-.8,5-2.3,7-3.9,5-11.4,5.7-17,7.2-4.1,1-13.9,3.3-14.3,8.8-.4,6.2,8.2-1.3,9-1.7,8.1-3,18.6-3.5,24.8-10.1,2.6-2.7,4.1-6.3,4.3-10,.1-2,.2-8.9-3.5-7.9"/><path id="Fill-139" class="cls-4" d="M571.4,222.6c11.9-3.1,23,5.2,24.4,17.2,1.5,12.7-8.1,22.9-20.7,23.5-11.1,.5-24.5-7.5-24.6-19.7,0-11.5,11-18.4,20.9-21Zm5.7,8.6c-2,1.2-2.4-1.9-3.9-2.3s-3.8,1.1-5,2c-2.1,1.5-7.7,10.3-10.5,5.5-8.4,14.4,12.5,25.2,24.3,19.8,13-6,10.5-27.9-4.9-28,.8,.8,1.3,2.2,0,3Z"/><path id="Fill-141" class="cls-4" d="M566.3,239.8c0,2.6,4.2,2.6,4.2,0-.1-2.6-4.2-2.7-4.2,0"/><path id="Fill-143" class="cls-4" d="M573.6,239.3c0,3.2,5.1,3.2,5.1,0s-5.1-3.3-5.1,0"/><path id="Fill-145" class="cls-4" d="M568.4,246.8c-4.2,2.5,7.7,7.3,8.2,2.3,.2-2.1-1.9-1.6-3.3-1.7-1.3-.1-3.7-1.3-4.9-.6"/><path id="Fill-147" class="cls-7" d="M566.6,264.2c.2,6.3,.1,12.5,1.3,18.7,.2,1.2,.4,5.4,1.3,6.3,2.3,2.1,2.3-2,2.4-3.5,.3-5.6-.3-11.4-.4-17.1,0-1.2,.3-3.7-.3-4.9-.9-1.9-4.4-2.5-4.3,.5"/><path id="Fill-149" class="cls-7" d="M562.1,259.1c-9.1,10.3-21.7,9.5-34.4,10.4-6.7,.5-13.5,1.4-18.9,5.8-2.5,2-4.7,4.5-6.1,7.4-.6,1.3-3.6,8.5,.9,6.8,1.6-.6,3.2-5.4,4.2-6.8,2-2.7,4.5-4.9,7.5-6.4,5.8-2.8,12.8-2.7,19.2-3.1,6.6-.4,13.7-.7,19.8-3.6,2.9-1.4,5.6-3,7.9-5.2,.8-.8,2.6-2.1,2.7-3.3,.2-1.4-1.1-3.9-2.8-2"/><path id="Fill-151" class="cls-6" d="M516,290.6c-8.6,.3-17.1,.6-25.7,1.2-1.8,.1-7.6-.2-6.1,3.4,1.2,2.9,8.3,1,10.7,.8,8.9-.5,17.9-.7,26.8-1.5,2-.2,11-.1,7.3-3.7-1.8-1.7-10.5-.3-13-.2"/><path id="Fill-153" class="cls-6" d="M478.7,294.7c-2.7,3.6-1.5,12.2-1.3,16.5,.2,4.1-.6,11.7,4.8,12.3-1.7-.2,1.3,.1,1.8,.1,1.1,.1,2.2,.1,3.3,.1,2.5,0,5.1,0,7.6-.1,5.7-.1,11.5-.3,17.2-.6,2.4-.1,15.5,0,16-2.5,.7-3.2-11.9-1.4-14.1-1.3-5.5,.3-10.9,.3-16.4,.4-2.7,0-5.4,.1-8.1,0-1.1,0-5.6,.4-6.2-.3-.6-.6-.1-6.5-.1-7.4,0-2.9,0-5.8,.1-8.8,.1-2,1.1-5.7,.3-7.5-1-1.7-3.4-2.4-4.9-.9"/><path id="Fill-155" class="cls-6" d="M522.9,294.9c.2,6.5,.2,13.1,1.7,19.5,.5,2.1,1.2,6.5,3.4,7.6s4.2-.5,4.3-2.7c.2-2.8-1.3-6.4-1.6-9.3-.4-3.3-.6-6.7-.7-10-.1-2.5,.7-6.3-1.7-7.9-2.2-1.5-5.5,0-5.4,2.8"/><path id="Fill-157" class="cls-5" d="M540,293.3c-2.7,2.7-1.5,11.1-1.1,14.5,.2,2.5,3,14.8,7.1,8.4,1.8-2.8-.5-10.3-.5-13.7,0-2.1,.8-4.8,.4-6.8-.5-2.7-3.5-4.8-5.9-2.4"/><path id="Wireframy-Stuff-4" class="cls-5" d="M602.7,315.2c.6,.6,.8,1.5,.5,2.4-.9,2.1-4.3,1.7-6.1,1.8-6.1,.5-12.3,.9-18.4,.9-5.9,.1-11.9-.1-17.8,0-4.9,0-10.1,1.1-15,.8-2-.1-4.2-.8-3.7-3.4,.5-2.3,2.8-2.4,4.7-2.6,5.8-.6,11.6-.8,17.4-.8,12.2,0,24.5,0,36.7-.1,.5,0,1,.2,1.4,.5-.6-.8-.3-1.9-.5-3-.3-3-.5-6-1.1-9-.5-2.4-.8-6.5-3-8.1-2.4-1.7-7.9-1.1-10.8-1.2-7.9-.2-15.8,.4-23.6,1.1-3.6,.3-7.2,.6-10.7,1.2-2,.4-7.7,3.2-9.3,1.5-3.8-4.3,12.8-6,15.1-6.3,8-.8,16-1.4,24.1-1.5,5.4,0,14.8-.5,18.8,4,2.4,2.7,3.2,7.1,4.2,10.4,.7,2.6,2.7,7.2,1.3,9.9-.6,1.2-1.6,2.2-3.2,1.8-.5,0-.7-.1-1-.3Z"/><path id="Line" class="cls-7" d="M643.7,281.4q.4,.4,0,0m-54.2-26.5c-4.9,2.9,4.1,11.3,6.4,12.6,5.2,2.9,12.3,3.4,18,4.2,7.3,1,15.2,1.4,22.3,3.8,3,1,4.9,2.6,6.8,5.1,1,1.2,3.4,6.6,5.6,5.3,4.4-2.5-7.4-13.2-10-14.4-5.9-2.6-12.9-3.3-19.2-4.4-5.9-.9-11.9-1.6-17.6-3.3-3.2-.9-5.4-2.4-7.2-5.2-1.2-1.8-2.1-5.5-5.1-3.7"/><path id="Wireframy-Stuff-5" class="cls-6" d="M615.6,316.7c-1.5-2.8-2.1-8.2-2.3-9.2-.6-4.6-.6-9.1-.5-13.7,0-2.5,2.9-3.7,4.8-2.3,2.5-1,6.7-1.2,9-1.4,3.7-.4,7.5-.5,11.2-.7,8.7-.5,17.5-1.5,26.2-1.7,2.6-.1,6.1-.3,8.2,1.6,2.4,2.2,2.9,7.7,3.6,10.6,.8,3.2,1.7,6.5,2,9.7,.1,.8,.3,2.1,.2,3.3,1.1,.1,1.7,1.2,1.6,2.4-.2,2.1-3.2,2.4-4.9,2.8-5.8,1.1-12,.9-17.8,1-12.3,.3-25.4,2.3-37.6,1.1-2-.1-4.2-.9-3.7-3.5Zm4.4-2.5h1.4c6.2-.1,12.3-.3,18.5-.5,6.3-.2,12.6-.5,18.9-.6,5-.1,10.2,.4,15.2,.2-1.1-2.8-.9-7.3-1.5-10.2s-.8-6.4-2-9.1c-1.3-3.1-2.5-2.4-5.9-2.1-3.5,.2-7.1,.6-10.6,.9-7.8,.6-15.5,1-23.3,1.6-4,.3-7.9,1.4-11.8,1.9-.1,1.4-.3,2.8-.2,3.8,.1,3,.4,6,.6,9,.1,1.1,.6,3.2,.7,5.1Z"/></g></g></svg>