<?xml version="1.0" encoding="utf-8"?>
<!-- Generator: Adobe Illustrator 26.5.0, SVG Export Plug-In . SVG Version: 6.00 Build 0)  -->
<svg version="1.1" id="Layer_1" xmlns="http://www.w3.org/2000/svg" xmlns:xlink="http://www.w3.org/1999/xlink" x="0px" y="0px"
	 viewBox="0 0 740 680" style="enable-background:new 0 0 740 680;" xml:space="preserve">
<style type="text/css">
	.st0{fill-rule:evenodd;clip-rule:evenodd;fill:#FFFFFF;}
	.st1{opacity:0.5;}
	.st2{fill-rule:evenodd;clip-rule:evenodd;fill:#58838C;}
	.st3{fill-rule:evenodd;clip-rule:evenodd;fill:#D97179;}
	.st4{fill-rule:evenodd;clip-rule:evenodd;fill:#D9B8B8;}
	.st5{opacity:0.5;fill-rule:evenodd;clip-rule:evenodd;fill:#D97179;enable-background:new    ;}
	.st6{fill-rule:evenodd;clip-rule:evenodd;fill:#C1DEE2;}
	.st7{opacity:0.5;fill-rule:evenodd;clip-rule:evenodd;fill:#C1DEE2;enable-background:new    ;}
	.st8{fill:#58838C;}
	.st9{fill:#D97179;}
	.st10{fill:#D9B8B8;}
	.st11{fill:#F0F2F2;}
	.st12{fill:#D6D6D6;}
	.st13{fill:#F4F4F4;}
	.st14{fill:#BA9191;}
	.st15{fill:#AD4B57;}
	.st16{fill:#46686D;}
</style>
<g id="Scene_Whiteboard">
	<path id="Background-Shape" class="st0" d="M53.8,519.9c16.3-84,181.3-36.1,289.5-62.1s236.1-146.9,320.8-87.6
		s-5.4,202.4-199.7,234.7C270.2,637.1,37.5,603.8,53.8,519.9L53.8,519.9z"/>
	<g id="Cells" class="st1">
		<path id="Fill-5" class="st2" d="M96.9,127.7c-1.6,1.6-1,7.2-1,9.2c-0.1,3.2,0.1,6.4,0.4,9.6c0.2,2.1,1.2,22.6,4,21
			c1.6-0.9,0.6-6.8,0.6-8.7c0-4.2-0.2-8.3-0.5-12.5c-0.3-3.9-0.4-7.7-0.3-11.5C100.3,133.9,101.1,123.4,96.9,127.7"/>
		<path id="Fill-7" class="st2" d="M165.4,125.1c-13.5,0.1-27,0.8-40.5,1.2c-6.5,0.2-13,0.4-19.5,0.8c-2.2,0.1-7-0.6-8.8,0.6
			c-4.1,2.6,2.5,3.3,4.3,3.2c26.7-1,53.5-2.2,80.2-2.3c13.1,0,26.2,0.3,39.4,0.3c5,0,10.6-2.2,11.8,3.6c1.4,6.6-0.2,13.9-0.7,20.5
			c-0.3,4.4-0.2,8.7,0,13.2c0.1,2.8-0.2,6,0.3,8.8c0.5,2.7,2.4,4.3,4.2,1.3c1.1-1.8,0.5-6.2,0.6-8.3c0.1-2.8,0-5.6,0-8.4
			c0-6.8,1-13.6,0.8-20.4c-0.1-4.4-0.3-12.4-5.9-13.4c-6.1-1.2-13.6,0-19.9-0.1C196.3,125.5,180.9,125,165.4,125.1"/>
		<path id="Fill-9" class="st2" d="M128.2,167.8c-5.1,0-10.2,0-15.3,0.1c-4.4,0.1-11.3-0.8-15.3,0.7c-2.8,1.1-3.5,4.2,0,5
			c3.8,0.9,9.6-0.6,13.7-0.6c20.2-0.4,40.5-0.8,60.7,0.5c18.9,1.2,38.1,2.4,57,1.1c1.6-0.1,9.7-0.4,6-3.5
			c-2.2-1.8-10.9-0.6-13.7-0.7c-9.9-0.3-19.8-0.4-29.7-0.7c-9.8-0.4-19.5-1.5-29.2-1.7C150.9,167.6,139.5,167.8,128.2,167.8"/>
		<path id="face" class="st2" d="M123.1,138.8c7.9,0.3,15.8,11.9,7.8,17.4c-7.5,5.2-21.7-0.5-17.5-10.6c-0.6,1.5,0.8-1.6,0.8-1.6
			c0.8-0.9,2.2-2,3.2-2.7c1.1-0.8,2.3-1.8,3.7-2.2C121.9,138.8,121.8,139.8,123.1,138.8 M119.2,134.6c-3.7,1.5-5.4,3.1-8,6.1
			c-1.8,2.1-4,3.1-4,5.9c0,0.6,0.8,1.3,0.9,1.9c0.2,0.8,0,1.9,0.1,2.7c1.5,8.9,12.2,12,20,10.3c6.8-1.5,11.9-8,10.3-15.1
			C137.1,139.2,126.4,131.8,119.2,134.6"/>
		<path id="Fill-13" class="st2" d="M115.9,147.1c0,3.2,5.1,3.2,5.1,0S115.9,143.8,115.9,147.1"/>
		<path id="Fill-15" class="st2" d="M122.3,146.5c0,2.6,4,2.6,4,0S122.3,143.9,122.3,146.5"/>
		<path id="Fill-17" class="st2" d="M123.5,151.8c-1.3,0.5-2.9-0.5-4,0.1c-1.9,1.2,0,2.3,1,2.8C125.1,156.9,125.9,150.9,123.5,151.8
			"/>
		<path id="Fill-19" class="st2" d="M192.8,144.6C192.7,144.7,192.2,144.9,192.8,144.6 M173.1,141.7c-3.4,0.8-6.3,3.9-10,3.5
			c-2.8-0.3-4.7-3.1-7.5-3.5c-3.6-0.5-13.3,7.6-8.2,9c3,0.8,4.6-4.6,7.3-4.9c2.1-0.2,4.9,2.3,7.1,2.7c4,0.7,6.8-1.5,10.3-3
			c3.8-1.6,6-0.2,9.4,1.6c2.6,1.4,5.1,2.3,8.1,1.7c2.8-0.5,6.4-3.4,9.2-3.1c2.8,0.3,4.8,3.2,7.7,3.5c1.2,0.1,2.9,0.5,2.7-1.3
			c-0.2-1.5-1.8-1.2-2.8-1.7c-2.6-1.4-5.1-3.8-8.3-3.6c-2.4,0.2-4.6,1.8-6.8,2.6C184.2,147.9,180.2,140.1,173.1,141.7"/>
		<path id="Fill-21" class="st2" d="M179.1,188.1c-13.9,0.1-27.8,0.3-41.7,1.4c-3.3,0.3-36.8,3.5-36.7,3.7c0.1,0.4,4.4,1.1,4.4,1.2
			c-0.3-0.7-1-1-2-0.9c31.8,0,63.5-2.8,95.3-2.3c8,0.1,16,0.1,24,0.3c2,0.1,6.9,1.5,8.5,0.6c4.1-2.4-3.4-2.6-4.6-2.7
			C210.7,188.1,194.8,188,179.1,188.1"/>
		<path id="Fill-23" class="st2" d="M96.6,194.9c-2.1,2.1-0.2,9.6-0.1,12.4c0.1,4.1,0,8.2,0.4,12.2c0.4,4.6,1,9.6,2.3,14.1
			c0.7,2.5,3,6.4,4,1.9c0.7-3.2-0.3-7.5-0.7-10.8c-0.6-4.4-0.7-8.7-0.7-13.1c0-3.8-0.1-7.7-0.4-11.5
			C101.2,198.1,100.2,191.2,96.6,194.9"/>
		<path id="Fill-25" class="st2" d="M148.8,233c-9.9,0.2-19.7,0.4-29.6,1c-4,0.3-8.1,0.6-12.1,1.1c-0.8,0.1-9.9,0.5-5.8,3.8
			c1.8,1.5,9.4-0.6,11.8-0.8c4.2-0.4,8.4-0.6,12.6-0.8c9.7-0.4,19.5-0.8,29.2-0.6c17.8,0.3,35.4,0.4,53.2,0c2.5-0.1,22.3,0.5,23-2.2
			c0.5-2.1-6.5-1.1-7.8-1.1c-4.7,0.1-9.5,0.1-14.2,0.1C189,233.5,168.8,232.7,148.8,233"/>
		<path id="Fill-27" class="st2" d="M227.7,191.3c0.3,8.8,1.8,17.5,2.3,26.3c0.2,4,0.5,8,0.7,12.1c0.1,1.3-0.5,4.4,1.1,5.2
			c2.1,1,2.4-1,2.8-2.4c1.1-4,0.4-9.3,0.3-13.4c-0.1-4-0.1-8-0.4-12c-0.3-4.1-1.1-8.1-1.5-12.2c-0.2-1.7,0.4-4.6-1.4-5.7
			C229.9,188.3,227.7,189.4,227.7,191.3"/>
		<path id="face-2" class="st2" d="M130.8,205.9l0.1,0.1C130.9,206,130.9,206,130.8,205.9 M122.5,203.3c3.1,0.9,5.7,0.6,8.7,2.8
			c2.5,1.9,5,4.6,5.8,7.7c1.9,7-4.5,10.9-10.6,11c-6.2,0.1-15.3-1.4-15-9.3C111.7,209.5,116.1,203.6,122.5,203.3 M122.7,199.4
			c-8.1,0.4-14.6,9.5-14.6,17.2c0.1,9.3,10.6,11.7,18.1,11.7c8.4,0.1,16.8-5.7,14.6-15.2C139,205.4,130.5,199,122.7,199.4"/>
		<path id="Fill-31" class="st2" d="M114.5,211.8c0,2.6,4.1,2.6,4.1,0S114.5,209.2,114.5,211.8"/>
		<path id="Fill-33" class="st2" d="M123.1,210.7c0,2.6,4.1,2.6,4.1,0S123.1,208,123.1,210.7"/>
		<path id="Fill-35" class="st2" d="M118.4,216.6c-2.7,2.7,6.7,7.3,8.9,3.6c1.8-3-2.1-2-3.5-2.2
			C122.2,217.8,119.6,215.4,118.4,216.6"/>
		<path id="Fill-37" class="st2" d="M193.1,210.7C193,210.8,193,210.8,193.1,210.7 M158,206.4c-2.7,0.5-11.5,3.5-11.7,6.7
			c-0.2,5.8,8.4-0.1,10.3-0.9c5.1-2.1,7.8,2.2,12.9,2.4c4.5,0.2,8.6-3.6,12.8-3.2c4.4,0.5,6.5,5.2,11.6,2.7c2.7-1.3,2.6-3.3-0.4-3.5
			c-1.8-0.1-3.1,0.6-5-0.1c-3-1.2-4.2-3.2-7.7-2.9c-2.7,0.2-5.1,1.8-7.7,2.3C167.1,211.2,163.8,205.3,158,206.4"/>
		<path id="point" class="st2" d="M213.8,213.3C213.7,213.3,213.7,213.3,213.8,213.3 M214.5,210.8
			C214.5,210.9,214.7,211.1,214.5,210.8 M211.4,209C211.3,209.1,211.3,209.1,211.4,209 M211.5,209c0.6,0.4,5.4,3.7,1.9,4.4
			C211.6,213.8,210.1,210.2,211.5,209 M209.9,205.3c-7.7,3.5,0.6,16.1,6.6,11c2.5-2.2,2.9-6.5,0.4-8.7
			C215.4,206.2,211.9,204.4,209.9,205.3"/>
		<path id="Fill-41" class="st2" d="M137.5,254.9c-9.6,0-19.3-0.2-28.9,0.4c-1.6,0.1-7.8-0.2-8.6,1.5c-1.5,3.1,4.8,1.6,5.7,1.5
			c19.1-1.9,39.1-0.8,58.3-0.3c15.7,0.4,31.3,0.7,47,1.5c4.1,0.2,8.2,0.4,12.4,0.7c1.3,0.1,4.7,1,5-1.2c0.3-2-4-1.5-5-1.6
			c-8.4-0.4-16.7-0.9-25.1-1.4C178.1,254.9,157.7,254.9,137.5,254.9"/>
		<path id="Fill-43" class="st2" d="M99.6,258.4c-1.8,1.8-1,8.6-1,10.9c-0.1,3.9-0.3,7.9-0.4,11.8c-0.1,4.1,0,8.3,0.3,12.4
			c0.1,1.7,1.5,10.1,3.8,5.3c1-2.1,0-8.1,0-10.5c0-4.4,0.3-8.8,0.5-13.2c0.2-3.8,0.2-7.6,0.4-11.3
			C103.2,262.5,103.3,254.6,99.6,258.4"/>
		<path id="Fill-45" class="st2" d="M230,293.6c-9.4,1-18.9,0.5-28.3,1.2c-8.1,0.6-16.2,0.9-24.3,1c-18.4,0.4-36.8,0.8-55.2,2.3
			c-4.2,0.3-8.4,0.7-12.5,0.9c-2.1,0.1-10.9-0.9-11.5,1.3c-1.1,3.8,8.3,2.3,10.3,2.2c4.5-0.1,8.9-0.5,13.4-0.8
			c18.7-1.4,37.5-1.9,56.2-2.4c10.2-0.3,20.3-1.1,30.5-1.7c5.1-0.3,10.2-0.3,15.2-0.7c1.3-0.1,6,0.1,7-1
			C231.3,295.2,231.5,293.5,230,293.6"/>
		<path id="Fill-47" class="st2" d="M226.8,259c0.3,9,0.8,18,1.1,26.9c0.1,2.7-0.7,7.5,0.8,9.9c2.4,3.8,4.3-0.2,4.7-2.6
			c1.4-7.5-0.1-15.9-0.5-23.4c-0.1-2.9,0.7-9.3-0.6-11.9C231,255.4,226.7,255.7,226.8,259"/>
		<path id="hola-:_" class="st2" d="M211.1,271.8c3.6,1,4.1,8.8,0.1,9.4C205.1,282,207.8,273.4,211.1,271.8 M210.1,268.7
			c-1.1,0-3.6-0.3-4.3,0.6c-0.6,0.7,0,2.3-0.1,3c-0.2,2.5-2.3,4-1.4,7c0.6,2,2.3,3.9,4.3,4.7C219.5,287.7,219.3,266.8,210.1,268.7"
			/>
		<path id="Fill-51" class="st2" d="M112.7,270.1l-0.1,0.1L112.7,270.1 M121.2,265.6c0-0.4-0.1-0.7-0.1-1.1
			c5.8,2.8,10.5,7.9,8.6,14.8c-1.5,5.3-6.8,7.1-11.8,5.8c-5.5-1.4-8.2-6-6.7-11.6c0.7-2.6,2.8-6,5.5-6.9
			C117.9,266.3,120.7,267.3,121.2,265.6 M117.8,263.4c-1.5,0.1-2.9,0.7-4.1,1.6C114.8,264,116.3,263.4,117.8,263.4 M117.8,260
			c-3.7,0.1-6,2.3-8.2,5c-0.7,0.8-3,3-2.7,4.2c0.2,0.9,0.8,2.2,2.1,1.2c-6.5,12.9,10.3,24,20.5,15C139,276.9,129.6,259.6,117.8,260"
			/>
		<path id="Fill-53" class="st2" d="M114.5,272c0,1.7,2.7,1.7,2.7,0S114.5,270.3,114.5,272"/>
		<path id="Fill-55" class="st2" d="M119,272.3c0,1.8,2.7,1.8,2.7,0C121.8,270.6,119,270.6,119,272.3"/>
		<path id="Fill-57" class="st2" d="M121.1,278.5c-1.3,0.1-5.9-0.3-6.7,0.8c-1.4,1.9,0.8,1.9,1.9,2.1c1,0.2,5.2,0.1,5.7-0.8
			C122.5,279.9,122.4,278.4,121.1,278.5"/>
		<path id="Fill-59" class="st2" d="M177.2,273.7C177.1,273.7,177.1,273.7,177.2,273.7 M159.6,272.4c-2.9,0.2-5.3,1.9-8,2.5
			c-2.9,0.7-4.2-0.6-6.9-1.4c-2.8-0.9-4.7-0.5-7,1.4c-1.3,1.1-4,3.5-3.2,5.4c1.8,4.4,5.9-2.7,7.8-3.1c3-0.5,5.7,2.1,9.1,1.4
			c3.1-0.7,5.9-2.8,9.2-2.9c2.7,0,5.3,1.5,8,1.8c4.1,0.6,6.8-0.9,10.6-2c3.3-0.9,5.6,0.3,8.7,1.3c1.4,0.5,6.2,2.2,5.3-0.9
			c-0.2-0.9-6.5-2.5-7.5-2.8c-3.4-1.1-5.6-0.7-8.8,0.6c-2.7,1-5,1.5-7.9,1C165.9,274.1,163,272.1,159.6,272.4"/>
	</g>
	<g id="Big-Cards" class="st1">
		<path id="Fill-67" class="st3" d="M291.6,128c0.4-9.9,1.1-19.9,1.4-29.8c0.2-4.9,0.3-9.9,0.4-14.8c0-1.1,0.1-2.2,0.1-3.3
			c0.1-3.7-0.4-4,3.4-4.4c16.8-1.5,33.6-2,50.4-3.3c20.2-1.6,40.6-2.7,60.9-3.2c9-0.2,18.1-0.7,27.1-0.4c2,0.1,5.9-0.5,6.7,1.1
			c0.3,0.7-0.4,3-0.5,3.8c-0.3,2.4-0.5,4.8-0.7,7.3c-1,14.3-0.4,29.1,2.4,43.2c-6.5-3.7-14.8-6.8-22.3-6.2
			c-7.7,0.6-13.5,5.1-19.7,9.2c-3.5,2.3-4.7,2.9-8.2,0.7c-3-1.9-5.9-4.2-8.7-6.4c-4.4-3.4-8.5-7-12.8-10.6
			c-7.8-6.5-18.6-15.7-29.4-13c-7.7,1.9-14.9,6.2-21.6,10.3C310.6,114.4,301.5,121.9,291.6,128 M425.8,64.3
			c-38.5,0-76.7,3.7-115,5.7c-4,0.2-8,0.5-12,0.9c-2.7,0.3-9.2-0.8-10.9,1.5c-1.2,1.5-0.2,1.7,0,3.2c0.2,1.8,0.1,4,0,5.9
			c-0.1,4.6-0.3,9.3-0.4,13.9c-0.4,17.5-0.6,35,0.1,52.5c0.2,3.8,1.5,9.1,0.8,12.8c-0.6,2.7-2.4,4.3,1.9,4.8
			c4.2,0.5,9.3-0.8,13.5-1.2s8.4-0.8,12.6-1.2c18.3-1.5,36.8-1.3,55.2-1.8c18.5-0.5,37.1-0.5,55.6-0.5c7.8,0,16.6,0.4,24.2-1.7
			c2.7-0.8,3.1-1.1,2.4-3.8c-0.1-0.5-0.9-0.7-1.2-1.6c-0.3-1.2-0.2-2.7-0.2-4c-0.2-4.2-0.3-8.4-0.5-12.6c-0.3-7-1.5-13.8-2.4-20.7
			c-1-8-1-16.1-1-24.2c0-4.5,0.1-8.9,0.5-13.4c0.2-2.9,1.6-7.1,0.9-9.8c-0.4-1.3-0.9-2.4-2.3-3c-0.9-0.4-1.6-0.1-2.5-0.2
			c-1-0.1-1.7-0.3-2.9-0.5C436.8,64.2,431.2,64.3,425.8,64.3"/>
		<path id="Fill-69" class="st2" d="M404.5,83.4c0,2.8-0.4,6.9,0.8,9.5c1.6,3.3,3.7,2.3,4.2-0.8c0.3-1.8,0.3-7.1-0.3-8.7
			C408.5,81.1,404.5,79.6,404.5,83.4"/>
		<path id="Fill-71" class="st2" d="M409.2,84.4c-2.6,0.1-10.2-0.5-12,1.6c-3,3.6,2.3,4.2,4.5,4c2.6-0.2,10.7,0.3,12.5-1.8
			C417.1,84.7,411.2,84.4,409.2,84.4"/>
		<path id="Fill-73" class="st4" d="M307.6,177.6c11.5,2,7.9,19.5-3,15.5c-3.8-1.4-9.4-5.5-7.3-10.3
			C298.9,179.1,304,177.2,307.6,177.6 M302.8,172.1c-7.5,1.3-12.6,9.4-10,16.4c2.5,6.8,11.9,11.8,18.8,9.4
			c6.6-2.3,9.9-11.1,7.7-17.6C316.9,173.6,309.3,171,302.8,172.1"/>
		<path id="Fill-75" class="st4" d="M372.8,179.6c-2.9,0.2-5.3,2.2-8.2,2.6c-2.7,0.3-4.9-0.6-7.5-1.3c-3.1-0.9-5.8-1.3-9-0.5
			c-2.4,0.6-4.7,2.2-7.2,2.4c-4.9,0.4-10.5-5.2-14.3,1.1c-1.8,3,0.8,5,3.6,3.5s1.4-2,5-1.1c2.9,0.7,5.3,1.1,8.3,0.1
			c2.7-0.9,5-2.6,7.9-2.8c2.8-0.2,5.3,1.1,8,1.7c3.3,0.7,6.3,0.2,9.5-0.9c3-1,4.2-1.5,7.2-0.7c1.9,0.6,6.1,2.3,8,0.9
			c3.2-2.5-1.1-2.9-2.8-3.2C378.5,181,375.7,179.4,372.8,179.6"/>
		<path id="Fill-77" class="st4" d="M438.4,178L438.4,178 M435.6,177.4c4.2,0.3,8.7,7.9,3.2,8.2C434.8,185.7,430.5,179,435.6,177.4
			 M435,171.1c-13.2,3.7-7.2,22.3,5.6,20.2c5.8-1,7.8-7.7,5.8-12.7c-0.8-2.1-2.4-3.9-4.3-5.2C440.6,172.6,436.6,170.7,435,171.1"/>
		<path id="Image-Border" class="st2" d="M292.8,290.3c-0.4-1.7-0.2-4.4-0.2-5c-0.1-2.9-0.1-5.8-0.2-8.6c-0.3-6.8-0.4-13.7-1-20.6
			c-0.5-6.5-1.8-12.9-1.8-19.4c0-4.5-1.3-15.7,2.6-18.7c6.7-3.9,4,9.9,3.9,12.3c-0.3,7.2,0.1,14.1,0.8,21.2
			c0.7,6.5-0.1,13.1-0.4,19.6c-0.1,3.5-0.2,6.9-0.5,10.4c-0.1,1.1,0,6-0.5,8.6c1.5-0.1,2.8,0,3.6,0c5.4-0.2,10.9-0.3,16.3-0.5
			c20.9-0.8,41.8-0.4,62.6-1.4c19.7-0.9,39.5-1.1,59.3-1.4c1.7,0.2,2.5,2,1.4,3.4s-6.1,1.1-7.7,1.2c-5.6,0.4-11.1,0.6-16.7,0.7
			c-11.8,0.1-23.5,0.6-35.2,1.3c-20.8,1.2-41.7,1.1-62.6,1.9c-5.1,0.2-10.1,0.4-15.2,0.5c-2.7,0.1-9.7,1.7-11-1.5
			C289.6,291.8,290.9,290.8,292.8,290.3L292.8,290.3z M408.2,209.2c6.3-0.1,12.6,0.1,18.9,0.4c2.8,0.2,5.6,0.3,8.4,0.4
			c1.6,0.1,5.3-0.5,6.7,0.3c5.6,2.9-5.8,3.3-7.2,3.2c-5.8-0.1-11.6-0.5-17.3-0.7c-21.3-0.5-42.7,0.8-64,1.6
			c-10.2,0.4-20.4,0.5-30.7,1.1c-5.6,0.3-11.2,0.7-16.8,1c-2.6,0.1-5.2,0.3-7.7,0.3c-1.6,0-4.8,0.7-6.3,0.1
			c-1.3-0.5-2.3-1.2-1.6-2.7c0.7-1.6,4-0.9,5.3-1c4.9-0.1,9.8-0.4,14.8-0.7c11.2-0.7,22.3-1.5,33.5-1.7
			C365.6,210.5,386.9,209.4,408.2,209.2L408.2,209.2z M437.5,216.4c0-2.9,3.5-3.5,5.1-1.5c1.5,1.9,0.5,7.7,0.6,9.9
			c0.1,7.5,0.8,14.9,1.5,22.4c0.7,7.4,1.1,14.8,1.7,22.2c0.2,3.4,2.9,17.1-1,19.1c-4.9,2.5-4-10.4-4.1-12.8
			c-0.4-7.6-1-15.2-1.7-22.8C438.5,240.7,437.5,228.7,437.5,216.4z"/>
		<path id="Image-X" class="st2" d="M373,251.6c6.7,2.4,13.4,4.9,20,7.4c3.5,1.4,7.1,2.8,10.6,4.2c1.8,0.7,9.1,2.4,9.6,4.2
			c0.6,2.5-7.3-0.6-8.5-1c-3.5-1.1-7-2.4-10.5-3.6c-7.8-2.8-15.6-5.7-23.4-8.4c-0.7-0.3-1.5-0.5-2.2-0.8
			c-8.3,3.7-16.6,7.5-24.9,11.3c-4.4,2.1-8.8,4.2-13.2,6.3c-3.3,1.6-9.2,6.1-12.8,6c-1.4,0-2.3-0.3-2.4-2c-0.2-2.1,3.2-3,4.6-3.7
			c4.7-2.4,9.4-4.6,14.2-6.9c9.4-4.5,18.9-8.8,28.5-13c0.1,0,0.1,0,0.2-0.1c-5.3-1.8-10.6-3.5-15.9-5.3c-3-1-24.3-6.2-23.6-9.1
			c0.9-3.2,19.7,4.3,22.6,5.2c7.1,2.3,14.3,4.6,21.4,7.1c17-7.6,34.2-15.8,52-21.4c1.1-0.3,1.8,0.8,1.6,1.8
			c-0.3,1.3-4.3,2.3-5.4,2.8c-4.4,2-8.8,3.9-13.1,5.8c-9.5,4.3-19.1,8.5-28.6,12.7C373.4,251.4,373.2,251.5,373,251.6L373,251.6z"/>
		<path id="Fill-117" class="st2" d="M310.1,305.1c4.4,0.8,7.4,4.9,6.9,9.3c-0.6,5.9-6.5,8.6-12,7.8c-6.2-0.9-7.5-6.1-4.5-11.1
			c0.7-1.1,1.4-2.4,2.6-3c0.8-0.4,1.9,0,2.5-0.4C308.1,306.6,306.7,304.8,310.1,305.1 M308.1,301.3c-5.3,0.7-15.1,6.8-14.6,13
			c0.4,0.7,1.1,1,1.9,0.9c-0.2,1.3-0.1,2.6,0.2,4c0.5,1.7,1.5,3.1,2.9,4.2c2.8,2.3,6.6,2.8,10,2.4c6.5-0.7,11.5-5.2,11.9-11.9
			C320.8,307.3,315.1,300.4,308.1,301.3"/>
		<path id="Fill-119" class="st2" d="M333.8,309.3c-2.4,1.3-6.2,3.2-7.5,5.6c-1.5,2.5,0.1,5.3,3.2,4.1c2.5-1,4-4,6.7-4.9
			c2.3-0.9,3.3-0.4,5.7,0.4c2.5,0.9,4.7,1.7,7.5,1.5c3.4-0.3,6.4-2.3,9.8-2.7c2.8-0.4,5.2,0.7,7.9,1.2c3.1,0.5,5.2-0.7,8.2-1.3
			c2-0.4,5.5,1.3,7,0.7c3.3-1.4-0.2-3.2-2-3.8c-3.1-1-5-0.1-7.9,0.7c-3.2,0.9-4.5,0.2-7.6-0.6c-6.1-1.6-10.8,2.3-16.7,1.6
			C342.7,311,339.5,306.3,333.8,309.3"/>
		<path id="Fill-121" class="st2" d="M433.9,306.3c5.9,5.5-0.7,13.4-7.2,9c-2.3-1.6-2.3-4-0.5-6.3
			C427.8,307,431.4,306.2,433.9,306.3z M431.8,301.9c-5.5,1.1-10.7,3.6-11.2,9.9c-0.5,6.2,5.9,9.1,11.2,8.7
			C443.8,319.6,442.9,299.7,431.8,301.9z"/>
	</g>
	<path id="Fill-79" class="st5" d="M562.1,96c-4.4,0.1-15.3,1.7-16.9,6.9c-1.2,4,2.4,3.1,4.4,1.6c2.6-1.9,5-3.1,8.2-3.7
		c12.5-2.3,24.5,5.8,36.8,6.9c4.7,0.4,10.3,0.6,14.8-0.9c3.2-1.1,3.6-3.4,0-3.8c-3.1-0.3-6.5,0.7-9.7,0.6
		C586.7,103.6,575,95.8,562.1,96"/>
	<g id="Cards" class="st1">
		<path id="Fill-173" class="st4" d="M99.5,343.4c-8.4,0.1-16.8,0.4-25.3,0.9c-7.9,0.5-16.6,0.1-24.5,1.7c-2.2,0.4-5.2,2.4-2.3,4.7
			c2.1,1.6,9.7-0.2,12.2-0.4c9.2-0.6,18.4-1.2,27.6-1.6c8.7-0.3,17.4-0.4,26.1-0.5c1.3,0,3.5-0.4,4.9-0.1c1.9,0.6,1.5,0.7,1.6,3.1
			c0.3,4.4,0.2,8.8,0.1,13.1c-0.1,4.2-0.2,8.5-0.2,12.7c0,3-1,9,0.6,11.7c2.2,3.8,4.4-0.3,4.6-2.8c0.3-4.8,0.2-9.7,0.2-14.5
			c0-4.5,0-9-0.1-13.5c-0.1-3.3,0.4-9-1.4-11.9c-1.8-3-6.1-2.4-9.2-2.5C109.3,343.3,104.4,343.3,99.5,343.4"/>
		<path id="Fill-171" class="st4" d="M45.9,348.8c0,8.5-1,16.9-1.2,25.4c-0.1,3.9-0.4,8.2,0.6,12c1,3.9,4.2,4.7,4.5,0.4
			c0.7-8.7,0.5-17.8,1.1-26.6c0.2-3.1,1.5-8.8,0.3-11.7C50.1,345.7,45.9,345.2,45.9,348.8"/>
		<path id="Fill-175" class="st4" d="M124.9,386.2c-14.6,1.9-29.9,1.2-44.7,1.5c-7,0.2-14.1,0.2-21.2,0.3c-2.5,0-8.7-0.9-10.9,0.5
			c-3.4,2.2,0.3,3.9,2.5,4c14,0.3,28.1-0.3,42-0.8c6.3-0.2,12.6-0.3,18.8-0.8c3.8-0.3,8.1-0.6,11.8-1.7c0.8-0.2,2.5-0.2,2.7-1.3
			C126.1,387.2,125.9,386.1,124.9,386.2"/>
		<path id="Fill-177" class="st4" d="M64.1,398.5c-4.1,0-16.3-1.9-18,2.1c-2.2,5.3,6.5,4.1,8.9,4c5.3-0.1,10.7-0.2,16-0.1
			c5.3,0,10.5,0,15.7-0.2c1.5,0,5.1,0.6,5.9-1.2c0.7-1.4,0.1-2.5-1.1-3.2c-3-1.8-10.6-0.7-14.1-0.9C73,398.8,68.5,398.5,64.1,398.5"
			/>
		<path id="Fill-179" class="st4" d="M113.5,399.5c-2.3,0.1-7-0.8-9.1,0.2c-2.4,1.2-1.5,3.1,0.5,3.9c1.4,0.6,7.2,0.3,8.6-0.4
			C115,402.6,116.6,399.3,113.5,399.5"/>
		<path id="Fill-181" class="st3" d="M139,349.6c-2.5,0.7-1.7,14.8-1.8,17c-0.2,6.1-0.9,13.8,1.2,19.7c1.3,3.8,3.8,3.2,3.4-0.7
			c-0.4-3.5-1-6.9-1.3-10.4c-0.7-7.9-1.5-16.3-0.9-24.2c0.3,0.5,2.6,4.7,3.2,4.4C142.6,355.5,140,349.4,139,349.6"/>
		<path id="Fill-183" class="st3" d="M166.9,344.5c-5,0.1-10,0.2-15.1,0.3c-4,0.1-10.3-0.5-13.9,1.1c-4.4,2-2.3,6.5,1.8,6.5
			c3.6,0.1,7.5-0.7,11.1-0.9c9.9-0.3,19.8-0.4,29.6-0.5c8.9-0.1,18.2,0.9,27.1-0.5c1.3,11.7-2.2,23.4-1,35.2
			c0.2,1.8,0.1,4.4,2.4,4.8c2.9,0.5,3.1-2.4,3.2-4.5c0.3-6,0.1-11.9,0.6-17.9c0.4-5.5,1.2-11.2,0.5-16.7c-0.8-6.8-4.1-6.3-9.9-6.6
			C191.3,344.4,179.1,344.3,166.9,344.5"/>
		<path id="Fill-185" class="st3" d="M150.1,385.9c-2.6,0.1-6.8-0.7-8.4,1.7c-1.7,2.6,0.3,4.8,2.8,5.3c2.9,0.6,6.8-0.2,9.8-0.2h9.5
			c13.6,0.1,27.3,0.3,40.9-0.3c1.9-0.1,7.3,0.6,8.6-1.3c1.2-1.6,0.4-3.1-1.2-3.9c-2.5-1.4-7.7-0.8-10.5-0.9
			c-3.5-0.1-6.9-0.2-10.4-0.2C177.5,385.9,163.8,385.5,150.1,385.9"/>
		<path id="Fill-187" class="st3" d="M161.6,397.7c-5.1,0.1-10.5-0.1-15.6,0.6c-4.4,0.7-5,5-0.2,5.5c4.4,0.5,9.7-0.4,14.1-0.7
			c1.6-0.1,3.4,0,4.1-1.7C164.9,399.6,163.4,397.9,161.6,397.7"/>
		<path id="Fill-189" class="st3" d="M200.1,398.1c-2.7,0.1-10.7-1.1-12,2c-2.2,5.2,8.5,3.2,10.6,3.1c2.6-0.1,12.7,1.4,12.7-2.7
			C211.4,396.5,202.6,398.1,200.1,398.1"/>
		<path id="Fill-191" class="st4" d="M45.5,423.8c0,9.4-0.6,18.9,0.3,28.3c0.4,3.9,0.3,11.3,2.5,14.6c1.6,2.3,3.8,2.2,4.7-0.6
			c0.6-1.9-0.3-5.6-0.5-7.6c-0.1-1.9-0.2-3.8-0.3-5.8c-0.2-5-0.2-9.9-0.1-14.9c0.1-4.3,1.1-9.9,0.1-14
			C51.3,420,45.5,419.1,45.5,423.8"/>
		<path id="Fill-193" class="st4" d="M140,415.5c-16.3,0.4-32.7,0-49,0.9c-8,0.4-16,1.3-24,2.1c-3.9,0.4-7.9,0.9-11.8,1.4
			c-1.2,0.1-11,0.5-7.3,4.3c1.6,1.6,6.8-0.1,8.8-0.3c3.9-0.5,7.9-0.9,11.8-1.3c7.5-0.8,15-1.5,22.6-2c17.7-1,35.6-0.7,53.3-1.3
			c4.8-0.2,9.6-0.3,14.4-0.1c1.3,0,10.5,0.5,6.5-2.9c-1.9-1.6-9.1-0.8-11.5-0.8C149.2,415.3,144.6,415.4,140,415.5"/>
		<path id="Wireframy-Stuff" class="st4" d="M165.4,465.1L165.4,465.1c-0.9,1.3-4.2,1-5.6,1.1c-4.4,0.3-8.7,0.8-13,1.4
			c-8.6,1.3-17.2,2.1-26,2.3c-17.3,0.4-34.6,0-51.9,1.2c-3.8,0.3-7.6,0.7-11.3,1.4c-2.7,0.5-7.9,2.3-8.2-2.2
			c-0.4-5.3,13-5.3,16.9-5.7c16.5-1.5,33.2-1.2,49.7-1c8,0.1,16,0.4,23.9-0.1c8-0.5,16.2-0.4,24.1-1.2c-1-4-0.9-8.9-1.2-12.9
			c-0.7-10.4-0.5-20.8-1-31.1c-0.2-4.6,6-5.3,7.9-1.6c1.9,3.7,0.7,11.2,0.8,15.3c0.3,9.6,2.1,20.3,0.2,29.8
			C170,465.2,167.2,466.9,165.4,465.1L165.4,465.1z"/>
		<path id="Fill-199" class="st4" d="M175.4,421.7c-2.2,0.3-4,2.2-3.1,4.6c1.2,3,4.9,1.8,7.4,1.6c7.8-0.6,15.8,0.6,23.5-0.3
			c2.1-0.3,5.1-1.4,3.2-4.2c-1.4-2.1-6.6-1.7-8.7-1.9C190.3,420.8,182.9,421,175.4,421.7"/>
		<path id="Fill-201" class="st4" d="M188.5,434.8c-3,0.2-10,0-11.3,3.5c-2.3,6.1,6.6,4,9.3,3.6c3.1-0.4,10.6,0.7,12.2-2.4
			C201.8,434.1,191.1,434.7,188.5,434.8"/>
		<path id="Fill-203" class="st4" d="M180.8,448.3c-1.4,1.4-1.4,4,0,5.4c1.7,1.7,5.6,1.4,7.9,1.5c3.2,0.2,12.4,1.9,14-1.9
			c2.1-5.1-6.2-5-8.9-5.3C190.5,447.7,183.4,445.7,180.8,448.3"/>
		<path id="Fill-205" class="st4" d="M68.4,361.2c0,5.5,8.5,5.5,8.5,0C77,355.7,68.4,355.6,68.4,361.2"/>
		<path id="Fill-207" class="st4" d="M84.7,361.2c0,6.3,9.7,6.2,9.7,0S84.7,354.9,84.7,361.2"/>
		<path id="Fill-209" class="st4" d="M74.8,369.5c-4.7,1.3-0.4,5.3,1.8,6.2c3.5,1.5,8.3,2.5,11.8,0.3c1.4-0.9,2.5-2,1.5-3.7
			c-1.1-1.8-2.6-1-4.2-0.8c-2.1,0.2-3.8,0.2-5.8-0.5C78.4,370.6,76.5,369.1,74.8,369.5"/>
		<path id="Fill-211" class="st4" d="M160.7,361.5c0,3.7,5.7,3.7,5.7,0S160.7,357.8,160.7,361.5"/>
		<path id="Fill-213" class="st4" d="M173.4,362.1c0,4.1,6.4,4.1,6.4,0S173.4,357.9,173.4,362.1"/>
		<path id="Fill-215" class="st4" d="M172.9,371c-3.4,0.4-13.1,1.4-13.6,5.6c-0.8,6.4,9.8,1.2,12.2,0.7c3.1-0.6,5.8-0.5,8.9-0.3
			c1.7,0.1,3.9,0.3,3.8-2.2C184,370.4,175.9,370.6,172.9,371"/>
		<path id="Fill-217" class="st4" d="M88.6,429.8c-2.4,0.6-5.6,4.9-3.9,7.4c2.7,4.2,4-2.3,5.1-2.9c2.1-1.1,3.8,3,6,0.8
			C99.2,431.8,90.8,429.2,88.6,429.8"/>
		<path id="eye" class="st4" d="M116.5,426.7c-2.9,0-9,4.1-9.4,7.1c-0.3,1.8,0.9,3.5,2.9,3.5c2.6,0,3.5-3.4,5.7-4.1
			c2.5-0.8,2.1,1,4.2,1.9c1.6,0.7,3.5,0.4,4-1.5C124.9,430.1,119.4,426.6,116.5,426.7"/>
		<path id="Fill-221" class="st4" d="M94.4,444c-4.6,2.7,3,8.5,5.6,9.2c4,1.1,12-0.9,12.9-5.8c0.4-1.9-0.8-3.7-3-3.3
			c-1.8,0.3-2.9,2.5-4.5,3.3c-2.2,1.1-4.1,1-6-0.6C97.9,445.4,97.1,442.4,94.4,444"/>
		<path id="Fill-223" class="st4" d="M97.7,483.9c-4.1,0.9-8.3,0.3-12.4,1.1c-4.2,0.8-6.7,2.4-10.7,0.8c-0.2-0.1-0.4-0.2-0.6-0.2
			c-3-1.3-6.2-1.7-9.4,0.4c-1.9,1.2-7.6,5.5-6.9,8.1c1.5,5.6,7.9-3.2,9.6-4.1c3.1-1.6,5.3,0.5,8.5,1c3.9,0.7,7-1.3,10.6-2.1
			c4.2-0.9,9-1.3,13.3-1.8c1.7-0.2,8.2,1.1,8.7-1C109.5,482.5,99.3,483.5,97.7,483.9"/>
		<path id="Fill-225" class="st4" d="M127.4,495.2C127.7,495.5,127.5,495.3,127.4,495.2 M139,483.7c3.5-0.4,14.8-2.9,17.1,0.8
			c1.5,2.4-0.9,11.1-3.2,12.3c-1.8,0.9-6.1-0.1-8.1-0.2c-3.7-0.1-7.5-0.2-11.2-0.4c-1.2-0.1-5.3,0.2-6.2-1c-1.2-1.3-1.1-8.3-1.4-10
			C129.3,486.2,135.6,484,139,483.7 M146.5,480.1c-4.5,0.2-9,0.5-13.5,1.1c-2.5,0.3-5,1.2-7.3,1.7c-0.7,0.1-2-0.2-2.9,0.2
			c-2.7,1.3-0.3,10,0.3,12.3c1,3.6,3.5,4.2,7,4.5c4.6,0.4,9.3,0.3,13.9,0.2c4.4-0.1,10.4,0.9,12.9-3.5c1.6-2.9,3.3-9.6,2-12.8
			C157,479.6,150.2,479.9,146.5,480.1"/>
		<path id="quare" class="st3" d="M197.1,497.6C197,497.9,197,497.9,197.1,497.6 M198.1,496.5C198,496.6,197.7,496.9,198.1,496.5
			 M187.3,496.1c2-0.4,4-0.7,6-1.1c-1.9,2.6-3.9,1.6-7.1,1.3C186.6,496.3,187,496.2,187.3,496.1 M177.8,495.2c0.5-0.2,1-0.3,1.5-0.5
			c0,0.4,0.1,0.7,0.2,1.1c-0.9-0.1-1.7-0.2-2.6-0.3C177.3,495.4,177.6,495.3,177.8,495.2 M173.4,491.9c0-0.7,1-0.2,1.6-0.3
			C173.9,492.7,173.3,492.8,173.4,491.9 M189.2,484.1c0.2-0.2,0.4-0.2,0.6,0C189.5,484.2,188.4,484.6,189.2,484.1 M199.4,482.9
			C199.4,482.9,200,483.6,199.4,482.9 M199.1,482.6C199.2,482.7,199.2,482.7,199.1,482.6 M197.8,482.5
			C199.9,482.8,199.7,485.3,197.8,482.5 M173.3,482.3C172.9,482.7,173,482.3,173.3,482.3 M181.3,477.1c-3.5,0.2-10.1,0-13,1.9
			c-3.9,2.5-1.8,11-1.5,14.7c0.5,5.5,3.1,7.1,8.3,7.6c6.2,0.7,12.5,0.8,18.7,0.7c5.6-0.1,8.8-2.1,9.8-8c0.3-1.8,1.1-4.6,1.1-6.3
			c0-1.2-0.6-1.7-0.8-2.8c-1.3-5.8-3.4-6.5-9.4-6.7C190.1,478,185.6,476.9,181.3,477.1"/>
	</g>
	<g id="Profile" class="st1">
		<path id="face-3" class="st2" d="M369,343.9c9,0.2,19.2,5.2,17.8,15.7c-1,7.7-7.7,14-15.5,14.6c-8.3,0.6-17.1-5.8-18.3-14.3
			C351.8,350.4,360.2,343.7,369,343.9 M364.6,339.6c-3.6,0.6-7.1,2.5-10.3,4.2c-1.2,0.7-7.5,4.7-2.6,5.7
			c-11.8,18.9,15.9,36.5,31.5,24.2c7-5.5,10.7-16,6.2-24.3C384.6,341,373.6,338.3,364.6,339.6"/>
		<path id="Fill-231" class="st2" d="M362.5,355.8c0,3.5,5.5,3.5,5.5,0S362.5,352.2,362.5,355.8"/>
		<path id="Fill-233" class="st2" d="M372.7,356.3c0,3.8,6,3.8,6,0S372.7,352.5,372.7,356.3"/>
		<path id="Fill-235" class="st2" d="M365.8,363.9c-0.8,2.9,8.3,4.4,8.7,1C374.6,363.4,366.3,361.9,365.8,363.9"/>
		<path id="Fill-237" class="st2" d="M392.6,362.1c10.5-1.3,21.4-0.7,32-0.4c2.6,0.1,5.3,0.2,7.9,0.2c1.7,0,5.3,0.8,6.8,0
			c6-3.2-5.8-4.8-7.5-4.9c-10.5-0.9-26.8-1.2-37.3-0.8C391.4,356.4,390.7,362.4,392.6,362.1"/>
		<path id="Hola-:_" class="st6" d="M440,414.5c0.1-11,0.5-22.1,1.3-33.1c0.3-4.5,0.8-9,1.1-13.4c0.2-2.1,0.9-5.1-0.3-6.9
			c-1.3-1.9-4.1-2.3-5.8-0.6c-2,2.6-1.4,7-1.7,10.2c-0.4,4.9-0.9,9.7-1.1,14.6c-0.4,9.5-0.6,19.1,0.2,28.5c0.4,4.5,1.1,8.8,2.2,13.1
			c0.5,2,4.2,10.8,3.4,12c-1.2,1.9-10.2,1.2-12.2,1.2c-5,0.1-10,0.2-15.1,0.3c-4.3,0.1-8.6,0.1-12.9,0.2c-1.7,0-11.7-0.3-9.5,2.2
			c-24.9,1.7-50.3-1.2-75-2.2c-1.3-0.1-3.3-0.4-5.2-0.5c-0.2-0.9-0.4-1.7-0.5-2.3c-0.3-4-0.4-8-0.8-11.9c-0.6-7.3-1.9-14.5-2.6-21.7
			c-0.7-7.3-0.7-14.5-1.1-21.8c-0.1-1.2-0.2-11.5-2.8-13.9c1.2,0.5,3.2,0.5,4.3,0.4c9.2-0.7,18.3-2.3,27.4-3.7
			c2.7-0.5,8.6-0.2,10.7-1.5c1.9-1.1,2.6-5.1-0.6-4.8c-9.1,1-18.1,2.5-27.1,4c-2.4,0.4-4.8,0.8-7.2,1.3c-1.6,0.3-5.8,0.3-7.1,1.2
			c-1.5,1.2-1.7,2-1.2,2.5c-0.7-0.2-1.6,0.1-2.6,1.1c-1.9,2.5-0.1,8.7,0.1,11.7c0.3,3.5,0.4,7.1,0.6,10.7c0.3,6.9,1,13.7,2.1,20.5
			c1.2,7.6,2.3,15.3,3.5,22.9c0.3,2,0.7,3.9,1.3,5.8c-3.3,1.7-1.1,4.4,1.6,4.9h0.1c0.8,2,2,3.9,2.9,1.2c0.1-0.2,0.1-0.5,0.1-0.8
			c6.9,0.8,14.4,0.3,21.2,0.6c14.6,0.6,29.3,1.5,44,1c5.8-0.2,11.6-0.7,17.4-1.5c3.4-0.5,6.7-1,10.1-1.7c0.2-0.1,0.6-0.1,1-0.2h0.2
			c5.1-0.1,10.1-0.2,15.2-0.4c4.3-0.2,8.5-0.3,12.8-0.7c2.6-0.2,8.2-0.2,9.8-2.9c1.5-2.4-1-8.6-1.3-11.3
			C440.2,424.1,439.9,419.3,440,414.5"/>
		<path id="Fill-241" class="st2" d="M388.6,382.6c-4.1,0.3-7.8,2.3-11.9,2.3c-3.4,0-6.8-1-10.3-0.9c-4.1,0.2-6.3,2.8-9.8,3.7
			c-2.8,0.7-4.6-1.5-7.1-2.4c-3.1-1.2-5.5-0.6-8.1,1.2c-2,1.3-6.6,4.4-6.5,7.1c0.1,8.2,9.7-3.1,11.6-3.3c2.6-0.2,5.4,2.7,8.2,2.9
			c3.6,0.2,5.9-2.1,9.3-3s7,0.2,10.4,0.5c3.9,0.4,7.2-0.5,10.9-1.4c3.6-0.9,6.7-0.8,10.4-0.1c2.5,0.5,8.6,3.4,9.7-0.3
			C406.8,383.8,391.4,382.4,388.6,382.6"/>
		<path id="Fill-243" class="st2" d="M389.8,398.3c-8.3,0.8-16.7,1.5-25,1.7c-3.6,0.1-17.5-1.5-16.3,3.1c1.1,3.9,20,1.5,23.8,1.2
			c4.3-0.3,8.5-0.7,12.7-1.3c1.5-0.2,5.1,0,6.2-1.3C392.2,400.6,391.7,398.1,389.8,398.3"/>
		<path id="have-a-nice-day-:_" class="st2" d="M332.5,419.2C332.4,419.3,332.4,419.3,332.5,419.2 M334.2,419.2
			c2.1-0.1,1.6-1.2,3.7-0.6c1,0.3,1.1-0.1,1.8,0.8c1.4,1.8,0.1,5.6-1.3,7.1C333.1,431.8,326.8,419.4,334.2,419.2 M334.2,414
			c-14.4,0.5-8.4,22.7,4.2,18.2c5.2-1.9,8.4-10.3,5.4-15.1c-1.5-2.3-3.4-2.7-5.9-2.9c-0.6,0-1.3,0.8-1.7,0.8
			C335.4,414.9,335.5,413.9,334.2,414"/>
		<path id="espero" class="st2" d="M368.7,420c-0.3-0.1,4.5,1.3,4,0.8c1.1,1.2-0.4,3.9-1.7,4.4C368,426.3,366.2,421.5,368.7,420
			 M370.8,414c-4.5,0.6-8,2.5-8.6,7.5c-0.6,4.6,2.6,9.3,7.5,9.4C380.4,431.1,380.8,412.6,370.8,414"/>
		<path id="hola" class="st2" d="M419.9,420.2C420.5,428.4,412,420.9,419.9,420.2 M416.2,411.4c-0.7,1.3-0.1,2.6,1,3.4
			c-10.1,2.1-7.8,17.3,2.5,15c5.2-1.1,6.2-6.6,5.4-11.1C424.7,416.5,419.4,406,416.2,411.4"/>
	</g>
	<path id="Fill-251" class="st7" d="M440,419.3c-3,0.5-10.1,3.8-10,7.4c0.1,5.5,6.1-0.5,7.5-1.3c7.2-4.4,16.5,1.3,24,2.5
		c3.4,0.6,10.2,1.6,13.2-0.7c5.4-4.1-7.1-3.1-8.7-3.2C457.3,423,448.7,417.7,440,419.3"/>
	<g id="List" class="st1">
		<path id="Fill-253" class="st3" d="M581.6,380.3c0,5.7-0.3,11.5,0.8,17.1c0.3,1.7,0.6,5,2.4,5.8c1.8,0.9,3.5-0.1,4-2
			c0.5-2.1-0.6-5.4-0.7-7.6c-0.2-3.1-0.2-6.2-0.2-9.2c0-2.2,0.7-5.8-1.9-7C583.9,376.6,581.6,378.2,581.6,380.3"/>
		<path id="Fill-255" class="st3" d="M671.4,371.3c-18.9,1.9-37.9,2.3-56.8,3.3c-8.8,0.4-19.3-0.2-27.5,3.2c-1.5,0.6-7,4.1-2.6,5.5
			c1.4,0.4,2.8-1,3.9-1.5c1.9-0.8,4.1-1.1,6.1-1.4c17.2-2.8,35.2-2.3,52.5-3.6c4.4-0.3,8.9-0.7,13.3-1.1c3.2-0.3,9.8-2.6,12.7-1.4
			c5,2,4.9,15,5,19.4c0.1,2.3-2.2,10.6,2.3,9.7c3.6-0.7,2.3-9.3,2-11.6C681.5,385.7,680.3,370.4,671.4,371.3"/>
		<path id="Fill-257" class="st3" d="M678.3,403.1c-16.3,1.5-33.1,0-49.5,0.6c-8.6,0.3-17.2,0.8-25.8,1.1c-3.7,0.1-7.4,0.1-11.2,0.2
			c-1.7,0-9.8,1.1-4.8,4.6c2.2,1.6,9.3,0.3,11.8,0.3c3.8,0,7.6-0.2,11.5-0.4c8.9-0.3,17.7-0.8,26.6-1.1c8.5-0.2,16.9-0.3,25.4-0.5
			c4.2-0.1,8.5-0.2,12.7-0.9c0.9-0.1,4-0.2,4.7-1.3C680.2,404.8,679.8,403,678.3,403.1"/>
		<path id="Fill-259" class="st3" d="M598,390.9C597.9,391,597.9,391,598,390.9 M605.1,388.7C605.2,388.8,605.2,388.8,605.1,388.7
			 M604.7,388.7c3.8,3.9-2.1,8.5-5.6,4.7C595.3,389.4,602.3,388.7,604.7,388.7 M600.7,382.8c-13.1,2.3-8.5,19.8,3.8,17.3
			c5.4-1.1,8.5-6.5,6.6-11.7c-0.7-2-2.3-4.3-4.5-4.9c-1.1-0.3-2.1,0.2-3.1,0.1C602.5,383.4,601.9,382.6,600.7,382.8"/>
		<path id="Fill-261" class="st3" d="M651,387.7c-7.9,0-15.8,0.4-23.8,0.5c-2.4,0-8.7-1-8.7,2.8c0,4.1,6.9,2.6,9.3,2.5
			c7.9-0.2,15.7-0.5,23.6-1.3c2-0.2,8.8,0.1,8.8-2.6C660.1,386.9,652.5,387.7,651,387.7"/>
		<path id="Fill-263" class="st4" d="M669.9,414.4c-19.6,0.5-39.2,0.7-58.7,1.7c-7.3,0.4-14.6,0.7-22,0.7c-1.4,0-4.3-0.5-5.6,0.3
			c-3.6,2.4,0.5,4.5,2.9,4.6c16.1,0.9,32.4-1.3,48.5-1.8c9.4-0.3,18.8-0.4,28.2-0.9c2.6-0.1,5.1-0.3,7.7-0.5
			c1.5-0.1,5.4,0.2,6.6-0.7C682.6,414.1,671.6,414.4,669.9,414.4"/>
		<path id="Fill-265" class="st4" d="M580,424c-0.2,5.1-0.2,10.1,0.5,15.1c0.3,2,0.4,4.2,2.7,4.7c2.1,0.5,3.2-1.1,3.6-2.9
			c1.1-4.3,0.1-10.6,0.1-15.1c0-2.2,0-4.7-2.8-5.2C582,420.3,580.1,421.8,580,424"/>
		<path id="Fill-267" class="st4" d="M690.6,436.2c-31.7,1.7-63.4,3.1-95.1,4.5c-2.5,0.1-21.7-0.1-15,6.6c2.1,2.1,7.5,0.7,10.1,0.6
			c4-0.2,8.1-0.3,12.1-0.6c16-0.8,32-1,48-1.9c8.8-0.5,17.6-1.3,26.3-2.3c4.2-0.5,9.3-0.4,13.2-2.1
			C692.3,440.1,694.5,436,690.6,436.2"/>
		<path id="Fill-269" class="st4" d="M672.4,410.5c-2.4,2.4-1.2,7.1-1,10.1c0.2,4.1,0.6,8.2,1.1,12.2c0.3,2.6,0.2,6.7,1.6,9
			c1.6,2.7,5.3,2.4,6.8-0.2c1.3-2.3,0.7-7.1,0.6-9.6c0-3.5-0.3-7-0.5-10.5c-0.2-2.9,0.5-7.6-1.1-10.1
			C678.2,408.9,674.7,408.2,672.4,410.5"/>
		<path id="Fill-271" class="st4" d="M599.9,429.1C599.7,429.2,599.7,429.2,599.9,429.1 M605.5,428.4c5.3,1.1-3.2,7.2-5.9,3
			c-0.4-0.7-0.6-1.5,0-2s1,0.4,1.6,0.2C602.2,429.1,604.5,428.4,605.5,428.4 M604.8,423.4c-3.6,0.3-8.5,0.5-10.3,4.1
			c-2.4,4.8,1.7,9.6,6.4,10.3c4.5,0.7,11.3-1.8,11.7-7.1C612.9,426.4,608.9,423,604.8,423.4"/>
		<path id="Fill-273" class="st4" d="M634.8,425.9c-3.7,0.1-11-1-14.3,0.8c-3.2,1.8-1.8,5,1.1,5.7c1.9,0.5,5.1-0.3,7.1-0.4
			c2.6-0.1,5.3-0.1,7.9-0.2c4.5-0.1,8.9,0,13.3,0s9.2,0.1,13.7-0.2c5.7-0.4,5.6-4.7,0-5.3C654.2,425.5,644.4,425.8,634.8,425.9"/>
		<path id="Fill-275" class="st3" d="M625.3,474.1c0,2,1.8,0,1.8,0S625.3,472,625.3,474.1"/>
		<path id="Fill-277" class="st3" d="M584.3,457.6c0.1,5.9,0.2,11.9,0.4,17.8c0.1,1.9-0.5,5.5,1.8,6.5c2.5,1.1,3.3-1.6,3.6-3.4
			c0.9-5.7,0-12.2-0.1-18c0-1.9,0.4-4.6-1.8-5.6C586.5,454.2,584.3,455.7,584.3,457.6"/>
		<path id="Fill-279" class="st3" d="M681.9,457.7C682,458,682,458,681.9,457.7 M682.1,457.7C682.3,457.7,682.8,457.9,682.1,457.7
			 M634.2,452.9c-9.1,0.1-18.2,0.3-27.3,0.6c-3.9,0.2-7.8,0.3-11.7,0.7c-2.7,0.3-9.6,0.4-11.3,2.6c-3.7,4.6,4.1,3.4,5.8,3
			c3.1-0.7,6.2-0.9,9.3-1.1c6.8-0.4,13.5-0.5,20.3-0.7c18.4-0.4,36.8-0.3,55.1-0.4c1.8,0,5-0.7,6.6,0s1.6,2.5,1.7,4.6
			c0.2,2.7-1.6,8-0.2,10.3c2.1,3.6,5.2,0.5,5.7-2.1c0.7-3.6-0.4-7.9-1.4-11.4c-1.4-4.9-3.4-5-8.1-5.4c-5.5-0.4-11-0.7-16.5-0.8
			C652.9,452.7,643.5,452.7,634.2,452.9"/>
		<path id="Fill-281" class="st3" d="M670.2,477.4c-19.8,2.3-40.1,0.9-60,1c-4.8,0-9.7,0.1-14.5,0.3c-2.6,0.1-8.6-0.6-10.3,1.4
			c-3.7,4.1,3,4.8,5.4,4.6c4.9-0.3,9.8-0.5,14.7-0.5c17.3-0.1,34.7,0.7,52-0.2c7.2-0.4,14.3-1.6,21.4-3c1.6-0.3,12.3-2.4,6.2-4.8
			C681.5,474.7,674,477,670.2,477.4"/>
		<path id="Fill-284" class="st3" d="M612.5,469.8C612.4,469.9,612.4,469.9,612.5,469.8 M612.4,469.8
			C612.3,469.9,612.2,470.2,612.4,469.8 M611.1,468.2C611.2,468.2,611.3,468.4,611.1,468.2 M611.1,468.2c0.5,0.6,0.8,1.2,1,1.9
			C607.9,471.2,606.4,467.9,611.1,468.2 M610.8,468C610.8,468,611.4,468.3,610.8,468 M604.1,463.1c-2.7,3.3-4.8,7.1-1.5,10.9
			c3,3.4,8.9,3.8,12.7,1.6c3.9-2.3,3.5-7.2,0.8-10.4c-1.7-2.1-3.1-2-5.7-2.3C608.7,462.6,605.6,461.3,604.1,463.1"/>
		<path id="Fill-286" class="st3" d="M631.5,469.2c0,4.4,19,2.5,22.4,2.5c2.8,0,19.9,1.6,18.7-3c-1-3.7-17.9-1.9-21.4-1.9
			C648,466.8,631.5,464.7,631.5,469.2"/>
	</g>
	<g id="Checkmark_" class="st1">
		<path id="Fill-292" class="st2" d="M383.7,510.4c9.5,1.4,19.4,5.9,19.3,16.9c-0.1,9.3-7.9,19.2-17.9,18.6
			c-9-0.5-17.5-10.4-18.6-18.8c-0.6-4.3,0.5-9.1,3.1-12.7C372.9,509.7,378.3,509.7,383.7,510.4 M379.2,504.4
			c-6.9,0-11.9,2.5-16.2,7.7c-1.5,1.9-3.3,3.9-4.5,6c-1.1,2-0.9,7.1,2.8,4.7c-0.9,9.8,4.8,19.3,13.1,24.3c9,5.5,19.1,4.4,26.5-3.3
			c6.8-7,9.2-18.8,4.2-27.5C400.2,507.8,388.7,504.3,379.2,504.4"/>
		<path id="Fill-294" class="st2" d="M399.8,501.7c-4.4,3.3-8.4,7.5-11.7,11.8c-3.3,4.2-5.4,9.5-9.3,13.1c-2-2.2-4.3-8-8.2-5.7
			c-3.3,1.9-1.2,5.2,0.4,7.4c4.1,5.6,8.7,7.8,14,2.3c4.8-5,7.5-11.7,12-17c2-2.3,5-4.6,6.6-7.2C404.9,504.1,403.1,499.3,399.8,501.7
			"/>
	</g>
	<g id="Whiteboard-Stuff" class="st1">
		<path id="Wireframy-Stuff-2" class="st3" d="M520.8,181h0.4c3.7-0.2,7.4-0.1,11.1-0.2c7.5-0.2,15.4,0.2,22.8-0.6
			c1.5-0.2,2.1,1.8,1.4,2.8c-0.8,1.1-3.2,1.1-4.4,1.2c-3.3,0.5-6.7,0.7-10,0.8c-3.5,0.2-7,0.3-10.6,0.4c-3.1,0.1-9.8,1.4-12.6,0.1
			c-2.2-1-2.1-2.1-1.3-3c-0.5-1.2-0.5-3.2-0.6-4.1c-0.5-3.9-0.8-7.8-0.8-11.8c0-7.8,0-15.9,2.2-23.4c-0.9-0.4-1.4-0.9-1.4-1.7
			c0-4.8,17.5-3.6,21-3.7c4.4-0.1,8.7-0.1,13.1-0.1c2.9,0,6.8-0.6,9.6,0.1c5.6,1.3,5.2,10.9,5.3,15.5c0.2,8.3,0.1,17-0.6,25.3
			c-0.2,2.9-2.3,6.5-4.7,2.5c-1.3-2.2-0.7-7.3-0.7-9.8c0-8.6,1.3-17.5,0.1-26.1c-0.4-2.8-0.3-3-3.2-2.9c-2.3,0-4.5,0.1-6.8,0.2
			c-4.5-0.1-9.1,0-13.8,0.1c-1.8,0.1-8.1,1.2-13,1.2v0.1c0.1,3.3-1.6,7.4-1.8,10.9c-0.5,8.4,0.1,17-0.7,25.4
			C520.9,180.5,520.8,180.7,520.8,181z"/>
		<path id="Wireframy-Stuff-3" class="st3" d="M587.1,183.5c-0.6-0.6-1.1-1.4-1.4-2.5c-1.2-3.8-1.3-8-1.4-12
			c-0.2-8.5-0.1-17.1-0.1-25.6c-0.8-1-0.3-2.2,0.7-3.1c2.6-2.2,10.1-1.7,13.4-1.8c4.8-0.3,9.5-0.3,14.3-0.3s10.1,0.1,15.1,0.2
			c1.9,0.1,14.9,0.4,9.1,3.5c-0.3,0.2-0.7,0.3-1.1,0.5c0.2,1.4,0.3,2.9,0.2,3.6c-0.2,4.5-0.4,9.1-0.6,13.6
			c-0.2,5.1-0.4,10.1-0.6,15.2c-0.1,2.7,0.8,8.9-1.3,10.8c-1.4,1.3-2.4,1-3.1,0.2c-5.1,1.5-16.8,0.5-18.9,0.5
			c-3.8,0-24.6,2.5-24.6-2C586.8,184,586.9,183.7,587.1,183.5L587.1,183.5z M590.5,181.9c5.8-1.2,16.6-0.4,18.9-0.4
			c4.2,0,8.5,0,12.7,0.2c1.3,0.1,4.5-0.2,7.1,0.1v-0.6c-0.2-4.6,0-9.2,0.2-13.7c0.1-4.6,0.4-9.2,0.6-13.8c0.1-2.4-0.5-7.3,0.1-10.7
			c-3.1-0.1-6.3-0.4-8.4-0.4c-4.9,0-9.7-0.1-14.6,0c-5.3,0.1-10.6,0.2-15.8,0.9c-0.3,0-0.6,0.1-1,0.2c0.8,3.3-0.2,8.7-0.2,11.7
			c0,8.6,0.3,17.2,0.5,25.8C590.5,181.4,590.5,181.7,590.5,181.9z"/>
		<path id="Fill-135" class="st6" d="M538.3,185.1c-3.1,1.8-1.4,9.1-0.4,11.7c1.8,4.2,5.4,7.4,9.3,9.6c7.9,4.4,19.2,3.2,25.2,10.8
			c0.1,0.1,2.1,2.1,2.6-0.5c0.4-2.2-3.5-5.5-5-6.6c-4.2-3.1-9.7-4.1-14.6-5.6c-5.2-1.6-11-4.7-13.2-10.1
			C541.6,192.4,543,182.3,538.3,185.1"/>
		<path id="Fill-137" class="st6" d="M609.8,188.6c-2.9,0.8-1,4.7-1,6.7c0,2.5-0.8,5-2.3,7c-3.9,5-11.4,5.7-17,7.2
			c-4.1,1-13.9,3.3-14.3,8.8c-0.4,6.2,8.2-1.3,9-1.7c8.1-3,18.6-3.5,24.8-10.1c2.6-2.7,4.1-6.3,4.3-10
			C613.4,194.5,613.5,187.6,609.8,188.6"/>
		<path id="Fill-139" class="st2" d="M571.4,222.6c11.9-3.1,23,5.2,24.4,17.2c1.5,12.7-8.1,22.9-20.7,23.5
			c-11.1,0.5-24.5-7.5-24.6-19.7C550.5,232.1,561.5,225.2,571.4,222.6L571.4,222.6z M577.1,231.2c-2,1.2-2.4-1.9-3.9-2.3
			s-3.8,1.1-5,2c-2.1,1.5-7.7,10.3-10.5,5.5c-8.4,14.4,12.5,25.2,24.3,19.8c13-6,10.5-27.9-4.9-28
			C577.9,229,578.4,230.4,577.1,231.2L577.1,231.2z"/>
		<path id="Fill-141" class="st2" d="M566.3,239.8c0,2.6,4.2,2.6,4.2,0C570.4,237.2,566.3,237.1,566.3,239.8"/>
		<path id="Fill-143" class="st2" d="M573.6,239.3c0,3.2,5.1,3.2,5.1,0S573.6,236,573.6,239.3"/>
		<path id="Fill-145" class="st2" d="M568.4,246.8c-4.2,2.5,7.7,7.3,8.2,2.3c0.2-2.1-1.9-1.6-3.3-1.7
			C572,247.3,569.6,246.1,568.4,246.8"/>
		<path id="Fill-147" class="st6" d="M566.6,264.2c0.2,6.3,0.1,12.5,1.3,18.7c0.2,1.2,0.4,5.4,1.3,6.3c2.3,2.1,2.3-2,2.4-3.5
			c0.3-5.6-0.3-11.4-0.4-17.1c0-1.2,0.3-3.7-0.3-4.9C570,261.8,566.5,261.2,566.6,264.2"/>
		<path id="Fill-149" class="st6" d="M562.1,259.1c-9.1,10.3-21.7,9.5-34.4,10.4c-6.7,0.5-13.5,1.4-18.9,5.8c-2.5,2-4.7,4.5-6.1,7.4
			c-0.6,1.3-3.6,8.5,0.9,6.8c1.6-0.6,3.2-5.4,4.2-6.8c2-2.7,4.5-4.9,7.5-6.4c5.8-2.8,12.8-2.7,19.2-3.1c6.6-0.4,13.7-0.7,19.8-3.6
			c2.9-1.4,5.6-3,7.9-5.2c0.8-0.8,2.6-2.1,2.7-3.3C565.1,259.7,563.8,257.2,562.1,259.1"/>
		<path id="Fill-151" class="st3" d="M516,290.6c-8.6,0.3-17.1,0.6-25.7,1.2c-1.8,0.1-7.6-0.2-6.1,3.4c1.2,2.9,8.3,1,10.7,0.8
			c8.9-0.5,17.9-0.7,26.8-1.5c2-0.2,11-0.1,7.3-3.7C527.2,289.1,518.5,290.5,516,290.6"/>
		<path id="Fill-153" class="st3" d="M478.7,294.7c-2.7,3.6-1.5,12.2-1.3,16.5c0.2,4.1-0.6,11.7,4.8,12.3c-1.7-0.2,1.3,0.1,1.8,0.1
			c1.1,0.1,2.2,0.1,3.3,0.1c2.5,0,5.1,0,7.6-0.1c5.7-0.1,11.5-0.3,17.2-0.6c2.4-0.1,15.5,0,16-2.5c0.7-3.2-11.9-1.4-14.1-1.3
			c-5.5,0.3-10.9,0.3-16.4,0.4c-2.7,0-5.4,0.1-8.1,0c-1.1,0-5.6,0.4-6.2-0.3c-0.6-0.6-0.1-6.5-0.1-7.4c0-2.9,0-5.8,0.1-8.8
			c0.1-2,1.1-5.7,0.3-7.5C482.6,293.9,480.2,293.2,478.7,294.7"/>
		<path id="Fill-155" class="st3" d="M522.9,294.9c0.2,6.5,0.2,13.1,1.7,19.5c0.5,2.1,1.2,6.5,3.4,7.6s4.2-0.5,4.3-2.7
			c0.2-2.8-1.3-6.4-1.6-9.3c-0.4-3.3-0.6-6.7-0.7-10c-0.1-2.5,0.7-6.3-1.7-7.9C526.1,290.6,522.8,292.1,522.9,294.9"/>
		<path id="Fill-157" class="st4" d="M540,293.3c-2.7,2.7-1.5,11.1-1.1,14.5c0.2,2.5,3,14.8,7.1,8.4c1.8-2.8-0.5-10.3-0.5-13.7
			c0-2.1,0.8-4.8,0.4-6.8C545.4,293,542.4,290.9,540,293.3"/>
		<path id="Wireframy-Stuff-4" class="st4" d="M602.7,315.2c0.6,0.6,0.8,1.5,0.5,2.4c-0.9,2.1-4.3,1.7-6.1,1.8
			c-6.1,0.5-12.3,0.9-18.4,0.9c-5.9,0.1-11.9-0.1-17.8,0c-4.9,0-10.1,1.1-15,0.8c-2-0.1-4.2-0.8-3.7-3.4c0.5-2.3,2.8-2.4,4.7-2.6
			c5.8-0.6,11.6-0.8,17.4-0.8c12.2,0,24.5,0,36.7-0.1c0.5,0,1,0.2,1.4,0.5c-0.6-0.8-0.3-1.9-0.5-3c-0.3-3-0.5-6-1.1-9
			c-0.5-2.4-0.8-6.5-3-8.1c-2.4-1.7-7.9-1.1-10.8-1.2c-7.9-0.2-15.8,0.4-23.6,1.1c-3.6,0.3-7.2,0.6-10.7,1.2c-2,0.4-7.7,3.2-9.3,1.5
			c-3.8-4.3,12.8-6,15.1-6.3c8-0.8,16-1.4,24.1-1.5c5.4,0,14.8-0.5,18.8,4c2.4,2.7,3.2,7.1,4.2,10.4c0.7,2.6,2.7,7.2,1.3,9.9
			c-0.6,1.2-1.6,2.2-3.2,1.8C603.2,315.5,603,315.4,602.7,315.2L602.7,315.2z"/>
		<path id="Line" class="st6" d="M643.7,281.4C644,281.7,644,281.7,643.7,281.4 M589.5,254.9c-4.9,2.9,4.1,11.3,6.4,12.6
			c5.2,2.9,12.3,3.4,18,4.2c7.3,1,15.2,1.4,22.3,3.8c3,1,4.9,2.6,6.8,5.1c1,1.2,3.4,6.6,5.6,5.3c4.4-2.5-7.4-13.2-10-14.4
			c-5.9-2.6-12.9-3.3-19.2-4.4c-5.9-0.9-11.9-1.6-17.6-3.3c-3.2-0.9-5.4-2.4-7.2-5.2C593.4,256.8,592.5,253.1,589.5,254.9"/>
		<path id="Wireframy-Stuff-5" class="st3" d="M615.6,316.7c-1.5-2.8-2.1-8.2-2.3-9.2c-0.6-4.6-0.6-9.1-0.5-13.7
			c0-2.5,2.9-3.7,4.8-2.3c2.5-1,6.7-1.2,9-1.4c3.7-0.4,7.5-0.5,11.2-0.7c8.7-0.5,17.5-1.5,26.2-1.7c2.6-0.1,6.1-0.3,8.2,1.6
			c2.4,2.2,2.9,7.7,3.6,10.6c0.8,3.2,1.7,6.5,2,9.7c0.1,0.8,0.3,2.1,0.2,3.3c1.1,0.1,1.7,1.2,1.6,2.4c-0.2,2.1-3.2,2.4-4.9,2.8
			c-5.8,1.1-12,0.9-17.8,1c-12.3,0.3-25.4,2.3-37.6,1.1C617.3,320.1,615.1,319.3,615.6,316.7L615.6,316.7z M620,314.2h1.4
			c6.2-0.1,12.3-0.3,18.5-0.5c6.3-0.2,12.6-0.5,18.9-0.6c5-0.1,10.2,0.4,15.2,0.2c-1.1-2.8-0.9-7.3-1.5-10.2s-0.8-6.4-2-9.1
			c-1.3-3.1-2.5-2.4-5.9-2.1c-3.5,0.2-7.1,0.6-10.6,0.9c-7.8,0.6-15.5,1-23.3,1.6c-4,0.3-7.9,1.4-11.8,1.9c-0.1,1.4-0.3,2.8-0.2,3.8
			c0.1,3,0.4,6,0.6,9C619.4,310.2,619.9,312.3,620,314.2L620,314.2z"/>
	</g>
</g>
<rect x="793" y="0" class="st8" width="181" height="165.6"/>
<rect x="997" y="0" class="st9" width="181" height="165.6"/>
<rect x="1201" y="0" class="st10" width="181" height="165.6"/>
<rect x="1405" y="0" class="st11" width="181" height="165.6"/>
<rect x="1405" y="175.6" class="st12" width="181" height="165.6"/>
<rect x="1405" y="-175.6" class="st13" width="181" height="165.6"/>
<rect x="1201" y="175.6" class="st14" width="181" height="165.6"/>
<rect x="997" y="177.2" class="st15" width="181" height="165.6"/>
<rect x="793" y="177.2" class="st16" width="181" height="165.6"/>
</svg>
