<?xml version="1.0" encoding="utf-8"?>
<!-- Generator: Adobe Illustrator 26.5.0, SVG Export Plug-In . SVG Version: 6.00 Build 0)  -->
<svg version="1.1" id="Layer_1" xmlns="http://www.w3.org/2000/svg" xmlns:xlink="http://www.w3.org/1999/xlink" x="0px" y="0px"
	 viewBox="0 0 890 680" style="enable-background:new 0 0 890 680;" xml:space="preserve">
<style type="text/css">
	.st0{fill-rule:evenodd;clip-rule:evenodd;fill:#E4E4E4;}
	.st1{fill-rule:evenodd;clip-rule:evenodd;fill:#B28B67;}
	.st2{fill-rule:evenodd;clip-rule:evenodd;fill:#0D0D0D;}
	.st3{fill-rule:evenodd;clip-rule:evenodd;fill:#58838C;}
	.st4{fill-rule:evenodd;clip-rule:evenodd;fill:#7BA5AA;}
	.st5{fill-rule:evenodd;clip-rule:evenodd;fill:#A0555E;}
	.st6{fill-rule:evenodd;clip-rule:evenodd;fill:#F0F2F2;}
	.st7{fill-rule:evenodd;clip-rule:evenodd;fill:#D97179;}
	.st8{fill-rule:evenodd;clip-rule:evenodd;}
	.st9{opacity:0.2;fill-rule:evenodd;clip-rule:evenodd;fill:#D9B8B8;enable-background:new    ;}
	.st10{fill-rule:evenodd;clip-rule:evenodd;fill:#997659;}
	.st11{fill-rule:evenodd;clip-rule:evenodd;fill:#D9B8B8;}
	.st12{opacity:0.7;}
	.st13{opacity:0.5;}
	.st14{fill:#0D0D0D;}
	.st15{fill-rule:evenodd;clip-rule:evenodd;fill:#BA9595;}
</style>
<g id="Background-Shape-2">
	<path id="Background-Shape" class="st0" d="M769,411c9.2,68.7-213.7,113.6-405.5,82.3C171.6,462,83.6,339.8,175.2,274.7
		S759.8,342.3,769,411L769,411L769,411z"/>
</g>
<g id="humaaans_standing-23">
	<g id="humaaan-8">
		<g id="Head_Front_Curly">
			<g id="Head">
				<path class="st1" d="M488.4,103.3h-14.9l2.5-17.9c-4,2.4-8,3.6-9.8,3.1c-4.6-1.2-5.1-18.2-1.5-24.9c3.6-6.7,22.1-9.6,23,3.7
					c0.3,4.6-1.6,8.7-4.5,12.1L488.4,103.3L488.4,103.3L488.4,103.3z"/>
			</g>
			<path id="hair" class="st2" d="M458.9,58.3c0.4,0.6,0.9,1.1,1.4,1.6c-0.4,0.2-0.8,0.5-1,0.9c-0.2,0.4-0.3,0.8-0.2,1.2
				c0,0.5,0.2,1.1,0.5,1.5c0.2,0.5,0.5,0.8,0.9,1.2c-0.4,0.1-0.6,0.3-0.8,0.7c-0.1,0.2-0.1,0.3-0.2,0.5c0,0.2-0.1,0.4-0.2,0.7
				c-0.1,0.4,0,0.8,0.1,1.1c0.2,0.3,0.8,0.9,1.3,1.1s2.1,0.1,2.3-0.2c0.5-0.5,0.6-1.4,0.9-2c0.4-0.9,0.8-1.6,1.4-2.4s1.2-1.5,2.1-2
				c0.2-0.1,0.5-0.4,0.6-0.3c0.1,0.1,0.2,0.3,0.3,0.4c0.1,0.1,0.2,0.3,0.4,0.4c0.6,0.5,1.3,0.9,2.1,1.1c0.8,0.3,1.5,0.5,2.2,0.9
				c0.6,0.4,1,1,1.3,1.7c0.3,0.7,0.4,1.4,0.6,2.1c0.3,0.9,0.6,1.8,1.1,2.6c0.2,0.4,0.5,0.8,0.8,1c0.2,0.2,0.6,0.5,0.9,0.3
				c0.1-0.1,0.1-0.2,0.1-0.4c0.1-0.2,1.2-2.5,2.2-2.7c1-0.2,3.4-0.2,4.2,0.2c1.8,0.9,2,3,1.4,4.8c-0.2,0.8-0.6,1.6-1.2,2.2
				c-0.2,0.3-0.6,0.6-0.9,0.7c-0.4,0.1-0.8,0.2-1.2,0.2c0,0.2,0.1,0.4,0.1,0.6c0,0.2,0,0.5,0,0.7c0,0.5,0.1,0.9,0.3,1.3
				c0.1,0.2,0.2,0.4,0.3,0.7c0,0.2,0,0.4,0,0.5c0,0.3,0.1,0.7,0.3,1c0.6,1.2,2.6,1.6,3.6,0.5c0.7,1.4,1.9,2.4,3.4,2.8
				c1.2,0.3,2.9,0.3,3.7-0.8c0.3,0.3,0.7,0.5,1.1,0.7c1.5,0.8,3.4,0.8,4.8-0.1c0.7-0.5,1.3-1.2,1.5-2.1c0.3-0.9,0.2-1.9,0.1-2.8
				c0-0.1-0.1-0.3,0-0.4c0-0.1,0.2-0.1,0.2-0.2c0.2-0.1,0.4-0.2,0.5-0.3c0.3-0.2,0.6-0.6,0.8-0.9c0.4-0.8,0.5-1.8,0.3-2.7
				c-0.1-0.5-0.2-0.9-0.3-1.4c-0.1-0.2-0.1-0.4-0.2-0.7c-0.1-0.2-0.2-0.4-0.3-0.7c0-0.2,0-0.1,0.1-0.2c0,0,0.1-0.1,0.1-0.1
				c0.1-0.1,0.1-0.1,0.2-0.2c0.1-0.2,0.2-0.3,0.3-0.5c0.2-0.3,0.3-0.7,0.4-1c0.1-0.8,0.1-1.6-0.1-2.4c-0.1-0.5-0.2-0.9-0.4-1.4
				c-0.1-0.1-0.2-0.3-0.2-0.4c0-0.1,0-0.1,0-0.2c0.1-0.2,0.2-0.4,0.3-0.6c0.5-1.3,0.5-2.8,0.1-4.1c-0.4-1.2-1.3-2.4-2.5-3
				c-0.3-0.2-0.6-0.3-1-0.3c-0.2,0-0.4-0.1-0.5-0.1c0,0-0.2,0-0.2,0s0-0.2,0-0.2c-0.1-0.7-0.5-1.4-1-2c-0.5-0.6-1.1-1-1.8-1.2
				c-0.1,0-0.2,0-0.3-0.2c-0.1-0.1-0.1-0.2-0.1-0.3c-0.1-0.2-0.2-0.4-0.3-0.6c-0.2-0.4-0.5-0.8-0.8-1.1c-0.6-0.7-1.4-1.3-2.2-1.6
				c-0.5-0.2-0.9-0.2-1.4,0c-0.1,0-1,0.4-1,0.4c0-0.1-0.2-0.2-0.2-0.2c-0.1-0.1-0.2-0.3-0.3-0.4c-0.2-0.3-0.5-0.6-0.9-0.8
				c-0.7-0.5-1.5-0.8-2.4-0.9c-0.8-0.1-1.6-0.1-2.4,0.2c-0.1,0-0.4,0.3-0.6,0.3s-0.4-0.2-0.6-0.3c-0.4-0.2-0.8-0.3-1.2-0.3
				c-0.7-0.1-1.4,0.1-2,0.5c-0.2,0.1-0.1,0-0.2-0.1c-0.1-0.1-0.1-0.2-0.2-0.2c-0.1-0.1-0.2-0.2-0.4-0.4c-0.2-0.2-0.5-0.4-0.8-0.6
				c-1.2-0.9-2.7-1-4.2-1c-1.3,0-2.6,0.3-3.7,1.1c-0.1,0.1-0.3,0.3-0.4,0.3c-0.1,0-0.4-0.2-0.5-0.3c-0.3-0.2-0.6-0.3-1-0.4
				c-0.6-0.2-1.3-0.3-2-0.3c-1.2,0.1-2.5,0.7-3.3,1.6c-0.5,0.5-0.9,1-1.1,1.6c-0.1,0.2-0.1,0.4-0.2,0.6c0,0.1,0,0.2,0,0.2
				c0,0.1-0.1,0-0.2,0c-0.3,0-0.6,0-0.8,0.1c-1.1,0.3-2,1.2-2.3,2.3C457.7,55.7,458.2,57.1,458.9,58.3L458.9,58.3L458.9,58.3z"/>
		</g>
		<g id="Bottom_Standing_Skinny-Jeans-Walk">
			<polygon id="Leg" class="st3" points="459.3,154.7 430.5,292.1 442.5,292.1 463.4,233.8 493.3,154.7 			"/>
			<path id="Leg-2" class="st4" d="M460.4,154.7c7.4,26,21.5,69.4,24.3,74.2c1.9,3.1,21.1,16.6,57.8,40.2l6.2-10.5
				c-30.9-24.6-46.6-37.4-47.1-38.5c-0.8-1.7-0.5-38.2-0.9-65.4L460.4,154.7L460.4,154.7z"/>
			<g id="Accessories_Shoe_Flat-Pointy">
				<path id="Shoe" class="st2" d="M555.5,270.4l-1-0.8l-4.2,7l-15.2,18.1l-1.9-1.6c4.3-9.4,6.8-17.8,7.5-25.4l8.4-10l10.4,7.9
					L555.5,270.4L555.5,270.4L555.5,270.4z"/>
			</g>
			<g id="Accessories_Shoe_Flat-Pointy-2">
				<path id="Shoe-2" class="st2" d="M437.4,303.3V302l-8.1,1.2h-23.6v-2.5c10-2.7,18-6.2,24.2-10.6h13l0.6,13L437.4,303.3
					L437.4,303.3z"/>
			</g>
		</g>
		<g id="Body_Hoodie">
			<path id="Skin" class="st1" d="M445,157.7l-19.6,8.1c-5.5,6.5-8.7,9.2-9.3,8.2c-1-1.6,1.1-3.1,0.7-4.3c-0.5-1.2-4.2-1.1-7.8-0.8
				s-2.5-1.3-1.6-2.1c3.6-2.2,8.1-4,13.5-5.4l19.8-14.6L445,157.7L445,157.7L445,157.7z M524.8,187.1c0.9,1.8,7.5,7.3,12,10.4
				c1.8,1.3,1.1,2.9,0.4,3.3c-5.6,3.5-9.3-0.6-14.2-2.9c-5.3-2.5-4.9,4.5-9.1,2.6c1.3-2.9,4.3-8.4,2.9-11.9c-0.6-1.6-5-15.3-13-41.2
				l13-0.1C520.9,171.4,523.6,184.6,524.8,187.1L524.8,187.1z"/>
			<path id="Coat-Back" class="st5" d="M427.8,167.1l-5.9-7.3c24.4-17.5,32.6-50.6,52.6-67.9l5.4,0.9
				C480.7,121.5,470.2,161.8,427.8,167.1L427.8,167.1L427.8,167.1z"/>
			<path id="Shirt" class="st6" d="M485.8,89.5L472,91.7c0,26-14.1,45.7-17.8,64c-0.3,1.6-0.7,4.7,1.5,4.7h47.5
				C501,130.3,497.1,107.8,485.8,89.5C485.8,89.5,485.8,89.5,485.8,89.5z"/>
			<path id="Coat-Front" class="st7" d="M525,186.5h-10.2c-2-3.5-4.1-7.9-6.4-13.1H471c-5.5-14-2.1-41.8,10.2-83.6l4.3-0.2
				c0.4-0.1,0.8-0.1,1.3-0.1c8.5,0,13.3-3.4,18.7-1.7c5.4,1.6,7.2,6.6,2.1,15.7c-1.2,2.1-2.7,3.4-4.7,4
				C518.6,129.1,526,155.5,525,186.5L525,186.5L525,186.5z"/>
			<path id="Shade" class="st8" d="M508.5,173.4h-13.9c2.6-4.4,4.6-11.6,5.7-21.4C503.2,160.3,505.9,167.4,508.5,173.4L508.5,173.4
				L508.5,173.4z"/>
		</g>
	</g>
</g>
<path id="Leaf-Top" class="st9" d="M346.8,59.3c3.5-1.7,8.2,0.3,6.2,4.9c-2.1,4.9-9.8,5-14.2,4.9c0.4,0,1.8-4.5,2.3-5.2
	C342.6,61.8,344.6,60.3,346.8,59.3L346.8,59.3L346.8,59.3z M306.4,149.1C305.1,150.1,306.3,149.2,306.4,149.1z M350.9,82.2
	c2.1,1.6,2.2,4.4,0.5,6.3c-2,2.3-5.8,2.2-8.6,2c-1.3-0.1-8-0.6-6.4-1.7c-0.1,0.1-0.4,0.2-0.6,0.3c-0.1,0.5-0.3,1.1-0.5,1.6
	c0,0,0.1,0.1,0.1,0.1c0,0-0.1,0-0.1-0.1c-1.6,5.3-3.9,10.3-6.9,15.1c1.1-0.4,2.3-0.8,3.5-0.9c3.5-0.4,10.9,2.3,7,6.9
	c-3.8,4.4-9.6-0.3-13.9-1c-4.1,5.7-8.7,11.2-13.5,16.5c0.3,0.1,0.5,0.3,0.7,0.6c1.9-1,3.9-2.3,5.7-2.7c2.6-0.5,7.8-0.9,9.8,1.4
	c2.4,2.8-0.2,5.1-3,5.6c-4.1,0.8-9.4-1.2-13.4-2.5c-0.5,0.1-0.9-0.1-1.2-0.4c-0.1,0-0.2-0.1-0.3-0.1c-4.9,5.3-9.9,10.4-14.9,15.4
	h0.2c1.3-0.9,2.7-1.5,4.2-1.9c3.5-0.9,7.6-0.9,10.5,1.7c2.8,2.5,3.8,6.9,0.9,9.7c-5.9,5.6-14.5-7.2-17.5-7.7
	c-5.1,5-10.5,9.7-15.9,14.3c0.6-0.2,1.3-0.3,1.9-0.4c5.4-0.5,17.9,6,11.3,12.4c-5.7,5.6-12.4-5.1-17-8.9c-5.1,4.3-10.3,8.5-15.4,13
	c2.7-0.7,5.4-0.8,8.3,0.1c3,0.9,8,3.2,6,7.2c-2,4.1-7.9,2.3-10.9,0.9c-1.7-0.7-5-3.1-8-4.1c-8,7.5-15,15.8-20.2,25.5
	c-3.3,6.1-5.8,12.6-7.5,19.2c-1.1,4.3-3.3,11.4-2.9,17c-2.1-11.1,1.7-24.4,5.8-34.4c3.8-9.1,9.4-17.1,16-24.3
	c-1.7-4.9-15.6-12.1-7.3-16.6c4.4-2.4,9,1.6,9.9,5.9c0.7,2.9-0.4,6.6-1.4,9.5c2.1-2.2,4.2-4.3,6.5-6.4c3.1-2.8,6.2-5.6,9.4-8.3
	c-5.2-4.9-10.2-18.8-3.2-21.1c10.4-3.4,5.4,15.7,4.6,19.2c-0.2,0-0.4-0.1-0.5-0.2c0.1,0.3,0.1,0.7,0.2,1
	c6.1-5.2,12.3-10.3,18.3-15.6c-0.5-0.4-1.4-1.9-2.1-2.7c-1.5-1.8-3-3.7-4-5.8c-1.7-3.3-3.3-8.7,1.2-10.6c4.8-2.1,7.1,3.9,7.2,7.5
	c0,2.5-0.7,4.9-1,7.3c-0.1,0.8,0.3,4.2-0.7,2.7c0,0.5,0.1,0.9,0,1.2c1.1-1,2.1-1.9,3.2-2.9c0-0.1-0.1-0.3-0.1-0.4
	c-0.1-1.1,1-1.5,1.8-1.2c1.4-1.3,2.8-2.6,4.1-4c2.9-2.9,5.8-5.8,8.7-8.9c-0.6-0.5-0.4-1.3-1-1.8c-0.6-0.6-1.7-0.9-2.4-1.4
	c-1.7-1.3-3.2-3.3-4.2-5.2c-1.7-3.1-3.9-9.7,1.1-11.2c5.2-1.6,7.8,4.8,8.1,8.8c0.1,0.8-0.5,7.7-1,10.2c5.4-5.6,10.6-11.4,15.4-17.4
	c-1.5,0-5.6-2.9-6.4-3.8c-2-2-5.2-6.3-1.7-8.6c3.2-2,7,0.9,8.4,3.8c0.2,0.5,1,4.8,1.1,6.8c2-2.5,3.9-5,5.6-7.6
	c1.2-1.7,2.3-3.4,3.3-5.2c-0.2-0.1-0.5-0.4-0.7-0.7c-5.3-0.9-12-9-5.8-11.9c3-1.3,6.1,1.4,7.6,3.7c0.3,0.5,0.8,2.8,1.2,4.7
	c3-5.8,5.2-12.1,6.9-18.4c-0.5-0.1-0.9-0.5-0.9-1.1c-2.6-1.4-4.6-2.7-6.4-5.4c-1.1-1.7-3.1-5.7,0.2-6.6c4.2-1.2,6.9,5.2,7.2,8.3
	c0,0.4,0,1.4,0,2.4c0.1,0,0.3,0,0.4,0c1-3.9,1.8-7.9,2.4-11.9c-2.3-0.7-2.7-12.8-1.2-14.5c3.5-3.8,5.9,1.7,5.7,4.6
	c-0.2,3.5-1.8,6.6-3.7,9.4c-0.2,0.3-0.1,0.3-0.2-0.1c0,0.2-0.1,0.3-0.2,0.5c0.1,1.8,0.3,3.7,0.2,5.3c-0.3,4.6-0.8,9.2-1.6,13.8
	c-0.2,1.1-0.4,2.2-0.7,3.3c1.9-1.6,4.4-3,5.4-3.4C344.4,81.5,348.3,80.2,350.9,82.2L350.9,82.2L350.9,82.2z M222.5,241.8
	c0.1,1.5,0.5,2.8,1.2,3.9C223.2,244.5,222.8,243.2,222.5,241.8z"/>
<g id="humaaans_standing-12">
	<g id="A-Human_Standing">
		<g id="Head_Front_Afro">
			<path id="Hair-Back" class="st5" d="M361,144.8c9.1,0,12.4-10.9,17.5-16.8c3.7-4.3,10-3,11.8-9c4.7-15-7.8-25.6-24.2-25.6
				s-27.4,9.3-29.7,23.2C334.1,130.6,344.7,144.8,361,144.8L361,144.8L361,144.8z"/>
			<g id="Head-2">
				<path class="st1" d="M362,135.1c-3.6-4.3-6.1-9.5-5.7-15.4c1.2-17,24.8-13.2,29.4-4.7c4.6,8.6,4,30.3-1.9,31.8
					c-2.4,0.6-7.4-0.9-12.5-4l3.2,22.8h-19L362,135.1L362,135.1L362,135.1z"/>
			</g>
			<path id="Hair" class="st5" d="M370,124.2c-0.7-0.4-1.5-0.6-2.3-0.6c-2.7,0-4.9,2.1-4.9,4.8c0,1.1,0.4,2.1,1,2.9
				c-1.2,1.9-2,3.9-2.2,6c-4,0-18.6-15.2-4.1-29.4s35.6,6.1,29.3,7.3C383.2,115.8,375.9,119.2,370,124.2L370,124.2L370,124.2z"/>
		</g>
		<g id="Bottom_Standing_Shorts">
			<polygon id="Leg-3" class="st10" points="349.1,231.5 379,329 393.4,412 404.8,412 389.5,231.5 			"/>
			<path id="Leg-4" class="st1" d="M338.5,231.5c2,53.6-0.4,81.2-0.8,86s-6.7,36.4-21.4,96.1l12.1-4.1
				c23.2-54.7,31.2-83.2,33.8-90.4c2.7-7.2,9.7-36.4,21.2-87.6H338.5z"/>
			<g id="Accessories_Shoe_Flat-Sneaker">
				<path id="shoe" class="st2" d="M316.4,409.4c-0.9,2.4-1.3,4.1-1.3,5.3c0,1.4,0.2,3.5,0.7,6.3h44.7c1.2-3.8,0.5-5.9-2-6.2
					c-2.5-0.3-4.6-0.6-6.2-0.8l-20.8-9.3c-0.4-0.2-0.9,0-1,0.4v0l-1.3,3.2c-2.3,1.1-4.2,1.6-5.6,1.6c-1.2,0-2.8-0.5-4.9-1.4l0,0
					c-0.8-0.4-1.7,0-2.1,0.8C316.4,409.3,316.4,409.4,316.4,409.4L316.4,409.4L316.4,409.4z"/>
			</g>
			<g id="Accessories_Shoe_Flat-Sneaker-2">
				<path id="shoe-2" class="st2" d="M390.9,409.4c-0.9,2.4-1.3,4.1-1.3,5.3c0,1.4,0.2,3.5,0.7,6.3H435c1.2-3.8,0.5-5.9-2-6.2
					c-2.5-0.3-4.6-0.6-6.2-0.8l-20.8-9.3c-0.4-0.2-0.9,0-1,0.4v0l-1.3,3.2c-2.3,1.1-4.2,1.6-5.6,1.6c-1.2,0-2.8-0.5-4.9-1.4l0,0
					c-0.8-0.4-1.7,0-2.1,0.8C390.9,409.3,390.9,409.4,390.9,409.4L390.9,409.4L390.9,409.4z"/>
			</g>
			<polygon id="Bottom" class="st4" points="345.2,231.5 357.9,281.2 396.6,281.2 390.8,231.5 			"/>
			<path id="Bottom-2" class="st3" d="M338,231.5c-4.2,12.5-5,29.1-2.4,49.7h39.5l10.9-49.7H338z"/>
		</g>
		<g id="Body_Jacket">
			<path id="Skin-2" class="st1" d="M418.9,218.9l22.5,21.9c6.5,2.8,11.9,5.9,16.1,9.2c0.9,1.1,2,3.3-2.5,2.3
				c-4.4-1-9.1-1.8-9.9-0.4c-0.8,1.4,1.6,3.6,0.1,5.5c-1,1.2-4.5-2.7-10.3-12l-23.4-13.8L418.9,218.9L418.9,218.9L418.9,218.9z
				 M319.2,222l16.6,0.1c-10.2,33-15.8,50.5-16.6,52.6c-1.8,4.5,2,11.5,3.7,15.2c-5.4,2.4-4.8-6.5-11.6-3.4
				c-6.2,2.9-11,8.1-18.2,3.7c-0.9-0.5-1.9-2.6,0.5-4.2c5.8-4,14.2-11,15.4-13.3C310.6,269.5,314,252.6,319.2,222L319.2,222
				L319.2,222z"/>
			<path id="Coat-Back-2" class="st5" d="M366.3,152.4l6.9-1.2c11.8,29.5,32.4,56.3,61.8,80.4l-22.2,27
				C383.4,224.3,365.2,188.9,366.3,152.4L366.3,152.4L366.3,152.4z"/>
			<path id="Shirt-2" class="st11" d="M336.4,238.6h61c-14.1-34.4-21.2-63.6-21.2-87.6l-18.4-2.7
				C343.4,171.5,339.3,200.2,336.4,238.6L336.4,238.6L336.4,238.6z"/>
			<path id="Coat-Front-2" class="st7" d="M357.5,148.2L357.5,148.2h1.2c1.4,0.1,3.6,0.1,6.6,0.3l4.5,12.7
				c0.5,15.5,3.2,46.8,8.2,93.7h-40c0.1,3.2,0.3,6.5,0.5,9.8h-29.8C313.1,214.6,329.4,175.7,357.5,148.2L357.5,148.2L357.5,148.2
				L357.5,148.2z"/>
			<path id="Shade-2" class="st8" d="M340.6,213.4c1.1,20.2,4,34.2,8.6,41.8h-11.2C337.5,240.7,338.3,226.8,340.6,213.4z"/>
			<polygon id="Light" class="st8" points="346.8,230.7 366.6,221.5 366.6,230.7 			"/>
		</g>
	</g>
</g>
<path id="Leaf-Bottom" class="st11" d="M564.2,173.1c-4.9-2.4-11.5,0.4-8.7,6.8c2.9,6.9,13.8,7,19.9,6.9c-0.6,0-2.6-6.4-3.3-7.3
	C570.1,176.7,567.2,174.6,564.2,173.1L564.2,173.1L564.2,173.1z M620.8,296.9C622.1,297.9,620.9,297,620.8,296.9z M559.5,204.4
	c-2.9,2.2-3,6.1-0.7,8.7c2.8,3.1,7.9,3,11.7,2.7c1.7-0.1,10.9-0.9,8.8-2.4c0.2,0.1,0.5,0.2,0.9,0.4c0.2,0.7,0.4,1.5,0.6,2.2
	c0,0-0.1,0.1-0.2,0.1c0.1,0,0.1-0.1,0.2-0.1c2.2,7.3,5.4,14.3,9.5,20.8c-1.5-0.6-3.1-1.1-4.8-1.3c-4.8-0.6-14.9,3.1-9.5,9.5
	c5.2,6.1,13.2-0.4,19-1.4c5.7,7.9,11.9,15.5,18.5,22.8c-0.4,0.1-0.8,0.4-1,0.8c-2.6-1.3-5.4-3.2-7.8-3.8c-3.5-0.7-10.7-1.2-13.4,2
	c-3.3,3.9,0.2,7,4.1,7.8c5.6,1.1,12.9-1.7,18.3-3.5c0.6,0.1,1.3-0.1,1.7-0.6c0.1,0,0.2-0.1,0.3-0.1c6.6,7.3,13.5,14.4,20.4,21.3
	c-0.1,0-0.2,0-0.2,0c-1.8-1.2-3.7-2.1-5.8-2.6c-4.8-1.2-10.5-1.2-14.4,2.3c-3.9,3.5-5.3,9.5-1.2,13.4c8,7.8,19.9-10,24-10.7
	c7,6.9,14.3,13.4,21.8,19.8c-0.8-0.3-1.7-0.5-2.6-0.5c-7.3-0.7-24.5,8.3-15.5,17.1c7.8,7.7,16.9-7.1,23.2-12.3
	c7,5.9,14.1,11.8,21,17.9c-3.8-1-7.4-1.1-11.4,0.1c-4.2,1.3-10.9,4.4-8.2,10c2.7,5.7,10.8,3.1,15,1.3c2.3-1,6.9-4.3,10.9-5.7
	c11,10.4,20.5,21.8,27.7,35.3c4.5,8.4,7.9,17.4,10.3,26.6c1.5,5.9,4.6,15.8,4,23.5c2.9-15.4-2.3-33.8-8-47.5
	c-5.2-12.6-12.9-23.7-22-33.6c2.3-6.8,21.4-16.7,10-23c-6.1-3.4-12.3,2.2-13.6,8.1c-0.9,4,0.5,9.1,2,13.1c-2.8-3-5.8-6-8.9-8.8
	c-4.2-3.9-8.5-7.7-12.9-11.5c7.2-6.8,14-26,4.3-29.2c-14.2-4.6-7.4,21.7-6.4,26.6c0.3,0,0.5-0.1,0.7-0.2c-0.1,0.5-0.2,0.9-0.3,1.4
	c-8.3-7.2-16.8-14.2-25-21.5c0.7-0.5,1.9-2.6,2.8-3.7c2.1-2.5,4.1-5.1,5.5-8c2.3-4.6,4.5-12-1.6-14.7c-6.6-3-9.8,5.4-9.8,10.4
	c0,3.4,0.9,6.7,1.4,10.1c0.2,1-0.4,5.8,1,3.8c-0.1,0.8-0.1,1.3,0,1.7c-1.5-1.3-2.9-2.7-4.4-4c0.1-0.2,0.1-0.4,0.1-0.6
	c0.1-1.5-1.4-2-2.5-1.6c-1.9-1.8-3.8-3.7-5.7-5.5c-3.9-4-7.9-8.1-11.9-12.2c0.9-0.7,0.5-1.8,1.3-2.5s2.4-1.2,3.3-2
	c2.4-1.8,4.3-4.5,5.8-7.1c2.4-4.3,5.4-13.4-1.5-15.5c-7.1-2.1-10.7,6.6-11.2,12.1c-0.1,1.1,0.7,10.6,1.3,14.1
	c-7.3-7.8-14.6-15.8-21.1-24c2,0,7.6-4.1,8.8-5.2c2.8-2.7,7.2-8.7,2.3-11.9c-4.3-2.8-9.7,1.3-11.5,5.2c-0.3,0.6-1.4,6.7-1.5,9.4
	c-2.7-3.5-5.3-7-7.7-10.5c-1.6-2.3-3.1-4.7-4.5-7.2c0.3-0.2,0.7-0.5,1-0.9c7.2-1.2,16.4-12.5,7.9-16.4c-4-1.9-8.4,2-10.4,5.1
	c-0.4,0.6-1.1,3.9-1.6,6.4c-4-8.1-7.1-16.7-9.5-25.4c0.6-0.2,1.2-0.6,1.2-1.5c3.5-2,6.3-3.7,8.7-7.5c1.5-2.4,4.3-7.8-0.2-9.2
	c-5.8-1.7-9.5,7.1-9.9,11.5c-0.1,0.5,0,2,0,3.3c-0.2,0-0.4,0-0.6,0c-1.3-5.4-2.4-10.9-3.2-16.5c3.2-1,3.7-17.7,1.6-20.1
	c-4.7-5.3-8,2.4-7.8,6.4c0.3,4.8,2.5,9.1,5,13c0.3,0.4,0.2,0.4,0.3-0.2c0,0.3,0.1,0.5,0.3,0.6c-0.1,2.5-0.4,5.1-0.3,7.3
	c0.4,6.4,1.1,12.8,2.2,19.1c0.3,1.5,0.6,3.1,0.9,4.6c-2.5-2.2-6-4.1-7.3-4.7C568.3,203.4,562.9,201.7,559.5,204.4L559.5,204.4
	L559.5,204.4z M735.1,425.7c-0.2,2.2-0.6,4.3-1.3,5.9C734.3,429.8,734.7,427.8,735.1,425.7z"/>
<g id="Plant-Right" class="st12">
	<path id="Leaf-Me-Alone_" class="st3" d="M673.2,356.5c12.1-0.6,27,6.4,28.3,19.6c0.9,9.5,0.7,19.1,2.1,28.6
		c1.2,7.6,3.6,14.9,7,21.9c3.2,6.7,9.9,12.4,11.6,19.5c1.1,4.5,0.5,10.9-1,15.4c-1.8,5.4-0.9,5,2.8,9.5c7.2,8.9,13.8,18,18.4,28.6
		c6.6,15.3,11,33.1,8.5,49.8c-0.3,2.1-0.7,9.7-3.6,10.3c-3.3,0.6-1.7-3.8-1.6-5.2c1.1-9,2.1-16.8,0.8-26
		c-5.2-35.2-30.4-58.4-46.9-88.3c-0.9-1.5-2.8-5.2-4.1-7.6c-2.1-3.8-4.2-11.1-7-13.9c-5.3-5.3-0.4,5.4,0.6,7.4
		c1.3,2.6,2.8,5.4,4.1,7.6c6.2,10.5,13,22,19.4,32.9c-27.6,6.3-47-26.9-54.4-48.6C652.1,400,644.8,358,673.2,356.5"/>
	<path id="Leaf-Me-Alone_-2" class="st3" d="M835.1,323.2c-20.2,1.6-33.2,14.9-39.2,33.6c-3.2,10-3.6,20.4-5.4,30.7
		c-2.7,15.5-8.6,27.3-20,38.4c-3.5,3.4-6.2,7-8,10.7c-3.7,3.8-6.9,8-9.2,13.2c-3,6.6-3.9,14.6-0.4,21.2c0.9,1.8,3.3,5.4,5.7,7
		c-9,19.3-14,40.4-13.5,61.4c0.3,12.7,1,25.4,1.7,38.1c0.2,3.4,1.3,9,3,3.3c1.5-5.2-0.4-13.4-0.6-18.9c-0.9-26.6-1.6-50.8,9.4-75.7
		c1.2-2.6,2.4-5.2,3.6-7.8c0.1,0,0.1-0.1,0.2-0.1c0,0,0.1,0.1,0.1,0.1c0.1-0.1,0.2-0.3,0.3-0.5c0.4-0.4,0.7-0.9,1-1.4
		c1-1.4,2.1-2.9,2.1-3.8v0c6.8-11.1,14.6-21.5,22.5-31.8c-0.1,0.1,8.6-11.7,7.3-5.2c-0.7,3.1-7,9.1-9.6,12.5
		c-5.7,7.4-12.4,16.8-18,25.9c-0.8,0.4-1.8,2.5-2.6,4.1c-0.4,0.8-0.8,1.6-1.2,2.3c19.7,6.5,35-6.6,45.5-21.9c0,0,0,0,0,0
		c3.2-4.2,6.4-8.4,10.5-11.7c6.8-5.6,14.1-6.5,22.1-9.3c21.8-7.5,31.1-35.8,34.1-56.7C879.8,357.1,863.5,320.8,835.1,323.2"/>
	<path id="Leaf-Me-Alone_-3" class="st3" d="M795.2,256.8c-20.7,21.6-30.8,51.5-38.7,79.6c-8.9,31.4-14.7,63.3-14.9,96
		c-0.2,21.5-0.7,43.1,0.5,64.5c0.4,7.6,1.2,15.2,2.4,22.8c0.1,0.6,2.8,17.4,5.4,13.5c1.5-2.2-2.8-17.5-3.1-20
		c-1.8-14.3-2.2-28.7-2.1-43c0.1-23.7-0.5-47.2,1.8-70.8c0.4-3.5,0.6-7.2,1.5-10.7c0.9-3.7-0.2-2.1,2.7-3.5c2.8-1.4,6.3-1.2,9.2-3
		c11.6-7,17.5-25,22.1-36.9c5.3-13.5,8.5-27.9,11-42.2c1.9-10.5,3.2-20.9,4-31.4c0.2-3.3,0.2-6.8,0.9-10.1c0.2-0.9,1.1-2.5,1-3.2
		c-0.1-1.7-1.1-2.6-1.2-4C796.9,255.2,796,256,795.2,256.8"/>
	<path id="Base" class="st3" d="M682.2,544.3c0,35.7,28.9,64.6,64.6,64.6s64.6-28.9,64.6-64.6"/>
	<path id="Leaf-Me-Alone_-4" class="st3" d="M752,544.5h-3.4c0.2-4.3,0.5-8.6,1.3-12.8c2.7-16.2,11.3-40,30.1-42.6
		c0.7-0.1,3.2-0.1,6.3,0.1c1.5-0.8,3.1-1.3,4.8-1.4c16-1.2,33.8,11.7,41.6,25.2c6.2,10.8,5.2,25,1.3,36.5
		c-2.6,7.7-8.2,18.7-17.5,18.8c-11.7,0.1-12.3-14.3-12.5-22.8c-0.3-11.2-1.7-21-10.6-28.7c-2.1-1.8-4.3-3.4-6.4-5.1
		c-3.3-2.8-6.9-5.6-7.3-10.1c-0.6-6.3,3-7.4,8.4-6.3c0.9,0.2,10.2,4.4,8.9,1.1c-0.4-1-2-1.8-3.9-2.4c-5-0.5-11-1.2-12.7-0.8
		c-18.6,4.1-25.8,29.8-27.7,46.2C752.3,541,752.1,542.8,752,544.5L752,544.5L752,544.5z"/>
</g>
<g id="Maceta">
	<path id="Base-2" class="st11" d="M96.5,586c0,21.3,1.7,38.5,24.2,38.5S145,607.3,145,586"/>
	<path id="Fill-27" class="st11" d="M127.5,572.8c-0.8,1.4-1.6,2.9-2.2,4.4c0-3,0.2-6.1,0.6-9.2c0.8-5.3,2-10.6,3.1-15.9
		c0.8-3.8,0.8-10.6,3.8-13.7c0.8-0.7,1.1,0.6,1.1,1.2c0,0.1,0-2.3-0.8-1.9c-4.9,2.5-6.4,10.4-8,14.4c-2.3,5.8-4.2,11.7-5,17.7
		c-0.2,1.5-0.3,3-0.3,4.5c-0.2-0.4-0.3-0.8-0.5-1.2c-2.8-6.6-6.6-13-11.3-19c-1.2-1.5-15.8-15.9-17-13.7c0.1,0.3,0.3,0.6,0.7,0.8
		c0,0,0,0,0,0c0.9,1.4,3.3,3.5,4.1,4.8c1.9,3.1,3.4,6.3,4.9,9.5c3.2,6.7,6.2,13.5,9,20.4c0.7,1.6,1.4,3.2,2.1,4.7
		c-7.3-10.6-17.1-20.2-30.6-25.7c4.6,2.3,7.6,6.8,10.7,10.1c3.8,4.1,7.7,8,11.5,12.1c4.4,4.8,9.7,9.8,13.9,15.2
		c4.1,8.7,8.1,17.3,10.6,26.5c-1-3.2-0.1-7.5-0.2-10.8c-0.1-2.6-0.4-5.2-0.9-7.8c0.5,1.2,1,2.3,1.2,3.4c-0.2-1.8-0.4-3.7-0.6-5.5
		c0.6-1.7,1.2-3.3,1.6-4.6c2-6.7,4.4-13.3,7.6-19.7c3-5.9,6.5-11.8,10.2-17.5c1.8-2.7,3.5-5.3,5.3-7.9c1.2-1.7,2.3-4.5,3.9-6.2
		C145.4,551.8,134.1,561.3,127.5,572.8"/>
</g>
<g id="Top-Leaves">
	<path id="Leaf" class="st0" d="M821.8,173.2c-3-9.9-10-17.7-17.3-24.9c-14.2-13.9-21.8-22.5-26.8-42.8c-3-11.9-6-24.6-15.4-33.3
		c-6.8-6.3-18.6-11.6-27.8-7.1c-14.1,8.4-17.9,25.7-16.5,41.1c1.8,19.2,10.7,31,27.9,38c9.7,4,16.1,9.2,21.4,18.4
		c4.2,7.3,6.7,16.5,12,23.1c7.9,9.9,17.8,14.3,30,12.7c-11.4-21-24.8-42.2-40.9-59.9c-1.5-1.8-10.4-8.6-8.6-11.6
		c2-3.3,11.1,9.2,11,9.1c4.7,5.4,9,11.1,13.2,16.8c0,0,0,0,0,0c4.4,5.9,8.7,11.9,13,18c1.7,2.6,3.4,5.2,5,7.8
		c2.3,3.9,6.1,15,9.9,17.4c0.8,0.5,1.6,0.8,2.3,0.9c2.6,4.3,5.2,8.6,7.6,13c6.3,11.5,11.8,23.6,14.3,36.5c0.7,3.8,0.2,17.9,2.8,20.6
		c4.7,5,3.3-4.6,3-7.5c-2.3-24-11-44.5-23.5-64.7C822.4,190,822.9,177.2,821.8,173.2"/>
	<path id="Leaf-2" class="st0" d="M660.2,184.8c5-5.9,16.9-6.9,24.2-6.5c9,0.5,18.3,2.7,26.9,5.4c14.2,4.4,28,12.4,40.4,20.1
		c1.5,0.9,20,12.1,18.4,14c-1.6,1.9-19.8-11.3-23.9-13.6c-8.7-4.9-16.6-10.6-26.1-13.9c-9.9-3.3-20.3-4.6-30.7-4.6
		c-1.3,0-5.7-0.9-5.8,1.1c-0.1,1.9,7.1,0.9,8.4,0.9c5.2,0.1,10.5,0.5,15.7,1.4c9.7,1.7,18.8,5.1,27.1,10.4
		c-2.3,5.4-7.9,7.9-13.7,6.5c-5-1.2-9.9-4-14.8-4.9c-3.4-0.6-6.8-0.2-10.1,0.7c-8.7,2.5-13.7,7.7-23.2,4.1
		C665.6,203.3,653.1,193.2,660.2,184.8"/>
	<path id="Leaf-Me-Alone_-5" class="st0" d="M665.9,129.3h2.3c-0.2-3-0.4-6-0.9-8.9c-1.9-11.1-7.8-27.3-20.8-29.1
		c-0.5-0.1-2.2-0.1-4.4,0.1c-1-0.6-2.1-0.9-3.3-1c-11-0.8-23.4,8-28.7,17.2c-4.3,7.4-3.6,17.1-0.9,25c1.8,5.3,5.7,12.8,12.1,12.8
		c8.1,0.1,8.5-9.8,8.6-15.6c0.2-7.7,1.2-14.4,7.3-19.6c1.4-1.2,3-2.3,4.4-3.5c2.3-1.9,4.8-3.8,5-6.9c0.4-4.3-2-5.1-5.8-4.3
		c-0.6,0.1-7.1,3-6.1,0.7c0.3-0.7,1.3-1.2,2.7-1.6c3.5-0.4,7.6-0.8,8.8-0.6c12.8,2.8,17.8,20.4,19.2,31.5
		C665.6,126.8,665.8,128.1,665.9,129.3L665.9,129.3L665.9,129.3z"/>
</g>
<g id="Plant-Left" class="st13">
	<path id="Leaf-3" class="st3" d="M232.5,250.5c4.2-6,12-21.2,17.9-23.4c3.8-1.4,2.7,12.9,2.8,15.6c0.2,10.5-0.8,21-2.1,31.4
		c-2.3,18.8-9.7,35.6-20,51.6c-5.3,8.2-11.4,16.6-20,21.7c-3.9,2.4-8.7,2.8-12.6,4.8c-4.5,2.4-2.1,0.5-4.1,5.2
		c-2.8,6.5-3.7,15-5.1,22c-6,32.1-20.6,201.6-18.1,234.2c0.2,2.9-3.8,3.6-4,0c-1.1-18.7,8.2-148.3,12.9-190.7
		c4.7-42.4,9.4-79.8,14.1-94.5c5.8-17.8,16.1-39.2,24.8-55.8C223.1,265.1,227.5,257.7,232.5,250.5L232.5,250.5L232.5,250.5z"/>
	<path id="Leaf-4" class="st3" d="M263.7,458.4c10.9-8,22.8,7.1,12.9,15.1c-5.5,4.4-11.2,2.9-14.4-0.8c-2.1,2.5-4,5.2-5.9,7.5
		c-5.7,6.9-11.1,13.9-16.3,21.1c-10.8,14.9-19.9,30.7-29.6,46.2c-9.5,15.3-18.9,30.6-27.5,46.3c-7.3,13.3-17,28.9-19.5,43.4
		c3.8-30.8,18.2-60.5,35.3-87.7c17-27,36.5-56.4,62.8-77.7C258.7,467.7,258.6,462.1,263.7,458.4L263.7,458.4L263.7,458.4z"/>
	<path id="Leaf-5" class="st3" d="M56.2,383.1c6.1,1.2,16.1,15,21.2,20.3c6,6.3,11.4,13,16.6,20c11,15.1,20.9,31.1,29.3,47.8
		c13.7,27.2,24.6,55.2,32.6,84.8c4.9,18.2,8,37,9.9,55.7c0.4,3.5,4.1,30.7-1.3,31.4c-4.8,0.7-3.3-20.6-3.5-23.5
		c-2.6-32.7-10.4-64.5-21.3-95.2c-2.4-6.7-4.6-14.9-8.4-21c-2.7-4.4,0-2.8-4.8-4.5c-4.1-1.4-8.8-1.1-13-2.8
		c-9.2-3.8-16.5-11-22.9-18.4c-12.5-14.3-22.4-29.7-27.6-48c-2.9-10.1-5.5-20.3-7-30.8C55.5,396.3,52.2,382.3,56.2,383.1L56.2,383.1
		L56.2,383.1z"/>
	<path id="Leaf-6" class="st3" d="M80.3,152.8c23.1,40,42,83.9,54.2,128.4c7.4,27,12.6,54.6,17.7,82c8,42.5,15.5,85,17.7,128.3
		c2.2,43.5,6.4,93.7-7.8,135.6c7.1-42.5,0.3-87.8-0.9-130.6c-0.6-20.4-2.2-40.7-4.4-61c-2.1-19.7-5.6-39.3-8.8-58.9
		c-1.6-9.5-3.2-19-4.9-28.5c-0.5-2.8-0.7-11.2-2.5-13.2c-1.8-2-11.1-2.7-13.9-4.2c-5.8-2.9-11.3-7-16.2-11.3
		c-9.3-8.3-17.4-19.1-23.8-29.8c-14.8-24.7-20.7-54.9-20.4-83.5c0.1-5.6,9-65.4,5.4-66.2c0.2-0.2,0.4-0.5,0.6-0.8
		C75,143.6,77.6,148.2,80.3,152.8L80.3,152.8L80.3,152.8z"/>
	<path id="Leaf-7" class="st3" d="M329.1,297c0.4-0.5,2.7-4.1,1.5-3.9c2.4-0.5-3.3,3.9,2.6,1.2c-2.8,2.6-1.2,6.1-1.1,9.7
		c0.1,5.8-0.9,11.5-2,17.2c-1.7,9-4.3,17.7-8,26c-8.1,18.2-21.9,35.6-38.3,47c-8.1,5.6-16,7.5-25.2,10.1c-5.8,1.6-6.3,4.6-9.4,10.3
		c-6.4,11.8-12.8,23.5-18.4,35.7c-6.8,14.5-13.4,29.1-19.6,43.9c-20.9,49.8-37.9,101.4-46.9,154.9c-0.2-31.5,7.1-63.9,16.2-93.9
		c6.7-21.9,15.4-42.9,24.7-63.8c2.2-5,5.7-11.5,6.6-17.1c0.7-3.9-1.4-7.7-2.3-11.8c-3.6-16-3.4-34-0.2-50.1
		c3.5-17.8,13.8-26,31.1-28.5c6.3-0.9,14.4-0.6,20.2-3.3c6.3-2.9,8.9-12.6,12.5-18.8c9.7-16.7,21.1-32.6,34.3-46.7
		c3.6-3.9,7.6-7.5,11.7-10.8C321.8,302.2,327.3,299.6,329.1,297L329.1,297L329.1,297z"/>
	<path id="Base-3" class="st3" d="M135,615.1h61.4c2.8,0,5,2.2,5,5c0,0.2,0,0.5-0.1,0.7l-4.8,32.2c-1.4,9.8-9.9,17.1-19.8,17.1
		h-22.2c-9.9,0-18.3-7.3-19.8-17.1l-4.8-32.2c-0.4-2.7,1.5-5.3,4.2-5.7C134.5,615.1,134.8,615.1,135,615.1L135,615.1L135,615.1z"/>
</g>
<g id="humaaans_sitting-1">
	<g id="A-Human_Sitting">
		<g id="Head_Front_Airy">
			<g id="Head-3">
				<path class="st1" d="M571.3,327c4.6-5.4,7.7-12,7.2-19.5c-1.5-21.4-31.3-16.7-37.1-5.9c-5.8,10.8-5.1,38.2,2.4,40.1
					c3,0.8,9.3-1.1,15.8-5l-4.1,28.8h24L571.3,327L571.3,327L571.3,327z"/>
			</g>
			<path id="hair-2" class="st2" d="M555.2,289.2c3.2-0.5,11.7-0.9,13.2-0.9c1,0,2.1,0.2,2.7-0.7c0.5-0.8,0.3-2,0.5-2.9
				c0.2-1,0.4-2,0.7-3c0.7-2.9,1.7-5.6,3.2-8.1c2.7-4.8,6.8-8.5,11.8-10.7c5.6-2.4,11.9-3,17.9-2.5c6.4,0.5,12.3,2.6,18.3,4.6
				c5.8,1.9,11.9,2.7,17.9,1.7c6.1-0.9,10.7-4.2,15.9-7.4c5.3-3.2,11.3-5.3,17.5-4.8c5.8,0.4,11.2,2.8,16,6.1
				c4.5,3,8.2,6.6,10.3,11.7c2.2,5.5,2.2,11.5-1.5,16.3c-5.4,7-15.3,8.8-23.7,8.6c-4.8-0.1-9.5-1-14-2.6c-6-2.1-11.3-5.7-16.9-8.6
				c-2.7-1.4-5.4-2.5-8.3-3.3c-2.8-0.8-5.5-1.1-8.1,0.5c-2.7,1.8-5.1,3.5-8.1,4.6c-2.9,1.1-6,1.7-9.2,1.6c-6.1,0-12.1-1.9-18-3.2
				c-4.8-1-10-2.1-14.9-1.1c-2,0.4-5,1.3-5.8,3.4c12.5,2.3,17.3,17.7,13.8,29c-1.9,6.1-13.3,13.2-17.7,10c-2.8-2-1.1-4.7,0-6.5
				c2.1-3.4,2.8-7.7-1.1-10.1c-3.4-2-6.9,2.8-7,2.8c-0.9-0.1-8.9-4.6-14.4-11.2c-5.4,0.3-6.3-3.3-5-6.2
				C542.7,293.6,550.8,289.9,555.2,289.2L555.2,289.2L555.2,289.2z"/>
		</g>
		<g id="Bottom_Sitting_Sweat-Pants">
			<g id="Objects_Seat_Ball">
				<ellipse id="Ballsy-Ball" class="st14" cx="589.6" cy="549" rx="77" ry="73.5"/>
			</g>
			<path id="Skin-3" class="st1" d="M444.1,611.2c12.8-28.4,22.1-53,25.8-66.1c6.4-22.3,11.2-41.9,12.4-49.3
				c2.9-17.5-22.5-18.5-25.8-9.8c-5.1,13.1-13.9,56.4-24.6,121.6L444.1,611.2L444.1,611.2L444.1,611.2z M592.7,522.2
				c-11.8-4.7-52.9-19.2-72.8-23.3c-5.7-1.2-11.2-2.3-16.4-3.3c-15.5-3-23.5,24.9-8.6,27.1c37.1,5.3,89.6,10.8,94.1,11.5
				C595.3,535,600.1,525.1,592.7,522.2z"/>
			<path id="Leg-Back" class="st5" d="M494,487.9l63.6-32.4v-7h-7.6c-61.5,15.7-93,25.7-94.3,30.1c0,0,0,0.1,0,0.1
				c0,0-0.1,0.1-0.1,0.1c-12.2,16.8-19.5,98.6-21.9,104.8l23.4,3.5c8.9-33.1,37.5-56.2,36.8-95.9C494.1,490.1,494.1,489,494,487.9
				L494,487.9L494,487.9z"/>
			<path id="Leg-Front" class="st7" d="M552.3,507.1c5.8-1.2,11.2-2.2,15.8-3c29.6-5.2,38.2-21,33.1-55.6h-54.6
				c-8.9,2.6-55.2,22-79.3,32.3c-15.9,6.8-10.9,31.5-1.9,37.9c0,0.4,0.2,0.7,0.5,0.8c48.5,20.1,86.8,9.5,99.6,12.9l5.9-18.7
				L552.3,507.1L552.3,507.1L552.3,507.1z"/>
			<g id="Accessories_Shoe_Flat-Sneaker-3">
				<path id="shoe-3" class="st0" d="M588.7,519.2c3.2,0.3,5.4,0.8,6.8,1.4c1.6,0.8,3.8,2.2,6.7,4.3c-0.9,1.9-9.2,18.8-24.7,50.7
					c-5-0.8-7-2.7-5.9-5.7c1-3,1.9-5.5,2.5-7.5l1-28.7c0-0.5,0.5-1,1-1h0l4.4,0.3c2.5-2,4.2-3.9,5-5.5c0.7-1.3,1-3.4,1.1-6.3l0,0
					c0-1.1,0.9-2,2-2L588.7,519.2L588.7,519.2z"/>
			</g>
			<g id="Accessories_Shoe_Flat-Sneaker-4">
				<path id="shoe-4" class="st0" d="M449.9,605.9c1.1,3,1.7,5.2,1.7,6.7c0,1.8-0.3,4.4-0.9,7.9h-56.4c-1.5-4.8-0.6-7.5,2.5-7.8
					c3.2-0.4,5.8-0.7,7.9-1l26.2-11.7c0.5-0.2,1.1,0,1.3,0.5c0,0,0,0,0,0l1.7,4.1c2.9,1.4,5.3,2,7.1,2c1.5,0,3.5-0.6,6.1-1.8l0,0
					c1-0.5,2.2,0,2.6,1C449.9,605.8,449.9,605.9,449.9,605.9L449.9,605.9L449.9,605.9z"/>
			</g>
		</g>
		<g id="Body_Jacket-2">
			<path id="Skin-4" class="st1" d="M495.6,421.1l-36.2-15.9c-6.4-6.3-12.5-11.1-18.4-14.4c-1.8-0.6-4.8-0.7-1.6,4
				c3.2,4.7,6.4,9.8,5.1,11.5s-5-0.2-6.5,2.5c-1,1.8,5.3,3.9,18.9,6.4L484,436L495.6,421.1L495.6,421.1L495.6,421.1z M642.1,425.5
				l-20.5,4.1c20.6,38.4,31.7,58.8,33.2,61.1c3.4,5.2,0.2,14.7-0.9,19.7c7.3,1.7,4.4-9.3,13.6-7c8.4,2.1,15.5,7.4,23.4,0.2
				c1-0.9,1.7-3.7-1.6-5.1c-8.2-3.5-20.3-10.2-22.2-12.8C664.3,482.2,656,462.1,642.1,425.5L642.1,425.5L642.1,425.5z"/>
			<path id="Coat-Back-3" class="st15" d="M565.9,348.8l-8.7-1.5c-18.8,18.3-26.5,62.2-39.1,68c-11.9,5.5-28.7,0.2-48.7-7l-6.1,13.7
				c18.2,19.7,56.9,36.3,72.6,26.8C561,433.6,566.8,379.5,565.9,348.8L565.9,348.8L565.9,348.8z"/>
			<path id="Shirt-3" class="st6" d="M603.6,457.5h-76.5c-3.5,0-2.8-5-2.3-7.6c5.8-29.4,28.6-61.1,28.6-102.9l22.1-3.5
				C593.7,372.9,600,409,603.6,457.5L603.6,457.5L603.6,457.5z"/>
			<path id="Coat-Front-3" class="st11" d="M611.2,427.7c15.6,28.1,28.7,48.4,39.3,60.8l16-3.1c-10.3-64.1-40.2-111.4-89.8-141.9
				h-8.7c-19.8,67.5-25.3,112.5-16.4,135h68.9C619.5,462.1,616,444.7,611.2,427.7L611.2,427.7L611.2,427.7z"/>
		</g>
	</g>
</g>
<image style="overflow:visible;" width="3642" height="1617" xlink:href="../../../../../../../B3 Squadra/Design/Logotyper/PNG Positiv (svart logga)/B3 CodeRight_Positiv.png"  transform="matrix(1.031206e-02 8.069347e-04 -8.069347e-04 1.031206e-02 555.9984 386.2244)">
</image>
</svg>
