<?xml version="1.0" encoding="UTF-8"?><svg id="Layer_1" xmlns="http://www.w3.org/2000/svg" viewBox="0 0 348.02 329.37"><defs><style>.cls-1{isolation:isolate;opacity:.2;}.cls-1,.cls-2,.cls-3{fill:#d9b8b8;}.cls-1,.cls-4,.cls-5,.cls-6,.cls-7,.cls-8,.cls-9,.cls-10,.cls-11,.cls-3,.cls-12,.cls-13,.cls-14,.cls-15,.cls-16,.cls-17,.cls-18,.cls-19,.cls-20{fill-rule:evenodd;}.cls-21{fill:#c5cfd6;}.cls-4{fill:rgba(13,13,13,.1);}.cls-5{fill:rgba(217,184,184,.4);}.cls-22{opacity:.35;}.cls-6{fill:#48696d;}.cls-7{fill:#58838c;}.cls-8{fill:#2c2c2c;}.cls-9{fill:#7ba5aa;}.cls-10{fill:#0d0d0d;}.cls-11{fill:#d4a181;}.cls-12{fill:#b28b67;}.cls-13{fill:#d97179;}.cls-14{fill:#997659;}.cls-15{fill:#ba8b72;}.cls-16{fill:#a0555e;}.cls-17{fill:#89c5cc;}.cls-18{fill:#c1dee2;}.cls-19{fill:#f0f2f2;}</style></defs><path id="Leaf-Bottom" class="cls-3" d="M145.49,47.99c-3.7-.47-7.26,2.81-4.07,6.33,3.42,3.77,10.37,1.41,14.26-.05-.4,.12-3.07-3.5-3.72-3.96-1.9-1.36-4.19-2.03-6.47-2.32h0s0,0,0,0Zm63.89,66.62c1.03,.4,.09,.04,0,0Zm-59.96-45.56c-1.35,2.05-.57,4.57,1.52,5.73,2.49,1.38,5.74,.16,8.11-.88,1.08-.48,6.81-3,5.07-3.48,.12,0,.38,.02,.67,.08,.29,.43,.59,.85,.9,1.27-.03,.03-.05,.07-.08,.1,.03-.03,.06-.06,.08-.09,3.06,4.19,6.63,7.96,10.73,11.21-1.12-.05-2.25,.02-3.34,.25-3.22,.68-8.86,5.33-3.98,8.23,4.67,2.78,8.34-3.23,11.89-5.11,5.4,3.81,11.1,7.27,16.94,10.5-.23,.17-.39,.42-.44,.73-1.98-.27-4.16-.88-5.84-.67-2.41,.31-7.13,1.62-8.13,4.23-1.23,3.21,1.71,4.44,4.35,4.05,3.82-.56,7.91-3.95,10.94-6.33,.42-.07,.81-.33,.96-.74,.07-.05,.14-.1,.2-.15,5.88,3.19,11.87,6.18,17.8,9.07-.04,.02-.1,.03-.14,.04-1.41-.35-2.85-.54-4.29-.4-3.34,.32-6.96,1.58-8.69,4.68-1.72,3.08-1.24,7.27,2.2,8.87,6.89,3.19,10.52-10.82,12.96-12.21,6.01,2.89,12.17,5.41,18.38,7.81-.6,.02-1.2,.1-1.8,.25-4.85,1.19-13.87,10.79-6.14,14.44,6.74,3.19,9.25-8.34,12.14-13.08,5.84,2.22,11.69,4.41,17.46,6.79-2.63,.2-4.99,.92-7.29,2.59-2.39,1.74-5.99,5.26-3.05,8.27,2.99,3.07,7.58-.4,9.87-2.51,1.25-1.15,3.45-4.31,5.72-6.12,9.35,4.19,18,9.39,25.62,16.4,4.76,4.38,8.95,9.37,12.54,14.74,2.29,3.43,6.44,9.09,7.76,14.14-1.58-10.48-9.03-21.12-15.69-28.65-6.12-6.93-13.54-12.3-21.57-16.66-.07-4.88,9.98-15.46,1.24-16.98-4.64-.8-7.38,4.16-6.91,8.23,.32,2.8,2.35,5.75,4.17,7.94-2.5-1.31-5.06-2.53-7.64-3.67-3.58-1.58-7.19-3.05-10.83-4.5,3.09-5.93,3.15-19.79-3.73-19.67-10.14,.2,.11,15.52,1.85,18.46,.18-.05,.3-.16,.37-.31,.05,.31,.1,.63,.13,.97-6.94-2.73-13.94-5.34-20.82-8.23,.35-.52,.64-2.11,.98-3.03,.77-2.07,1.47-4.18,1.74-6.38,.44-3.47,.21-8.69-4.29-9.07-4.9-.42-5.06,5.62-3.98,8.82,.75,2.21,2.08,4.1,3.14,6.15,.33,.64,1.02,3.8,1.48,2.18,.12,.5,.24,.85,.35,1.09-1.24-.52-2.47-1.05-3.7-1.59,0-.12,0-.26-.04-.39-.28-.97-1.36-1-1.94-.49-1.63-.74-3.26-1.49-4.87-2.28-3.41-1.67-6.88-3.39-10.36-5.18,.39-.67-.06-1.25,.28-1.93s1.26-1.31,1.7-1.99c1.12-1.7,1.78-3.85,2.11-5.86,.54-3.31,.46-9.82-4.41-9.61-5.02,.21-5.37,6.63-4.44,10.25,.18,.7,2.83,6.65,3.99,8.74-6.44-3.33-12.86-6.88-18.89-10.67,1.27-.46,3.96-4.32,4.44-5.28,1.18-2.36,2.67-7.17-1.16-8.11-3.4-.83-5.91,2.96-6.21,5.91-.05,.48,.61,4.61,1.17,6.37-2.51-1.62-4.95-3.28-7.27-4.99-1.54-1.14-3.04-2.33-4.49-3.59,.18-.2,.3-.49,.41-.82,4.35-2.4,7.73-11.66,1.42-12.28-3-.29-4.95,3.15-5.51,5.6-.12,.5,.19,2.72,.41,4.48-4.39-4.28-8.28-9.08-11.74-14.19,.37-.24,.6-.67,.46-1.21,1.8-2.06,3.2-3.74,3.91-6.75,.44-1.87,.98-5.97-2.18-5.82-4.11,.19-4.46,6.69-3.8,9.6,.08,.34,.41,1.28,.73,2.15-.13,.03-.27,.08-.39,.14-2.07-3.19-3.98-6.48-5.76-9.82,1.8-1.36-1.56-12.16-3.44-13.2-4.21-2.35-4.63,3.31-3.56,5.85,1.26,2.99,3.61,5.3,6.13,7.2,.27,.2,.22,.21,.13-.18,.09,.17,.19,.28,.32,.35,.48,1.64,.89,3.35,1.46,4.75,1.65,4.01,3.56,7.95,5.66,11.74,.51,.92,1.04,1.83,1.59,2.72-2.12-.82-4.75-1.29-5.75-1.38-2.58-.22-6.41-.1-8.04,2.37v-.04s.02,0,.02,0Zm161.87,102.63c.39,1.46,.59,2.85,.49,4.1-.07-1.35-.24-2.72-.49-4.1Z"/><g id="Background-Shape-2" class="cls-22"><path id="Background-Shape" class="cls-3" d="M248.11,226.25c-3.17-35.44-173.35-103.85-204.94-70.28-31.59,33.57-1.22,96.58,64.99,112.71,66.21,16.13,143.13-6.98,139.96-42.43Z"/><path id="Background-Shape-2" class="cls-19" d="M148.44,249.28c2.84-30.11,155.28-88.23,183.58-59.71,28.3,28.52,21.14,88.51-38.17,102.22-59.31,13.71-148.25-12.4-145.41-42.51Z"/></g><g id="humaaans_standing-23"><g id="humaaan-8"><g id="Head_Front_Curly"><g id="Head"><path class="cls-12" d="M138.9,112.86h0l2.78-12.93c-1.55-1.81-2.59-4.04-2.42-6.53,.5-7.18,10.5-5.6,12.44-1.98,1.94,3.62,1.71,12.82-.8,13.47-1,.26-3.14-.37-5.31-1.68l1.37,9.65h-8.06s0,0,0,0Z"/></g><path id="hair" class="cls-10" d="M154.8,88.54l-.02,.02c.41-.62,.67-1.4,.46-2.14-.17-.58-.62-1.09-1.22-1.24-.15-.03-.3-.04-.45-.04-.06,0-.07,.02-.1-.02-.02-.03-.02-.1-.03-.13-.03-.1-.05-.21-.09-.3-.12-.33-.34-.64-.59-.89-.48-.47-1.12-.79-1.8-.85-.37-.03-.73,.03-1.08,.15-.18,.06-.35,.14-.52,.23-.05,.03-.22,.16-.27,.15-.05,0-.17-.15-.22-.18-.57-.44-1.27-.6-1.99-.6-.8,0-1.58,.04-2.25,.53-.14,.1-.28,.22-.4,.33-.06,.06-.13,.12-.19,.19-.04,.04-.07,.08-.11,.12-.06,.08-.05,.1-.13,.05-.32-.2-.69-.29-1.07-.24-.23,.03-.44,.1-.65,.18-.07,.03-.23,.15-.31,.15s-.24-.11-.31-.14c-.41-.15-.86-.19-1.29-.12-.45,.07-.89,.25-1.27,.5-.18,.12-.34,.25-.47,.43-.05,.08-.1,.16-.17,.23-.04,.04-.11,.08-.13,.13,.01-.03-.49-.23-.54-.24-.25-.07-.51-.05-.76,.03-.46,.15-.86,.5-1.19,.85-.17,.18-.32,.38-.44,.59-.06,.1-.12,.21-.17,.31-.02,.05-.04,.11-.07,.16-.04,.06-.07,.06-.15,.09-.38,.13-.72,.36-.99,.66-.26,.31-.44,.69-.51,1.09,0,.03,0,.12-.02,.13s-.1,.01-.12,.01c-.1,.01-.2,.03-.3,.05-.18,.04-.36,.11-.52,.19-.65,.32-1.11,.92-1.34,1.6-.24,.71-.24,1.53,.05,2.22,.05,.11,.1,.22,.17,.32,.04,.06,.05,.06,.03,.13-.03,.07-.08,.15-.11,.22-.11,.24-.19,.49-.24,.75-.08,.42-.12,.86-.04,1.28,.04,.19,.1,.39,.2,.56,.05,.09,.11,.17,.17,.25,.03,.04,.07,.08,.11,.12,.02,.02,.05,.04,.07,.06,.05,.06,.05,.01,.03,.1-.03,.12-.11,.24-.15,.35-.04,.12-.09,.24-.12,.36-.08,.25-.14,.5-.18,.76-.08,.49-.06,1.02,.17,1.46,.1,.19,.24,.36,.42,.49,.08,.06,.17,.12,.27,.17,.05,.02,.11,.03,.13,.08,.02,.05-.01,.15-.02,.21-.07,.5-.1,1.02,.04,1.51,.13,.45,.44,.85,.83,1.11,.76,.51,1.78,.49,2.58,.08,.21-.11,.4-.24,.58-.39,.44,.59,1.35,.57,1.99,.4,.8-.22,1.45-.77,1.82-1.51,.51,.62,1.58,.42,1.93-.25,.09-.17,.13-.35,.16-.53,.02-.1,0-.19,.02-.29,.01-.12,.09-.24,.14-.36,.09-.23,.15-.46,.15-.71,0-.13-.02-.25-.03-.38-.01-.11,.02-.22,.04-.33-.21,.03-.46-.02-.65-.08-.19-.06-.37-.22-.5-.36-.31-.32-.5-.76-.63-1.18-.29-.94-.17-2.07,.77-2.58,.44-.24,1.75-.24,2.28-.12,.55,.12,1.17,1.34,1.2,1.45,.02,.07,.01,.16,.08,.21,.14,.1,.38-.08,.48-.17,.18-.15,.31-.36,.42-.56,.25-.45,.44-.93,.58-1.43,.11-.38,.18-.77,.32-1.14,.14-.37,.36-.7,.7-.91,.37-.23,.8-.35,1.21-.49,.4-.15,.8-.32,1.12-.62,.06-.07,.13-.14,.19-.22,.05-.06,.09-.18,.16-.22,.1-.06,.25,.09,.35,.15,.44,.28,.82,.67,1.11,1.1s.54,.84,.74,1.31c.15,.36,.24,.8,.5,1.1,.11,.13,.97,.21,1.25,.1s.59-.4,.68-.59c.09-.19,.12-.39,.08-.6-.02-.12-.07-.23-.1-.35-.02-.1-.04-.19-.09-.29-.09-.17-.25-.3-.44-.35,.2-.18,.36-.4,.48-.64,.12-.25,.22-.56,.25-.84,.02-.23-.01-.46-.13-.65-.13-.21-.36-.34-.56-.46,.3-.24,.56-.53,.78-.85h0Z"/></g><g id="Bottom_Standing_Skinny-Jeans-Walk"><polygon id="Leg" class="cls-7" points="136.24 140.62 152.37 183.31 163.68 214.78 170.13 214.78 154.58 140.62 136.24 140.62"/><path id="Leg-2" class="cls-9" d="M154.02,140.62h-21.77c-.18,14.65-.05,34.37-.46,35.28-.27,.61-8.75,7.54-25.42,20.81l3.33,5.65c19.79-12.76,30.2-20,31.21-21.7,1.52-2.55,9.15-26.03,13.11-40.04h0Z"/><g id="Accessories_Shoe_Flat-Pointy"><path id="Shoe" class="cls-10" d="M102.68,203.08h0l-2.16-2.57,5.61-4.27,4.53,5.4c.35,4.07,1.7,8.63,4.04,13.69l-1.03,.86-8.2-9.77-2.29-3.77-.51,.43h0Z"/></g><g id="Accessories_Shoe_Flat-Pointy-2"><path id="Shoe-2" class="cls-10" d="M166.44,220.81h-3.35s.33-7.05,.33-7.05h7.05c3.34,2.35,7.7,4.25,13.09,5.71v1.34h-12.75s-4.36-.67-4.36-.67v.67s0,0,0,0Z"/></g></g><g id="Body_Hoodie"><path id="Skin" class="cls-12" d="M162.31,142.22h-.01l2.36-5.85,10.71,7.86c2.9,.79,5.33,1.76,7.28,2.93,.46,.42,1.02,1.27-.89,1.12s-3.92-.22-4.18,.44c-.26,.65,.9,1.43,.36,2.31-.35,.58-2.03-.89-5.03-4.41l-10.6-4.39h0Zm-43.06,15.87c.65-1.33,2.09-8.48,4.33-21.44l7.01,.03c-4.33,13.98-6.67,21.4-7.01,22.25-.77,1.92,.87,4.85,1.57,6.43-2.28,1.03-2.04-2.77-4.93-1.43-2.63,1.23-4.64,3.45-7.68,1.57-.38-.23-.79-1.1,.21-1.78,2.47-1.7,6.03-4.65,6.51-5.63h0Z"/><path id="Coat-Back" class="cls-6" d="M171.62,147.29h0c-22.89-2.83-28.57-24.63-28.11-40.07l2.9-.5c10.77,9.3,15.19,27.17,28.38,36.63l-3.17,3.94h0Z"/><path id="Shirt" class="cls-19" d="M140.32,105.43c-6.13,9.85-8.24,21.98-9.45,38.25h25.67c1.17,0,.95-1.7,.78-2.55-1.96-9.86-9.6-20.5-9.6-34.54l-7.41-1.16s0,0,0,0Z"/><path id="Coat-Front" class="cls-7" d="M119.12,157.77h0c-.52-16.75,3.47-30.97,11.95-42.66-1.07-.31-1.93-1.03-2.55-2.16-2.71-4.88-1.73-7.57,1.16-8.45,2.89-.88,5.47,.94,10.08,.94,.25,0,.48,.02,.69,.05l2.32,.13c6.65,22.54,8.48,37.58,5.5,45.12h-20.21c-1.2,2.79-2.34,5.14-3.44,7.05h-5.51Z"/><path id="Shade" class="cls-20" d="M128.06,150.73h0c1.4-3.26,2.86-7.12,4.4-11.58,.64,5.31,1.67,9.17,3.1,11.58h-7.5s0,0,0,0Z"/></g></g></g><g id="humaaans_standing-22"><g id="humaaan-12"><g id="Head_Front_Pony"><g id="Head-2"><path class="cls-11" d="M93.33,152.44c-1.37-2.84-1.96-6.03-.85-9.17,3.1-9.01,15.33-3.53,16.53,1.75,1.27,5.29-2.2,16.95-5.64,16.93-1.37-.02-3.86-1.52-6.17-3.92l-1.57,12.79-10.27-2.75,7.97-15.62Z"/></g><path id="hair-2" class="cls-10" d="M97.03,152.72c-1.94,2.1-4.17,3.49-5.97,3.01-3.34-.89-4.51-6.02-3.24-10.78l.14-.51c-4.18,1.49-8.22,5.5-12.84,4.27-6.36-1.7-5.48-15.23,3.44-12.84,6.03,1.62,8.81,3.32,10.97,5.28,.89-1.27,1.99-2.29,3.18-2.86,.33-.19,.72-.36,1.22-.43,.29-.06,.65-.1,.94-.16,1.7-.16,4.05,.05,6.57,.66l1.35,.36c.64-2.38,3.06-3.72,5.44-3.08s3.79,3.08,3.15,5.45-2.92,3.69-5.2,3.22c-1.39,.04-3.14-.09-5.04-.46,.02,.69-.12,1.48-.36,2.38-.21,.77-.48,1.52-.89,2.31-.26-.55-.76-1.03-1.27-1.17-1.54-.41-2.89,.53-3.26,1.88-.35,1.56,.29,3.04,1.68,3.48Z"/></g><g id="Bottom_Standing_Jogging"><polygon id="Leg-2" class="cls-15" points="78.26 207.16 111.16 262.19 135.81 308.71 141.13 308.71 99.79 207.16 78.26 207.16"/><g id="Accessories_Shoe_Flat-Sneaker"><path id="shoe" class="cls-3" d="M132.57,306.54c-.47,1.33-.73,2.33-.73,2.99,0,.8,.13,1.99,.4,3.52h24.99c.66-2.13,.27-3.32-1.13-3.46-1.4-.2-2.59-.33-3.46-.47l-11.63-5.18c-.2-.07-.47,0-.6,.2h0l-.73,1.79c-1.26,.6-2.33,.93-3.19,.93-.66,0-1.6-.27-2.72-.8h0c-.4-.2-.93,0-1.2,.47h0Z"/></g><path id="Pant" class="cls-13" d="M128.97,301.27l10.24-3.12c-4.52-13.43-9.97-28.18-16.55-44.33-6.51-16.15-13.49-31.7-21-46.66h-28.91c8.31,18.94,17.15,36.22,26.45,51.71,9.37,15.49,19.27,29.64,29.77,42.4Z"/><path id="Leg-3" class="cls-11" d="M76.06,207.16c-3.12,19.34-9.11,44.06-9.64,44.79-.4,.53-13.96,5.05-40.74,13.62l1.13,4.72c31.9-4.59,48.72-8.17,50.44-10.7,2.59-3.79,15.42-33.9,20.4-52.44h-21.6Z"/><path id="Pant-2" class="cls-13" d="M35.12,261.52l1.99,7.58c23.86,2.13,38.48,.6,43.86-4.52s11.5-24.26,18.41-57.42h-27.58c-4.39,27.18-6.78,41.27-7.31,42.47s-10.3,5.12-29.38,11.9Z"/><g id="Accessories_Shoe_Flat-Sneaker-2"><path id="shoe-2" class="cls-3" d="M27.02,263.66c-1.39-.23-2.42-.32-3.07-.2-.79,.14-1.94,.48-3.4,1,.16,.92,1.6,9.1,4.34,24.61,2.21,.29,3.32-.32,3.21-1.71s-.12-2.61-.14-3.48l3.09-12.35c.03-.21-.08-.46-.3-.55h0l-1.89-.41c-.81-1.14-1.32-2.13-1.47-2.98-.12-.65-.02-1.62,.31-2.82h0c.12-.49-.17-.98-.67-1.1h0Z"/></g></g><g id="Body_Trench-Coat"><path id="Skin-2" class="cls-11" d="M117.37,203.61l12.14,12.67c3.61,1.72,6.53,3.51,8.82,5.47,.5,.63,1.02,1.87-1.43,1.23s-5.06-1.16-5.54-.37,.85,2.04-.07,3.09c-.6,.7-2.41-1.64-5.54-6.85l-12.81-8.13,4.43-7.12Zm-62.21-15.36l7.42,2.72c-12.02,16.1-18.45,24.62-19.28,25.55-1.84,2.04-1.13,6.41-.92,8.68-3.28,.23-1.26-4.34-5.5-4.01-3.84,.34-7.33,2.15-10.26-1.54-.39-.47-.51-1.71,1.05-2.11,3.82-1.01,9.58-3.04,10.64-4.06,1.44-1.3,7.04-9.69,16.87-25.24Z"/><path id="Back-Arm" class="cls-7" d="M120.45,205.3c1.79,.18,3.7,.85,5.68,1.88,.99,.51,1.32,1.72,.81,2.71-.3,.55-.84,.93-1.46,1.02,.35,.33,.68,.73,1.03,1.06l-4.8,6.58c-13.49-10-26.39-17.95-30.6-31.24-1.38-4.43,1.79-18.18,2.41-23.26l4.98-1.08c4.24,14.58,10.81,29.04,21.96,42.34Z"/><path id="Shirt-2" class="cls-10" d="M68.94,208.02c13.48,3.93,24.28,5.83,32.4,5.71,1.02-.02,1.69-4.22,1.44-5.48-3.92-19.11-6.26-33.02-4.06-45.46-1.42,.42-3.67,.16-6.86-.87-10.89,11.24-17.48,25.26-22.91,46.1Z"/><path id="Coat-Front-2" class="cls-7" d="M66.02,209.67c-.38-.54-.52-1.24-.28-1.87l.43-1.27c.28-.83,1.12-1.36,1.99-1.34,.25-.63,.49-1.26,.74-1.89,1.81-5.28,1.25-10.91,2.3-16.13-8.05,4.72-16.16,13.95-24.32,27.7l-7.82-3.88c.53-1.12,1.06-2.18,1.59-3.3-.89-.7-1.56-3.38-.64-3.62,.93-.31,1.83-.42,2.78-.45,11.54-21.45,26.84-35.89,45.85-43.41l2.36,.42,2.62,.46c-4.84,19.05,7.87,64.82-5.48,99.59-13.47,.59-30.34-11.63-49.61-7.6,3.14-14.36,19.57-29.08,27.49-43.4h0Z"/><polygon id="Shade-Lapel" class="cls-4" points="90.33 160.98 86.88 167.52 90.49 173.49 85.64 176.89 92.6 195.59 83.48 176.51 88.2 173.09 85.01 167.8 90.33 160.98"/><path id="Buttons" class="cls-5" d="M88.5,201.62c-.98-.17-1.63-1.1-1.46-2.08s1.1-1.63,2.08-1.46,1.63,1.1,1.46,2.08-1.1,1.63-2.08,1.46Zm.46,10.41c-.98-.17-1.63-1.1-1.46-2.08s1.1-1.63,2.08-1.46,1.63,1.1,1.46,2.08c-.24,.97-1.16,1.62-2.08,1.46Zm-1.38,10.15c-.98-.17-1.63-1.1-1.46-2.08s1.1-1.63,2.08-1.46,1.63,1.1,1.46,2.08-1.1,1.63-2.08,1.46Z"/></g></g></g><g id="humaaans_standing-12"><g id="A-Human_Standing"><g id="Head_Front_Afro"><path id="Hair-Back" class="cls-16" d="M288.02,102.28h0c8.62,0,14.22-7.49,12.96-14.83-1.25-7.34-7.06-12.22-15.68-12.22s-15.22,5.56-12.75,13.47c.98,3.14,4.3,2.47,6.24,4.72,2.72,3.14,4.46,8.86,9.23,8.86h0Z"/><g id="Head-2"><path class="cls-12" d="M287.5,97.17h0l3.45,16.1h-10.04s1.7-12.02,1.7-12.02c-2.71,1.63-5.37,2.42-6.62,2.1-3.13-.81-3.42-12.27-1-16.78,2.43-4.52,14.88-6.49,15.51,2.46,.22,3.11-1.09,5.87-3.01,8.14h0Z"/></g><path id="Hair" class="cls-16" d="M283.27,91.42h0c-3.08-2.63-6.95-4.46-8.87-4.82-3.34-.63,7.77-11.37,15.46-3.84s-.03,15.53-2.14,15.53c-.13-1.09-.55-2.14-1.16-3.15,.33-.42,.52-.94,.52-1.51,0-1.39-1.15-2.51-2.57-2.51-.45,0-.86,.11-1.23,.3h0Z"/></g><g id="Bottom_Standing_Shorts"><polygon id="Leg-3" class="cls-14" points="273.02 147.98 264.97 243.17 270.94 243.17 278.56 199.43 294.3 147.98 273.02 147.98"/><path id="Leg-4" class="cls-12" d="M276.22,147.98c6.06,27.02,9.79,42.43,11.2,46.22,1.4,3.79,5.58,18.78,17.84,47.65l6.37,2.19c-7.76-31.47-11.03-48.11-11.27-50.67s-1.5-17.13-.43-45.38h-23.71Z"/><g id="Accessories_Shoe_Flat-Sneaker-3"><path id="shoe-3" class="cls-10" d="M311.58,241.81h0s-.01-.04-.02-.05c-.19-.42-.69-.6-1.11-.41h0c-1.1,.5-1.95,.75-2.57,.75-.76,0-1.76-.28-2.98-.85l-.71-1.71h0c-.09-.22-.34-.32-.55-.22l-10.96,4.89c-.88,.13-1.97,.27-3.29,.44-1.32,.16-1.67,1.26-1.06,3.28h23.58c.25-1.44,.37-2.55,.37-3.3,0-.62-.23-1.56-.7-2.81h0Z"/></g><g id="Accessories_Shoe_Flat-Sneaker-2"><path id="shoe-2" class="cls-10" d="M272.27,241.81h0s-.01-.04-.02-.05c-.19-.42-.69-.6-1.11-.41h0c-1.1,.5-1.95,.75-2.57,.75-.76,0-1.76-.28-2.98-.85l-.71-1.71h0c-.09-.22-.34-.32-.55-.22l-10.96,4.89c-.88,.13-1.97,.27-3.29,.44-1.32,.16-1.67,1.26-1.06,3.28h23.58c.25-1.44,.37-2.55,.37-3.3,0-.62-.23-1.56-.7-2.81h0Z"/></g><polygon id="Bottom" class="cls-9" points="272.31 147.98 269.26 174.19 289.7 174.19 296.39 147.98 272.31 147.98"/><path id="Bottom-2" class="cls-7" d="M274.82,147.98l5.73,26.21h20.85c1.37-10.87,.94-19.61-1.26-26.21h-25.33Z"/></g><g id="Body_Jacket"><path id="Skin-2" class="cls-12" d="M257.48,141.34h.01l3.93,6.81-12.32,7.26c-3.09,4.87-4.9,6.97-5.44,6.31-.81-.99,.48-2.15,.04-2.91-.44-.75-2.91-.32-5.24,.19-2.33,.51-1.79-.63-1.3-1.23,2.2-1.77,5.02-3.4,8.47-4.87l11.84-11.55h0Zm52.57,1.63h0c2.78,16.15,4.58,25.06,5.4,26.72,.6,1.22,5.04,4.91,8.11,7.02,1.23,.85,.72,1.93,.26,2.22-3.8,2.34-6.29-.43-9.58-1.96-3.6-1.67-3.29,3.05-6.14,1.78,.88-1.96,2.92-5.61,1.96-8.01-.43-1.07-3.34-10.3-8.74-27.72l8.74-.04h0Z"/><path id="Coat-Back-2" class="cls-16" d="M285.23,106.3h0c.57,19.24-8.99,37.92-24.5,56.01l-11.72-14.24c15.52-12.71,26.38-26.84,32.61-42.39l3.62,.62h0Z"/><path id="Shirt-2" class="cls-3" d="M300.99,151.75h0c-1.51-20.28-3.67-35.39-11.3-47.67l-9.71,1.44c0,12.68-3.73,28.09-11.19,46.22h32.2s0,0,0,0Z"/><path id="Coat-Front-2" class="cls-13" d="M289.9,104.08h0c14.8,14.5,23.37,34.99,25.72,61.47h-15.69c.13-1.75,.22-3.47,.27-5.18h-21.11c2.65-24.78,4.1-41.26,4.35-49.44l2.35-6.71c1.55-.07,2.71-.12,3.46-.14h.63s0,0,0,0Z"/><path id="Shade-2" class="cls-20" d="M300.2,160.53h-5.9c2.41-4.04,3.91-11.4,4.51-22.07,1.18,7.04,1.65,14.39,1.39,22.07Z"/><polygon id="Light" class="cls-20" points="285.1 147.56 285.1 142.72 295.51 147.56 285.1 147.56"/></g></g></g><g id="Plant"><g id="Succulents"><path id="Thi-Succs_" class="cls-18" d="M278.63,243.74c2.64,6.26,7.12,10.61,9.49,17.13,1.41,3.86,1.99,8.06,2.03,12.36,.02,2.34-.02,4.67-.03,7.01-.01,2.28-.07,4.54-.27,6.8-.19,2.28-.41,4.52-.51,6.81-.07,1.78-.11,3.86-.71,5.49-.48,1.29-1.7,1.48-2.03-.09-.18-.87-.16-1.85-.14-2.74,.03-1.15,.09-2.3,.13-3.45,.14-4.62-.04-9.23,.05-13.85,.09-4.51,.67-9.02,.03-13.5-.53-3.7-1.88-6.88-3.42-9.92-1.49-2.93-3.11-5.79-4.11-9.12-.29-.96-.51-1.95-.62-2.98,.05-.02,.08,0,.11,.05Z"/><path id="Thi-Succs_-2" class="cls-17" d="M277.91,256.09c.52,.38,.81,.93,1.17,1.47,.44,.68,.95,1.29,1.39,1.96,.91,1.41,1.72,2.91,2.55,4.38,1.58,2.79,2.78,5.76,3.38,8.98,.62,3.34,.78,6.79,1.04,10.18,.27,3.59,.55,7.21,.59,10.82,.02,1.62,.1,3.33-.09,4.94-.12,1-.57,1.85-1.59,1.84-2.16-.02-3.17-2.41-3.6-4.37-.62-2.89-.75-5.96-.65-8.91,.12-3.56,.74-7.07,1-10.62,.28-3.76,.12-7.45-1.17-10.98-.65-1.79-1.41-3.53-2.09-5.31-.29-.76-.53-1.53-.92-2.24-.43-.78-.97-1.49-1.32-2.34,.1,.06,.19,.12,.29,.18Z"/><path id="Thi-Succs_-3" class="cls-18" d="M302.79,248.6c.07-.05,.13-.1,.2-.15-.19,.8-.54,1.46-.8,2.19-.24,.66-.36,1.41-.52,2.13-.37,1.7-.81,3.35-1.16,5.06-.7,3.38-.57,7.03-.11,10.78,.43,3.55,1.12,7.09,1.45,10.63,.27,2.94,.39,5.97,.13,8.78-.18,1.9-.75,4.18-2.32,3.99-.74-.09-1.12-.98-1.28-1.98-.25-1.61-.3-3.3-.4-4.91-.22-3.58-.26-7.14-.3-10.68-.04-3.34-.15-6.74,.07-10,.22-3.14,.89-5.97,1.85-8.58,.51-1.38,.99-2.78,1.56-4.09,.27-.63,.61-1.18,.88-1.81,.22-.51,.39-1.02,.75-1.35Z"/><path id="Thi-Succs_-4" class="cls-18" d="M278.58,266.44c.29-.48,.91,1.1,1.01,1.3-.04-.1-.08-.2-.12-.3,.57,.94,1.09,1.92,1.41,3,.32,1.07,.59,2.16,.89,3.24,.56,2.02,1.29,3.99,1.79,6.02,.5,1.99,.62,3.94,.5,6-.12,2.14-.2,4.31-.06,6.44,.07,1.02,.4,1.97,.63,2.95,.23,.98,.41,1.98,.68,2.95,.06-.13,.07,.3,.07,.33,0,.24-.04,.45-.11,.68-.2,.59-.58,1.09-1.15,1.26-1.03,.29-1.99-.64-2.32-1.63-.48-1.42-.74-2.99-.97-4.49-.21-1.37-.26-2.75-.2-4.14,.12-2.74,.62-5.44,.75-8.18,.15-2.98-.44-5.78-.94-8.68-.24-1.4-.47-2.78-.93-4.12-.19-.54-.43-1.02-.69-1.51-.15-.28-.44-.79-.25-1.12Z"/><path id="Thi-Succs_-5" class="cls-7" d="M286.95,261.79c-.12,3.42-.32,6.8-.78,10.18-.46,3.45-1,6.88-1.45,10.34-.44,3.36-.89,6.77-.83,10.18,.04,2.51-.37,6.75,2.42,7.99,2.82,1.25,3.43-4.1,3.61-5.87,.36-3.39,.24-6.82,.07-10.23-.18-3.5-.47-6.98-.84-10.47-.41-3.87-.73-7.76-.98-11.65-.13-1.92-.16-3.84-.12-5.76,.03-1.81-.04-3.65-.68-5.37-.03,.02-.07,.05-.1,.07"/><path id="Thi-Succs_-6" class="cls-17" d="M301.52,272.6c-.51,.74-1.02,1.47-1.5,2.25-.86,1.4-1.63,2.96-1.87,4.96-.49,4.19-.1,8.72,0,13.04,.02,.88-.09,1.74,.26,2.58,.32,.76,.91,1.34,1.47,1.34,1.2,0,1.02-2.96,1.02-4.25,0-2.27-.25-4.57-.23-6.85,.02-2.25,.16-4.51,.49-6.65,.33-2.16,.81-4.24,1.45-6.18,.09-.27,.72-2.35,.12-1.99"/><path id="Thi-Succs_-7" class="cls-7" d="M296.2,250.24c-.79,0-.79,3.95-.81,4.45-.09,1.83-.07,3.66-.12,5.49-.12,3.99-.27,8.02-.87,11.97-.32,2.12-.7,4.24-1.1,6.35-.4,2.11-.95,4.23-1.21,6.37-.26,2.06-.11,4.16-.08,6.23,.03,2.08,.1,4.17,.37,6.23,.07,.51,.15,1.02,.23,1.52,.07,.42,.03,.94,.15,1.35,.19,.64,1.01,.85,1.56,.75,1.49-.27,2.44-2.14,2.95-3.51,.65-1.75,.99-3.64,1.33-5.48,.39-2.08,.61-4.2,.72-6.32,.22-4.31-.06-8.63-.37-12.92-.17-2.39-.37-4.77-.67-7.14-.3-2.36-.69-4.72-.94-7.09-.18-1.72-.36-3.45-.48-5.18-.03-.41-.05-3.06-.66-3.06"/><path id="Thi-Succs_-8" class="cls-17" d="M295.21,278.93c-.13-4.14-1.79-22.34-2.17-27.35-.09-1.25-1.01-6.48-1.13-7.9-.32,.4-.29,6.66-.29,8.09,0,1.42-.17,2.82-.26,4.23-.09,1.44-2.23,20.08-2.5,21.46-.55,2.76-.92,5.59-1.2,8.41-.28,2.75-.71,5.65-.34,8.41,.09,.64,.22,1.26,.44,1.85,.24,.63,.4,1.22,.59,1.88,.31,1.06,.86,2,1.71,2.44,1.75,.9,2.68-1.14,3.16-2.91,.76-2.84,1.25-5.72,1.47-8.69,.25-3.29,.63-6.6,.52-9.91"/></g><g id="Planter"><rect id="Vase" class="cls-2" x="276.73" y="291.12" width="27.15" height="27.15" rx=".6" ry=".6"/><rect id="Leg-4" class="cls-21" x="273.74" y="294.1" width="2.98" height="33.72" rx=".6" ry=".6"/><rect id="Leg-5" class="cls-21" x="288.66" y="294.1" width="2.98" height="33.72" rx=".6" ry=".6"/><rect id="Leg-6" class="cls-21" x="303.88" y="294.1" width="2.98" height="33.72" rx=".6" ry=".6"/></g></g><g id="humaaans_sitting-5"><g id="A-Human_Sitting"><g id="Head_Front_Hijab-1"><g id="Head-3"><path class="cls-12" d="M223.73,193.92c2.17-2.55,3.64-5.67,3.39-9.17-.71-10.08-14.74-7.86-17.47-2.78-2.73,5.09-2.41,18,1.12,18.91,1.41,.36,4.4-.53,7.46-2.36l-1.91,13.55h11.31l-3.89-18.14Z"/></g><g id="Hijab"><path id="Front" class="cls-8" d="M212.2,178.62c.26-.15,.8-.48,1.08-.6,.06-.03,.52-.35,.53-.35,.34,.12,1.34,.55,1.43,.92,.01,.03,.03,.05,.04,.08,.14,.26,.27,.52,.39,.79,.27,.58,.51,1.2,.73,1.8,.44,1.18,.81,2.39,1.16,3.6,.35,1.23,.66,2.48,.99,3.72,.48,1.78,1.1,3.52,1.59,5.3,.31,1.14,.48,2.29,.4,3.46,0,.01,0,.03,0,.04,0,0,0,.01,0,.02-.01,.18-.03,.36-.06,.54-.02,.15-.05,.31-.07,.47-.44-.88-.78-1.84-1.13-2.76-.03-.09-.07-.18-.1-.27-.11-.19-.23-.37-.35-.55-.75-1.16-1.5-2.31-2.21-3.49-1.29-2.12-2.56-4.29-4.09-6.24-.45-.58-.91-1.14-1.36-1.72-.25-.33-.5-.67-.74-1.01-.17-.24-.91-1.1-.64-1.61,.14-.26,1.75-1.72,2.42-2.12Z"/><path id="Turban" class="cls-3" d="M213.19,178.07c-.25,.08-.13-.44,.11-.62,1.13-.85,5.45-1.16,9.21-.38,2.52,.52,5.45,1.82,7.46,3.5,1.81,1.51,3.06,3.93,3.7,6.26,.67,2.45,.78,5.01,.4,7.53-.08,.55-.26,1.08-.36,1.62-.11,.61-.17,1.2-.37,1.79-.12,.36-.33,.72-.43,1.08-.12,.42-.05,.8,.04,1.22,.14,.69,.31,1.38,.56,2.04,.37,.99,.82,1.92,1.11,2.94,.38,1.37,1.95,5.81,.8,7.03h-21.92c.55-1.51,2.21-3.28,2.54-4.89,.2-.95,.29-3.02,.31-3.1,.49-3.4,1.46-5.03,2.06-5.62,.6-.59,1.41-.77,1.45-1.28,.17-2.12-.67-4.14-1.29-6.12-.74-2.35-1.27-4.77-2.03-7.11-.34-1.04-2.07-6.32-3.37-5.88Z"/><path id="Shade-2" class="cls-20" d="M220.88,180.5c.83,2.62,1,4.02,.83,7.6h.41c.76-3.38,.08-6.56-.72-7.6h-.51Zm11.09,6.77c-1.54,3.74-2.24,5.94-6.54,8.97l.33,.23c4.27-2.42,5.51-5.31,6.53-9.04l-.32-.16Zm-6.33-3.8c-.7,5.3-.9,8.33-4.55,14.14l.39,.12c3.75-5.05,4.34-9.18,4.52-14.23l-.36-.03Zm4.03,15.76l-.33-.4c-4.53,1.42-4.02,4.34-9.72,7.31l.48,.29c4.99-2.06,6.16-6.48,9.58-7.19Z"/></g></g><g id="Bottom_Sitting_Skinny-Jeans-1"><g id="Objects_Seat_Cube"><g id="Seat"><polygon id="Seat-Stuff" class="cls-19" points="248.06 270.96 211.66 270.96 206.89 329.37 261.07 329.37 248.06 270.96"/><polygon id="Seat-Stuff-2" class="cls-4" points="248.06 270.96 236.86 270.96 230.16 329.37 261.07 329.37 248.06 270.96"/></g></g><path id="Skin-3" class="cls-12" d="M170.17,260.95c-3.88-2.33-10.39,.66-10.39,4,.01,9.97,9.11,56.96,9.59,59.93,.48,2.97,5.56,3.76,5.86,0,.47-5.96,1.35-26.59,.47-36.14-.36-3.94-.75-7.7-1.14-11.05,4.77,8.62,12.16,20.97,22.15,37.04l5.43-2.48c-4.26-14.04-7.75-23.95-10.48-29.73-4.67-9.9-9.05-18.38-10.89-21.37-2.9-4.7-7.94-3.06-10.61-.21Z"/><path id="LegLower" class="cls-16" d="M201.76,304.46l-18.62-44.11c-4.46-7.18-16.97,1.46-15.45,5.62,3.45,9.45,21.02,40.04,22.05,42.86l12.02-4.36Z"/><g id="Accessories_Shoe_Flat-Sneaker-4"><path id="shoe-4" class="cls-10" d="M202.79,309.48c1.16,.95,1.91,1.73,2.26,2.34,.42,.74,.92,1.88,1.49,3.43l-23.01,13.29c-1.74-1.63-2.01-2.9-.81-3.8,1.2-.9,2.19-1.66,2.96-2.28l7.94-10.94c.15-.21,.45-.26,.66-.1,0,0,0,0,.01,0l1.65,1.27c1.51-.13,2.64-.41,3.39-.84,.61-.35,1.3-1.08,2.09-2.18h0c.3-.42,.89-.52,1.31-.22,.02,.01,.04,.03,.05,.04Z"/></g><g id="Accessories_Shoe_Flat-Sneaker-5"><path id="shoe-5" class="cls-10" d="M176.42,322.5c.53,1.41,.79,2.46,.79,3.16,0,.85-.14,2.09-.42,3.72h-26.57c-.69-2.28-.29-3.52,1.2-3.7,1.49-.18,2.72-.35,3.71-.49l12.35-5.51c.24-.11,.52,0,.62,.24,0,0,0,0,0,.01l.79,1.93c1.38,.64,2.5,.96,3.36,.96,.7,0,1.67-.28,2.9-.85h0c.47-.22,1.03,0,1.25,.46,0,.02,.02,.04,.03,.06Z"/></g><path id="Leg-and-Butt" class="cls-13" d="M158.48,268.33c0,12.52,5.94,41.71,5.95,44.47h12.79c-1.87-26.04-2.54-39.21-1.99-39.49,.82-.42,33.47,3.26,43.27,3.26,14.12,0,19.97-8.91,20.44-25.4h-27.98c-5.7,.61-35.41,6.6-46.45,8.66-4.72,.88-6.03,5.05-6.03,8.5Z"/></g><g id="Body_Turtle-Neck"><path id="Skin-4" class="cls-12" d="M187.34,245.26l-13.35,13.02c-3.88,1.66-7.06,3.49-9.54,5.49-.56,.67-1.16,1.96,1.46,1.39,2.62-.58,5.41-1.07,5.9-.21,.49,.85-.96,2.16-.05,3.28,.61,.74,2.65-1.62,6.13-7.11l13.88-8.18-4.43-7.67Zm65.26-11.78l-10.32,.04c7.86,25.46,12.03,38.78,12.51,39.99,1.09,2.7-1.22,6.82-2.2,9.03,3.21,1.44,2.87-3.89,6.92-2,3.7,1.72,6.51,4.84,10.79,2.2,.53-.32,1.1-1.55-.29-2.5-3.47-2.38-8.46-6.54-9.14-7.91-.92-1.87-3.68-14.82-8.28-38.85Z"/><path id="Clothes-Back" class="cls-6" d="M221.17,204.21l-4.07-.7c-6.42,22.69-39.39,38.15-41.41,46.63-.74,3.11,1.5,4.68,.34,5.63l5.3,3.88c.9-1.05,2.81,.87,6.81-.47,4-1.34,33.05-28.1,33.05-54.96Z"/><path id="Clothes-Front" class="cls-7" d="M214.32,207.23c.47,30.03-16.89,37.69-13.02,49.74,3.19,9.95,33.76,20.64,39.05,10.89,2.14-3.95,3.11-8.72,3.22-13.91,1.35,3.99,2.42,7.42,3.21,10.3,1.36,4.97,6.62,5.75,6.62,7.67l6.93-1.91c-.47-2.6,2.8-3.86,1.92-9.67-3.92-26.01-14.47-44.87-31.64-56.57l-.18-2.54c-.07-1.04-.97-1.82-2.01-1.75l-12.69,.89c-1.04,.07-1.82,.97-1.75,2.01l.34,4.85Z"/></g></g></g><path id="Leaf-Top" class="cls-1" d="M124.51,11.31c3.51-1.74,8.19,.28,6.24,4.88-2.09,4.93-9.82,4.99-14.19,4.89,.44-.02,1.84-4.54,2.33-5.23,1.42-2.01,3.47-3.47,5.63-4.55h0Zm-40.43,89.83c-1.24,1.06-.1,.1,0,0Zm44.51-66.92c2.1,1.59,2.2,4.4,.48,6.3-2.04,2.26-5.77,2.18-8.56,1.96-1.26-.1-7.99-.63-6.39-1.72-.12,.05-.38,.16-.65,.31-.15,.53-.3,1.07-.46,1.6,.04,.02,.07,.05,.12,.07-.05-.02-.08-.04-.12-.06-1.62,5.29-3.93,10.33-6.94,15.05,1.13-.44,2.3-.77,3.48-.92,3.51-.44,10.89,2.26,6.96,6.88-3.77,4.44-9.62-.32-13.89-.97-4.15,5.73-8.72,11.22-13.51,16.53,.29,.09,.55,.28,.7,.58,1.92-.97,3.92-2.35,5.7-2.72,2.56-.54,7.82-.87,9.76,1.4,2.38,2.79-.17,5.07-2.99,5.6-4.08,.78-9.43-1.19-13.36-2.53-.45,.08-.94-.05-1.23-.41-.09-.03-.17-.06-.26-.08-4.85,5.28-9.89,10.39-14.89,15.38h.16c1.31-.85,2.71-1.54,4.22-1.91,3.51-.85,7.64-.86,10.49,1.66,2.84,2.5,3.84,6.88,.9,9.7-5.88,5.63-14.53-7.2-17.49-7.73-5.09,5.02-10.46,9.72-15.93,14.31,.62-.19,1.26-.33,1.91-.39,5.35-.51,17.92,5.98,11.34,12.38-5.73,5.58-12.35-5.15-16.96-8.9-5.15,4.29-10.32,8.54-15.35,12.97,2.74-.72,5.39-.83,8.33,.05,3.04,.91,7.95,3.18,6.02,7.25-1.96,4.14-7.85,2.26-10.92,.95-1.67-.72-5.03-3.13-7.98-4.15-8.03,7.51-14.98,15.77-20.25,25.51-3.29,6.08-5.78,12.57-7.54,19.25-1.12,4.26-3.33,11.41-2.89,16.96-2.1-11.1,1.71-24.42,5.82-34.35,3.78-9.12,9.42-17.13,16.04-24.34-1.66-4.94-15.61-12.06-7.27-16.65,4.43-2.43,8.97,1.6,9.94,5.86,.66,2.93-.35,6.61-1.43,9.46,2.08-2.2,4.24-4.33,6.47-6.38,3.08-2.84,6.23-5.6,9.42-8.33-5.24-4.88-10.2-18.82-3.16-21.11,10.38-3.36,5.38,15.66,4.65,19.23-.21,0-.37-.05-.48-.18,.06,.33,.13,.68,.21,1.03,6.09-5.19,12.28-10.28,18.26-15.59-.54-.39-1.39-1.9-2.07-2.7-1.52-1.81-2.97-3.69-4.03-5.81-1.68-3.34-3.29-8.67,1.16-10.64,4.84-2.14,7.13,3.88,7.16,7.48,.02,2.49-.66,4.85-1.02,7.29-.11,.76,.32,4.19-.73,2.71,.05,.54,.06,.94,.03,1.22,1.07-.96,2.14-1.93,3.2-2.9-.05-.12-.09-.26-.09-.41-.06-1.07,1.03-1.49,1.8-1.17,1.4-1.31,2.78-2.65,4.14-4,2.88-2.88,5.8-5.83,8.7-8.86-.63-.53-.38-1.28-.97-1.84-.59-.57-1.74-.88-2.43-1.41-1.74-1.32-3.18-3.25-4.22-5.15-1.72-3.14-3.94-9.72,1.09-11.22,5.18-1.55,7.81,4.79,8.14,8.75,.06,.77-.52,7.69-.97,10.2,5.37-5.61,10.65-11.44,15.43-17.37-1.45-.01-5.56-2.95-6.39-3.75-2.03-1.96-5.25-6.28-1.69-8.57,3.16-2.03,7.05,.91,8.4,3.76,.22,.47,1,4.85,1.06,6.81,1.98-2.51,3.87-5.04,5.63-7.58,1.17-1.69,2.27-3.42,3.29-5.18-.25-.14-.48-.38-.7-.68-5.27-.88-11.98-9.02-5.79-11.86,2.95-1.35,6.14,1.43,7.59,3.71,.3,.47,.77,2.81,1.16,4.65,2.95-5.85,5.2-12.05,6.92-18.41-.46-.11-.85-.46-.9-1.06-2.56-1.44-4.58-2.65-6.36-5.42-1.11-1.72-3.11-5.67,.16-6.63,4.24-1.25,6.91,5.17,7.25,8.33,.04,.37,.04,1.43,.02,2.41,.15-.02,.3-.02,.44,0,.98-3.93,1.76-7.92,2.38-11.91-2.32-.74-2.71-12.78-1.17-14.5,3.45-3.84,5.88,1.7,5.69,4.64-.22,3.46-1.8,6.6-3.69,9.39-.2,.3-.14,.28-.2-.13-.03,.2-.1,.35-.2,.46,.1,1.82,.28,3.68,.19,5.29-.26,4.61-.81,9.25-1.6,13.8-.19,1.11-.41,2.21-.66,3.29,1.86-1.57,4.37-2.97,5.35-3.41,2.55-1.13,6.48-2.36,9.01-.44h.01ZM.19,193.89c.12,1.48,.49,2.83,1.21,3.94-.53-1.27-.92-2.59-1.21-3.94Z"/><path id="Leaf-Top-2" class="cls-1" d="M111.69,141.9c1.76,.51,2.73,2.68,.61,3.65-2.27,1.04-4.96-1.38-6.43-2.79,.16,.13,2.07-.98,2.45-1.07,1.12-.24,2.29-.1,3.37,.21h0Zm-42.26,18.2c-.76-.03-.07,0,0,0Zm36.44-9.03c.22,1.21-.63,2.21-1.82,2.32-1.42,.14-2.68-1.07-3.57-2.02-.4-.43-2.55-2.74-1.66-2.61-.06-.02-.18-.06-.32-.1-.22,.14-.44,.27-.66,.41,0,.02,0,.04,.02,.06-.01-.02-.01-.04-.02-.06-2.23,1.31-4.61,2.32-7.14,3,.53,.2,1.04,.46,1.49,.78,1.35,.96,3.04,4.21,.23,4.57-2.7,.34-3.21-3.14-4.48-4.71-3.24,.67-6.54,1.12-9.87,1.44,.07,.12,.1,.27,.06,.42,.97,.27,2.09,.43,2.82,.86,1.05,.62,2.97,2.17,2.92,3.56-.06,1.71-1.66,1.69-2.8,.99-1.65-1.02-2.87-3.38-3.81-5.08-.18-.11-.31-.31-.29-.53-.02-.04-.04-.07-.06-.11-3.34,.29-6.68,.46-9.98,.6l.06,.05c.72,.12,1.42,.32,2.06,.67,1.48,.81,2.9,2.11,3.09,3.88,.19,1.76-.85,3.58-2.75,3.63-3.8,.09-2.74-7.06-3.59-8.18-3.34,.12-6.67,.05-10-.09,.27,.13,.54,.28,.78,.47,2,1.51,4.29,7.71,0,7.84-3.73,.12-2.63-5.67-3.04-8.41-3.13-.15-6.25-.31-9.38-.37,1.17,.62,2.12,1.41,2.85,2.64,.76,1.27,1.74,3.6-.21,4.4-1.98,.81-3.42-1.7-4.06-3.12-.35-.77-.75-2.66-1.44-3.95-5.14,.06-10.13,.71-15.02,2.41-3.05,1.06-5.96,2.51-8.67,4.26-1.73,1.11-4.75,2.88-6.34,4.93,2.78-4.49,8.29-7.88,12.84-10,4.18-1.95,8.65-2.93,13.2-3.33,.99-2.23-1.58-9.08,2.74-8.03,2.29,.56,2.59,3.38,1.58,5.15-.7,1.22-2.2,2.17-3.48,2.81,1.41-.1,2.83-.16,4.24-.16,1.96,0,3.91,.03,5.87,.1-.27-3.33,2.42-9.7,5.57-8.27,4.64,2.12-3.08,7.09-4.46,8.09-.07-.07-.11-.13-.11-.21-.08,.13-.17,.28-.25,.42,3.74,.13,7.47,.33,11.21,.39-.06-.3,.12-1.09,.14-1.58,.05-1.1,.14-2.21,.44-3.27,.47-1.68,1.6-4.03,3.75-3.3,2.34,.79,1.23,3.59,.11,4.84-.78,.86-1.76,1.46-2.65,2.19-.28,.23-1.21,1.54-1.11,.7-.15,.2-.28,.34-.37,.43,.67,0,1.35,0,2.02,0,.02-.06,.05-.12,.1-.17,.32-.39,.82-.19,.99,.16,.9,0,1.79-.04,2.69-.07,1.9-.08,3.84-.18,5.79-.31-.05-.38,.27-.56,.25-.94-.02-.38-.32-.85-.39-1.25-.18-1-.07-2.12,.17-3.11,.4-1.62,1.71-4.59,3.91-3.52,2.27,1.1,1.18,4.11,.05,5.58-.22,.28-2.6,2.49-3.55,3.21,3.62-.24,7.28-.58,10.79-1.12-.5-.46-.99-2.77-1.02-3.31-.08-1.32,.17-3.82,2.12-3.49,1.73,.3,2.14,2.54,1.71,3.94-.07,.23-1.18,1.99-1.78,2.68,1.47-.24,2.92-.52,4.33-.84,.94-.21,1.86-.46,2.77-.75-.04-.13-.05-.28-.03-.46-1.54-1.97-1.28-6.89,1.74-5.91,1.44,.47,1.66,2.43,1.45,3.67-.04,.26-.62,1.21-1.07,1.97,2.86-1.09,5.59-2.51,8.19-4.16-.12-.18-.15-.43,.02-.65-.43-1.3-.74-2.36-.48-3.87,.16-.94,.72-2.93,2.15-2.23,1.86,.91,.75,3.96-.13,5.16-.1,.14-.44,.51-.75,.84,.06,.04,.11,.09,.15,.14,1.58-1.05,3.1-2.17,4.58-3.35-.57-.99,3.1-5.26,4.17-5.37,2.4-.24,1.49,2.44,.5,3.39-1.17,1.12-2.7,1.71-4.23,2.07-.16,.04-.14,.05-.03-.11-.07,.06-.14,.09-.21,.1-.54,.66-1.06,1.36-1.6,1.88-1.54,1.51-3.2,2.93-4.9,4.25-.42,.32-.84,.63-1.26,.93,1.14,.05,2.44,.35,2.92,.51,1.24,.41,2.98,1.23,3.24,2.69h0s0,0,0,0Zm-94.6,14.54c-.43,.55-.72,1.13-.83,1.74,.22-.6,.5-1.18,.83-1.74Z"/></svg>